<svg width="294" height="294" viewBox="0 0 294 294" fill="none" xmlns="http://www.w3.org/2000/svg">
<mask id="mask0_1_620" style="mask-type:luminance" maskUnits="userSpaceOnUse" x="39" y="82" width="166" height="136">
<path d="M39.2085 82.9219H204.005V217.573H39.2085V82.9219Z" fill="white"/>
</mask>
<g mask="url(#mask0_1_620)">
<path d="M182.224 82.974C179.125 86.8282 174.271 88.7709 169.573 90.3334C136.302 101.391 99.2866 100.854 66.3491 88.8386C55.1199 84.7396 48.7293 104.005 45.6199 112.104C41.0314 124.057 38.8439 136.932 39.2606 149.729C39.4949 156.969 40.5626 164.188 42.5001 171.177C44.2137 177.349 46.5835 183.401 50.1356 188.734C56.7449 198.651 67.1564 205.615 78.3231 209.818C89.4897 214.021 101.448 215.667 113.339 216.698C128.292 217.984 143.573 218.313 158.073 214.453C172.573 210.599 186.349 202.099 193.833 189.115C197.156 183.344 199.146 176.896 200.651 170.412C204.162 155.297 205.188 139.484 202.401 124.224C199.61 108.958 192.886 94.2605 182.224 82.974Z" fill="#D56F46"/>
</g>
<mask id="mask1_1_620" style="mask-type:luminance" maskUnits="userSpaceOnUse" x="191" y="102" width="64" height="70">
<path d="M191.052 102.557H254.985V171.703H191.052V102.557Z" fill="white"/>
</mask>
<g mask="url(#mask1_1_620)">
<path d="M236.474 103.672C232.214 102.448 227.698 102.464 223.287 102.807C217.969 103.224 212.573 104.13 207.865 106.63C203.396 109 196.162 115.292 193.693 119.927C190.62 125.682 194.11 135.531 201.912 133.469C207.604 131.964 208.927 124.547 212.938 120.24C215.766 117.198 219.959 115.787 224.063 115.094C226.938 114.609 230 114.438 232.682 115.583C236.537 117.224 238.849 121.297 239.75 125.38C241.459 133.104 238.865 141.547 233.406 147.281C227.943 153.016 219.849 156.016 211.927 155.656C207.709 155.469 203.479 154.385 199.307 155.063C195.141 155.74 190.901 159.01 191.141 163.219C191.287 165.688 192.979 167.88 195.094 169.172C197.209 170.469 199.698 170.995 202.162 171.307C217.261 173.25 233.146 167.609 243.63 156.594C251.005 148.844 255.766 138.219 254.88 127.573C253.99 116.922 246.761 106.63 236.474 103.672Z" fill="#D56F46"/>
</g>
<path d="M178.448 80.1042C166.938 77.6198 155.057 77.5625 143.281 77.5104C118.443 77.4063 93.448 77.3177 69.0053 81.7083C66.6824 82.125 64.3074 82.6094 62.3074 83.8594C58.7762 86.0677 57.4845 90.9688 61.2918 93.6927C63.5209 95.2865 66.6043 94.7188 69.198 95.1406C79.2137 96.7604 88.948 98.3802 99.1095 99.0521C125.807 100.818 153.62 101.245 178.104 90.474C179.667 89.7865 181.25 89.0261 182.391 87.7552C183.537 86.4896 184.136 84.5938 183.427 83.0417C182.599 81.2188 180.401 80.5313 178.448 80.1042Z" fill="#EB905C"/>
<path d="M63.8855 95.3803C64.7344 95.5 65.4219 94.3594 64.5209 93.875C63.6511 93.4115 62.6719 92.9011 61.8699 92.2344C61.3647 92.0105 60.9011 91.75 60.5157 91.4428C57.5157 89.0678 61.1563 85.9011 63.0313 84.2084C63.4844 83.7969 63.0053 82.8698 62.4011 83.125C59.323 84.4219 55.9792 86.8803 56.7292 90.7084C57.5157 93.6407 60.8438 94.9532 63.8855 95.3803Z" fill="#F4BA68"/>
<mask id="mask2_1_620" style="mask-type:luminance" maskUnits="userSpaceOnUse" x="56" y="75" width="130" height="28">
<path d="M56.3335 75.7344H185.667V102.833H56.3335V75.7344Z" fill="white"/>
</mask>
<g mask="url(#mask2_1_620)">
<path d="M182.245 79.9011C178.229 77.4688 172.688 77.0782 168.115 76.6823C157.282 75.7448 146.245 75.9427 135.38 76.0521C124.37 76.1667 113.36 76.5573 102.37 77.2344C90.5419 77.9584 78.219 78.3021 66.6305 80.9219C62.4638 81.8698 57.1773 83.6459 56.594 88.6094C56.5003 89.3855 56.5628 90.0834 56.7294 90.7084C55.9794 86.8802 59.3232 84.4219 62.4013 83.125C63.0055 82.8698 63.4846 83.7969 63.0315 84.2084C61.1565 85.9011 57.5159 89.0677 60.5159 91.4427C60.9013 91.75 61.3648 92.0105 61.87 92.2344C61.4378 91.8698 61.0575 91.4636 60.7815 90.9896C59.5523 88.875 61.318 87.0209 63.1669 86.1667C66.9534 84.4167 71.6357 83.9584 75.7346 83.474C84.4117 82.4427 93.1565 81.8177 101.875 81.2709C119.755 80.1511 137.683 79.7709 155.594 80.1355C160.084 80.2292 164.594 80.2917 169.068 80.7292C171.255 80.948 173.433 81.2709 175.584 81.7552C177.37 82.1563 180.313 82.5 181.401 84.1459C182.755 86.1823 179.584 87.5677 178.073 88.4688C176.422 89.4584 174.698 90.3438 172.933 91.125C169.271 92.75 165.396 93.9011 161.49 94.7917C144.927 98.5625 127.266 98.4896 110.37 98.1615C100.766 97.974 91.1253 97.6667 81.5888 96.4427C76.7971 95.823 72.0211 94.9584 67.344 93.7448C65.7555 93.3334 63.568 92.9844 61.87 92.2344C62.6721 92.9011 63.6513 93.4115 64.5211 93.875C65.4221 94.3594 64.7346 95.5 63.8857 95.3802C60.844 94.9532 57.5159 93.6407 56.7294 90.7084C56.7346 90.7448 56.7346 90.7813 56.745 90.8177C57.6253 94.9167 63.1721 95.7969 66.5211 96.7084C76.4482 99.4063 86.7503 100.432 96.995 100.953C117.755 102.021 139.427 102.542 159.933 98.5938C164.438 97.724 168.886 96.5209 173.136 94.7813C176.808 93.2813 181.339 91.4115 184.151 88.5052C186.813 85.7552 185.162 81.6719 182.245 79.9011Z" fill="#F4BA68"/>
</g>
<mask id="mask3_1_620" style="mask-type:luminance" maskUnits="userSpaceOnUse" x="39" y="150" width="37" height="40">
<path d="M39.2085 150.833H75.0002V189.5H39.2085V150.833Z" fill="white"/>
</mask>
<g mask="url(#mask3_1_620)">
<path d="M70.9115 178.776C70.8333 176.333 71.5625 173.953 72.2292 171.609C72.8958 169.26 73.5104 166.823 73.1927 164.406C72.9583 162.62 71.9792 160.703 70.224 160.266C68.8437 159.927 67.3646 160.635 66.4219 161.698C65.474 162.76 64.9531 164.12 64.4688 165.458C64.1875 166.234 63.8958 167.042 63.3229 167.635C62.75 168.229 61.8021 168.552 61.0729 168.156C60.6719 167.943 60.401 167.547 60.1979 167.146C59.3437 165.448 59.4792 163.438 59.75 161.563C60.0208 159.682 60.4063 157.76 59.9948 155.912C59.5781 154.063 58.0885 152.281 56.1875 152.25C54.5365 152.224 53.0833 153.563 52.5729 155.13C52.2969 155.964 52.1146 157.01 51.2865 157.302C50.6458 157.526 49.9375 157.125 49.526 156.589C49.1198 156.052 48.9115 155.391 48.5938 154.797C47.2552 152.297 43.8646 151.318 41.2083 152.307C40.5729 152.547 39.9844 152.875 39.4531 153.281C39.7135 156.984 40.1927 160.667 40.901 164.313C41.8698 164.323 42.8646 164.302 43.7865 164.537C44.0469 164.604 44.3177 164.698 44.5104 164.891C45.224 165.578 44.5 166.745 43.8125 167.458C43.1927 168.109 42.5885 168.787 42.0677 169.516C42.2083 170.073 42.349 170.625 42.5 171.177C43.1719 173.594 43.9427 175.984 44.8438 178.328C45.8594 178.505 46.9323 178.469 47.9219 178.234C49.6615 177.818 51.5313 176.943 53.1302 177.734C53.3646 177.854 53.599 178.021 53.7031 178.266C53.8073 178.526 53.75 178.828 53.651 179.094C53.1563 180.495 51.8021 181.474 51.3385 182.891C50.5729 185.229 52.7135 187.724 55.1302 188.224C57.5469 188.724 60.0156 187.807 62.2604 186.787C65.6563 185.24 70.4635 182.88 74.1719 184.969C72.0417 183.771 70.9896 181.214 70.9115 178.776Z" fill="#F4BA68"/>
</g>
<path d="M89.6771 118.766C87.5364 117.594 85.8489 115.755 84.1614 113.995C82.4739 112.229 80.6823 110.464 78.4323 109.516C76.7656 108.807 74.6146 108.677 73.3489 109.969C72.3542 110.984 72.2187 112.609 72.6562 113.964C73.0885 115.318 74.0052 116.458 74.9167 117.552C75.4427 118.188 75.9896 118.844 76.2135 119.641C76.4323 120.438 76.2292 121.417 75.5208 121.839C75.1302 122.073 74.6562 122.109 74.2031 122.078C72.3073 121.953 70.6406 120.818 69.1562 119.635C67.6719 118.448 66.2083 117.141 64.401 116.557C62.5885 115.974 60.2969 116.354 59.3073 117.974C58.4479 119.38 58.8646 121.307 59.9583 122.547C60.5417 123.203 61.3542 123.896 61.1823 124.755C61.0521 125.417 60.3489 125.823 59.6771 125.906C59.0052 125.984 58.3281 125.823 57.651 125.797C54.8177 125.682 52.25 128.104 51.7604 130.891C51.2656 133.677 52.5937 136.589 54.7292 138.453C56.0469 139.599 57.9219 140.422 59.5417 139.76C61.5364 138.938 62.1042 136.401 63.625 134.875C63.8177 134.682 64.0364 134.5 64.3021 134.427C65.2604 134.167 65.8958 135.38 66.1667 136.333C66.5885 137.833 67.1094 139.333 68.0364 140.589C68.9635 141.844 70.3594 142.828 71.9167 142.943C74.5521 143.13 76.7812 140.786 77.5521 138.266C78.0781 136.557 78.2656 134.505 79.7656 133.531C79.9896 133.385 80.25 133.271 80.5104 133.313C80.7917 133.349 81.0208 133.552 81.2031 133.771C82.1614 134.911 82.3177 136.568 83.3073 137.688C84.9375 139.531 88.1771 138.953 89.8385 137.13C91.4948 135.307 91.9531 132.714 92.2083 130.266C92.5989 126.563 92.9948 121.234 96.6875 119.104C94.5677 120.323 91.8229 119.932 89.6771 118.766Z" fill="#F4BA68"/>
<path d="M121.224 185.625C120.943 185.464 120.667 185.266 120.505 184.979C119.917 183.948 121.141 182.854 122.167 182.26C123.781 181.323 125.375 180.276 126.557 178.833C127.739 177.391 128.474 175.484 128.141 173.651C127.583 170.547 124.198 168.661 121.042 168.516C118.906 168.411 116.463 168.802 114.891 167.354C114.656 167.141 114.448 166.87 114.411 166.557C114.375 166.219 114.542 165.896 114.739 165.625C115.781 164.177 117.661 163.5 118.667 162.031C120.328 159.594 118.698 156.016 116.088 154.641C113.479 153.26 110.333 153.5 107.417 153.927C102.995 154.573 96.6874 155.688 93.1249 152.052C95.1666 154.135 95.5259 157.427 94.802 160.255C94.0832 163.083 92.4478 165.578 90.8957 168.052C89.3489 170.526 87.828 173.125 87.3905 176.005C87.0624 178.141 87.552 180.667 89.4218 181.75C90.8957 182.604 92.828 182.276 94.2707 181.375C95.7134 180.469 96.7655 179.073 97.7655 177.698C98.3489 176.896 98.9478 176.068 99.8072 175.578C100.667 175.083 101.864 175.031 102.568 175.724C102.953 176.104 103.135 176.646 103.234 177.177C103.651 179.412 102.828 181.672 101.885 183.74C100.948 185.807 99.8645 187.891 99.7239 190.156C99.5832 192.417 100.703 194.958 102.875 195.625C104.766 196.203 106.88 195.146 107.989 193.521C108.583 192.651 109.146 191.505 110.193 191.448C111 191.401 111.687 192.099 111.979 192.849C112.266 193.604 112.281 194.432 112.453 195.224C113.161 198.537 116.724 200.792 120.109 200.537C123.495 200.281 126.479 197.88 128.01 194.859C128.958 192.995 129.359 190.583 128.109 188.912C126.568 186.844 123.448 186.932 121.224 185.625Z" fill="#F4BA68"/>
<path d="M162.937 133.703C160.75 133.073 158.614 134.792 156.354 135.057C156.073 135.089 155.771 135.099 155.505 134.984C154.542 134.573 154.818 133.156 155.219 132.193C155.854 130.677 156.411 129.099 156.474 127.458C156.531 125.818 156.031 124.089 154.818 122.979C152.771 121.099 149.39 121.578 147.099 123.151C145.547 124.214 144.042 125.781 142.167 125.604C141.885 125.578 141.594 125.5 141.401 125.297C141.198 125.083 141.146 124.766 141.135 124.469C141.094 122.901 142.052 121.427 141.974 119.865C141.838 117.271 138.786 115.625 136.219 116.047C133.656 116.469 131.578 118.302 129.755 120.156C127 122.958 123.172 127.089 118.729 126.432C121.276 126.813 123.286 128.927 124.286 131.297C125.286 133.667 125.469 136.281 125.703 138.844C125.937 141.401 126.255 144.031 127.489 146.286C128.396 147.958 130.083 149.469 131.974 149.234C133.463 149.052 134.646 147.797 135.172 146.396C135.703 144.995 135.698 143.453 135.667 141.958C135.651 141.089 135.63 140.188 135.969 139.385C136.307 138.583 137.12 137.911 137.984 138.021C138.458 138.083 138.875 138.37 139.229 138.688C140.708 140.031 141.338 142.063 141.781 144.01C142.229 145.958 142.578 147.995 143.687 149.656C144.797 151.323 146.932 152.505 148.812 151.818C150.448 151.224 151.37 149.359 151.281 147.625C151.234 146.703 151.015 145.599 151.719 145.005C152.265 144.542 153.114 144.667 153.719 145.042C154.328 145.417 154.781 145.99 155.323 146.453C157.583 148.401 161.286 148.089 163.526 146.109C165.765 144.135 166.578 140.865 166.042 137.927C165.708 136.12 164.708 134.214 162.937 133.703Z" fill="#F4BA68"/>
<path d="M182.786 169.865C181.151 169.016 179.031 168.635 177.536 169.719C175.698 171.057 175.75 173.797 174.573 175.74C174.427 175.984 174.25 176.224 173.995 176.365C173.083 176.87 172.125 175.786 171.609 174.875C170.802 173.448 169.891 172.036 168.63 170.984C167.37 169.932 165.693 169.271 164.073 169.542C161.328 170.005 159.63 172.964 159.474 175.734C159.365 177.609 159.682 179.76 158.391 181.125C158.198 181.328 157.958 181.516 157.682 181.542C157.385 181.568 157.099 181.417 156.859 181.245C155.594 180.313 155.016 178.651 153.729 177.755C151.594 176.271 148.422 177.672 147.182 179.953C145.937 182.229 146.12 184.995 146.469 187.568C146.995 191.458 147.917 197.01 144.672 200.109C146.531 198.333 149.443 198.047 151.927 198.714C154.417 199.375 156.604 200.839 158.771 202.219C160.938 203.604 163.214 204.969 165.755 205.38C167.635 205.688 169.87 205.286 170.844 203.651C171.609 202.365 171.339 200.667 170.557 199.391C169.771 198.115 168.552 197.172 167.349 196.276C166.646 195.76 165.922 195.224 165.495 194.464C165.068 193.703 165.036 192.651 165.656 192.042C165.995 191.703 166.474 191.547 166.943 191.469C168.917 191.125 170.906 191.87 172.719 192.714C174.536 193.557 176.359 194.531 178.359 194.682C180.354 194.828 182.604 193.865 183.214 191.964C183.745 190.307 182.839 188.438 181.406 187.448C180.651 186.917 179.646 186.411 179.604 185.49C179.573 184.781 180.193 184.188 180.859 183.938C181.526 183.688 182.255 183.682 182.958 183.542C185.885 182.953 187.911 179.839 187.719 176.865C187.526 173.891 185.438 171.24 182.786 169.865Z" fill="#F4BA68"/>
<path d="M201.422 119.615C201.25 120.047 201.088 120.484 200.932 120.922C200.646 121.74 200.344 122.594 199.745 123.224C199.146 123.854 198.146 124.198 197.375 123.792C196.953 123.563 196.666 123.151 196.448 122.729C195.536 120.948 195.661 118.833 195.932 116.854C196.203 114.87 196.599 112.844 196.146 110.896C195.693 108.948 194.109 107.089 192.109 107.068C190.37 107.057 188.849 108.474 188.318 110.13C188.036 111.01 187.854 112.115 186.984 112.427C186.312 112.672 185.562 112.255 185.125 111.693C184.687 111.13 184.469 110.432 184.125 109.807C182.693 107.188 179.114 106.182 176.323 107.245C173.531 108.307 171.614 111.083 171.083 114.016C170.755 115.828 171.021 117.964 172.5 119.063C174.323 120.422 176.932 119.563 179.135 120.109C179.416 120.177 179.698 120.276 179.906 120.474C180.661 121.198 179.906 122.427 179.187 123.188C178.057 124.385 176.979 125.667 176.344 127.182C175.713 128.698 175.573 130.49 176.312 131.953C177.568 134.432 180.901 135.177 183.599 134.51C185.427 134.057 187.39 133.12 189.083 133.943C189.333 134.068 189.578 134.24 189.687 134.5C189.802 134.771 189.745 135.089 189.646 135.37C189.13 136.849 187.713 137.891 187.234 139.385C186.448 141.859 188.724 144.469 191.276 144.979C193.823 145.484 196.416 144.5 198.776 143.406C200.307 142.693 202.114 141.823 203.989 141.229C203.932 135.531 203.422 129.839 202.396 124.224C202.114 122.682 201.781 121.146 201.422 119.615Z" fill="#F4BA68"/>
<path d="M181.682 174.411C178.787 178.344 174.542 180.75 170.375 183.13C165.787 185.745 161.156 188.286 156.573 190.917C149.792 194.813 140.547 200.078 137.698 207.859C137.537 208.297 138.177 208.656 138.485 208.313C141.406 205.047 143.87 201.599 147.245 198.724C151.24 195.318 155.745 192.578 160.219 189.859C164.531 187.24 168.886 184.693 173.182 182.052C176.511 180.005 179.604 177.771 181.719 174.432C181.735 174.411 181.698 174.396 181.682 174.411Z" fill="#EB905C"/>
<path d="M151.031 181.854C151.875 186.162 152.375 190 151.057 194.245C150.932 194.641 151.563 194.922 151.74 194.537C153.552 190.474 152.349 185.875 151.068 181.844C151.063 181.818 151.026 181.828 151.031 181.854Z" fill="#EB905C"/>
<path d="M164.51 173.802C165.213 178.563 164.765 182.76 163.427 187.365C163.302 187.792 163.911 187.922 164.073 187.542C165.87 183.26 165.953 178.177 164.588 173.781C164.573 173.729 164.505 173.75 164.51 173.802Z" fill="#EB905C"/>
<path d="M151.068 194.854C150.87 194.938 150.885 195.229 151.12 195.24C153.755 195.354 156.276 195.297 158.807 196.214C161.297 197.109 163.448 198.417 165.521 200.047C165.599 200.109 165.698 200.016 165.63 199.938C162.214 196.104 156.286 192.708 151.068 194.854Z" fill="#EB905C"/>
<path d="M163.87 187.287C163.797 187.318 163.833 187.438 163.911 187.432C166.359 187.287 168.667 186.979 171.125 187.401C173.328 187.787 175.177 188.802 177.214 189.641C177.344 189.693 177.443 189.5 177.349 189.412C174.078 186.464 167.88 185.484 163.87 187.287Z" fill="#EB905C"/>
<path d="M94.9271 151.245C93.1042 149.25 89.1302 144.339 86.0209 145.109C85.849 145.151 85.6927 145.339 85.7084 145.526C85.8177 147.187 87.3125 148.141 88.4844 149.198C89.9688 150.542 91.5104 151.828 92.9844 153.182C96.3177 156.24 99.4792 159.474 102.161 163.12C107.62 170.536 111.948 178.557 116.141 186.74C116.151 186.76 116.182 186.74 116.172 186.719C112.365 177.964 108.12 169.198 102.635 161.354C100.198 157.865 97.8073 154.391 94.9271 151.245Z" fill="#EB905C"/>
<path d="M100.172 160.188C98.1928 165.703 97.2501 171 93.0157 175.401C93.0001 175.417 93.0209 175.448 93.0418 175.432C97.672 172.052 100.094 165.917 101.042 160.427C101.141 159.859 100.37 159.635 100.172 160.188Z" fill="#EB905C"/>
<path d="M114.193 158.891C109.714 160.537 104.99 159.906 100.391 159.188C99.7968 159.094 99.5416 159.995 100.141 160.094C104.984 160.885 109.786 161.495 114.24 159C114.297 158.969 114.26 158.87 114.193 158.891Z" fill="#EB905C"/>
<path d="M109.385 174.286C109.417 179.484 107.875 184.219 105.234 188.667C105.182 188.755 105.312 188.828 105.37 188.745C108.515 184.552 109.937 179.5 109.932 174.286C109.932 173.932 109.385 173.932 109.385 174.286Z" fill="#EB905C"/>
<path d="M122.141 175.203C117.969 175.63 113.912 175.297 110.021 173.656C109.604 173.484 109.354 174.057 109.776 174.229C113.755 175.849 117.974 176.391 122.156 175.318C122.219 175.302 122.208 175.193 122.141 175.203Z" fill="#EB905C"/>
<path d="M161.437 140.13C151.318 139 143.417 132.427 134.083 129.083C129.724 127.516 124.99 126.563 120.396 125.964C116.24 125.422 112.01 125.563 108.396 127.859C108.24 127.964 108.349 128.172 108.521 128.151C117.88 126.818 127.693 128.875 136.552 131.87C144.974 134.714 152.281 139.927 161.437 140.365C161.594 140.375 161.589 140.146 161.437 140.13Z" fill="#EB905C"/>
<path d="M128.182 128.755C128.162 128.745 128.141 128.766 128.156 128.786C130.76 131.589 131.318 136.906 131.641 140.521C131.651 140.599 131.75 140.599 131.761 140.521C132.031 137.948 131.761 135.339 130.922 132.885C130.386 131.318 129.802 129.469 128.182 128.755Z" fill="#EB905C"/>
<path d="M137.656 121.422C136.313 122.922 135.026 124.448 133.438 125.698C131.609 127.135 129.724 127.714 127.594 128.521C127.578 128.526 127.573 128.552 127.594 128.557C131.964 129.521 135.766 124.688 137.714 121.469C137.74 121.432 137.688 121.391 137.656 121.422Z" fill="#EB905C"/>
<path d="M142.109 133.542C142.094 133.526 142.062 133.547 142.078 133.568C142.89 134.859 143.958 135.927 144.588 137.344C145.198 138.714 145.515 140.214 145.963 141.646C145.989 141.724 146.125 141.714 146.12 141.625C145.979 140.057 145.703 138.594 145.062 137.141C144.364 135.557 143.219 134.792 142.109 133.542Z" fill="#EB905C"/>
<path d="M150.615 128.958C148.328 131.385 146.167 134.302 142.359 133.698C142.261 133.682 142.219 133.818 142.318 133.849C145.948 134.953 149.104 132.057 150.865 129.146C150.953 128.995 150.74 128.828 150.615 128.958Z" fill="#EB905C"/>
<path d="M203.167 134.599C197.182 132.104 193.245 127.76 189.271 122.787C186.057 118.771 182.833 114.135 177.396 113.349C177.37 113.344 177.359 113.38 177.385 113.391C183.25 115.203 187.099 121.912 190.859 126.328C194.042 130.057 198.083 133.943 203.063 134.979C203.318 135.031 203.396 134.693 203.167 134.599Z" fill="#EB905C"/>
<path d="M192.302 127.005C188.615 126.229 184.557 127.12 181.672 129.542C181.656 129.557 181.677 129.589 181.698 129.573C185.005 127.438 188.443 127.458 192.208 127.698C192.604 127.724 192.693 127.083 192.302 127.005Z" fill="#EB905C"/>
<path d="M192.526 112.839C192.531 112.813 192.495 112.802 192.484 112.828C190.864 117.089 190.099 123.229 192.37 127.422C192.432 127.537 192.641 127.495 192.63 127.354C192.396 125.052 191.672 122.875 191.62 120.526C191.557 117.958 191.927 115.333 192.526 112.839Z" fill="#EB905C"/>
<path d="M199.349 132.662C196.073 134.146 193.938 137.245 191.974 140.12C191.901 140.229 192.068 140.359 192.156 140.26C194.495 137.781 196.495 134.688 199.703 133.271C200.12 133.089 199.76 132.474 199.349 132.662Z" fill="#EB905C"/>
<path d="M200.984 126.333C199.969 128.469 199.406 130.656 199.297 133.016C199.276 133.495 200.047 133.5 200.042 133.016C200.016 130.75 200.328 128.505 201.021 126.344C201.026 126.328 200.995 126.313 200.984 126.333Z" fill="#EB905C"/>
<path d="M109.635 118.083C104.838 117.677 100.375 117.781 95.8957 119.714C90.8957 121.865 85.9634 124.005 80.7707 125.687C75.9686 127.24 71.0572 128.443 66.0832 129.292C62.3332 129.927 58.5571 130.437 55.9894 133.505C55.953 133.547 56.0051 133.594 56.0415 133.562C59.4634 130.651 64.3853 130.589 68.6092 129.859C73.1301 129.078 77.6092 128.016 81.9947 126.672C86.1509 125.401 90.1822 123.771 94.1301 121.969C96.8072 120.745 99.3488 119.635 102.302 119.281C104.719 118.995 107.203 119.021 109.635 118.984C110.224 118.974 110.208 118.13 109.635 118.083Z" fill="#EB905C"/>
<path d="M88.3907 123.167C86.198 122.193 84.0782 121.448 82.1251 119.984C80.0834 118.453 78.3959 116.464 77.1042 114.271C77.0938 114.25 77.0574 114.26 77.0678 114.281C78.8542 118.786 83.1511 123.271 88.1928 123.896C88.573 123.948 88.7396 123.323 88.3907 123.167Z" fill="#EB905C"/>
<path d="M87.9429 123.51C86.7554 124.542 86.6616 125.938 86.5731 127.448C86.4168 130 86.4377 132.5 86.6304 135.052C86.6408 135.177 86.8127 135.172 86.8283 135.052C87.2345 131.469 86.7502 127.135 88.4689 123.912C88.6512 123.573 88.2293 123.26 87.9429 123.51Z" fill="#EB905C"/>
<path d="M73.9323 128.005C70.9583 130.484 70.8698 136.302 71.1093 139.813C71.1198 139.964 71.3385 139.964 71.3437 139.813C71.4583 136.151 71.901 131.375 74.4323 128.505C74.7395 128.162 74.2812 127.719 73.9323 128.005Z" fill="#EB905C"/>
<path d="M73.3904 127.62C68.4894 127.318 65.3488 123.672 62.4425 120.141C62.4321 120.12 62.4009 120.146 62.4113 120.162C64.7394 124.448 68.3696 128.037 73.3904 128.677C74.0519 128.76 74.0779 127.662 73.3904 127.62Z" fill="#EB905C"/>
<path d="M82.2968 188.021C80.5104 186.922 78.2968 186.432 76.3906 185.542C74.4427 184.635 72.5624 183.594 70.7552 182.427C67.1874 180.13 63.901 177.37 61.0624 174.219C58.1145 170.953 55.651 167.354 52.3854 164.38C49.2864 161.557 45.8749 159.302 42.0781 157.531C42.0572 157.521 42.0364 157.552 42.0624 157.568C46.0572 159.896 49.8489 162.688 53.0885 165.995C56.3489 169.323 58.8072 173.302 62.0364 176.656C64.8593 179.594 68.0677 182.141 71.5624 184.24C74.5312 186.021 78.5781 188.495 82.1093 188.719C82.4947 188.74 82.5937 188.208 82.2968 188.021Z" fill="#EB905C"/>
<path d="M67.4894 180.531C62.8644 180.359 58.4113 180.995 54.8488 184.156C54.7967 184.203 54.8644 184.286 54.9165 184.25C58.6353 181.635 63.078 181.339 67.4894 181.589C68.1665 181.63 68.1717 180.557 67.4894 180.531Z" fill="#EB905C"/>
<path d="M68.8697 165.547C66.2603 170.229 65.7447 175.573 67.1041 180.729C67.2655 181.344 68.2395 181.073 68.052 180.469C66.4947 175.484 66.9061 170.385 68.9738 165.609C68.9999 165.542 68.9061 165.479 68.8697 165.547Z" fill="#EB905C"/>
<path d="M58.1511 170.969C53.823 170.125 49.5209 170.25 45.9949 173.146C45.9272 173.198 46.0157 173.318 46.0886 173.266C49.6511 170.781 53.8438 170.615 57.9011 171.875C58.4845 172.057 58.7449 171.083 58.1511 170.969Z" fill="#EB905C"/>
<path d="M56.2605 157.344C56.2657 157.318 56.2241 157.307 56.2188 157.333C55.1199 161.88 55.2032 166.87 57.5105 171.068C57.7241 171.453 58.3855 171.193 58.2293 170.766C56.6199 166.349 55.5886 162.099 56.2605 157.344Z" fill="#EB905C"/>
<path d="M105.599 139.76C105.474 139.661 105.344 139.557 105.213 139.458C104.911 139.286 104.588 139.198 104.239 139.198C103.979 139.188 103.729 139.245 103.5 139.365C103.26 139.443 103.057 139.573 102.88 139.76C102.693 139.932 102.562 140.141 102.484 140.375C102.364 140.604 102.307 140.854 102.318 141.115C102.338 141.286 102.364 141.458 102.385 141.625C102.479 141.953 102.641 142.234 102.88 142.474C103.01 142.573 103.141 142.672 103.271 142.776C103.573 142.948 103.896 143.036 104.239 143.036C104.505 143.047 104.755 142.99 104.984 142.87C105.219 142.792 105.427 142.661 105.599 142.474C105.786 142.302 105.922 142.094 106 141.854C106.12 141.63 106.177 141.38 106.167 141.115C106.141 140.948 106.12 140.776 106.094 140.604C106.005 140.281 105.838 140 105.599 139.76Z" fill="#EB905C"/>
<path d="M104.386 136.469C104.136 136.24 103.823 136.094 103.474 136.094C103.302 136.089 103.136 136.125 102.985 136.203C102.823 136.255 102.682 136.344 102.568 136.469C102.443 136.589 102.354 136.724 102.302 136.885C102.224 137.036 102.188 137.203 102.193 137.375C102.208 137.49 102.224 137.604 102.24 137.719C102.297 137.938 102.412 138.125 102.568 138.281C102.818 138.516 103.13 138.661 103.474 138.661C103.651 138.667 103.818 138.63 103.974 138.547C104.13 138.495 104.271 138.411 104.386 138.281C104.511 138.167 104.599 138.031 104.651 137.87C104.729 137.719 104.766 137.552 104.761 137.375C104.745 137.266 104.729 137.151 104.714 137.036C104.656 136.818 104.547 136.63 104.386 136.469Z" fill="#EB905C"/>
<path d="M108.724 137.844C108.625 137.771 108.526 137.693 108.427 137.615C108.198 137.484 107.948 137.417 107.682 137.417C107.479 137.406 107.292 137.448 107.115 137.542C106.932 137.604 106.776 137.703 106.641 137.844C106.5 137.979 106.396 138.135 106.339 138.318C106.245 138.495 106.203 138.682 106.208 138.885C106.229 139.016 106.245 139.146 106.261 139.276C106.333 139.526 106.458 139.74 106.641 139.922C106.74 140 106.839 140.078 106.938 140.151C107.167 140.287 107.417 140.354 107.682 140.354C107.886 140.359 108.073 140.318 108.25 140.229C108.432 140.167 108.589 140.068 108.724 139.922C108.865 139.792 108.969 139.635 109.026 139.453C109.12 139.276 109.162 139.089 109.156 138.885C109.136 138.755 109.12 138.625 109.104 138.495C109.031 138.245 108.906 138.031 108.724 137.844Z" fill="#EB905C"/>
<path d="M73.1823 153.396C73.0937 153.328 73.0052 153.255 72.9167 153.188C72.7083 153.068 72.4844 153.005 72.2396 153.005C72.0573 153 71.8854 153.036 71.7292 153.12C71.5625 153.177 71.4167 153.266 71.2969 153.396C71.1667 153.516 71.0729 153.661 71.0208 153.823C70.9375 153.984 70.901 154.156 70.9062 154.339C70.9219 154.458 70.9375 154.573 70.9531 154.693C71.0156 154.917 71.1302 155.115 71.2969 155.281C71.3854 155.349 71.4792 155.417 71.5677 155.49C71.776 155.609 72 155.672 72.2396 155.672C72.4271 155.677 72.5937 155.641 72.7552 155.557C72.9219 155.5 73.0625 155.411 73.1823 155.281C73.3125 155.161 73.4062 155.016 73.4583 154.849C73.5417 154.693 73.5833 154.521 73.5729 154.339C73.5573 154.219 73.5417 154.104 73.526 153.984C73.4635 153.76 73.349 153.563 73.1823 153.396Z" fill="#EB905C"/>
<path d="M73.4429 150.177C73.396 150.177 73.396 150.255 73.4429 150.255C73.495 150.255 73.495 150.177 73.4429 150.177Z" fill="#EB905C"/>
<path d="M73.4429 148.807C71.6252 148.807 71.6252 151.63 73.4429 151.63C75.2658 151.63 75.2658 148.807 73.4429 148.807Z" fill="#EB905C"/>
<path d="M76.5415 153.844C76.5675 153.844 76.5675 153.802 76.5415 153.802C76.5155 153.802 76.5155 153.844 76.5415 153.844Z" fill="#EB905C"/>
<path d="M77.5937 152.432C77.4739 152.344 77.3593 152.255 77.2395 152.161C76.9739 152.005 76.6822 151.927 76.3697 151.927C76.1301 151.917 75.9114 151.969 75.703 152.078C75.4895 152.146 75.3072 152.266 75.1509 152.432C74.9791 152.589 74.8593 152.776 74.7916 152.99C74.6822 153.193 74.6353 153.417 74.6405 153.651C74.6614 153.802 74.6822 153.958 74.703 154.109C74.7864 154.401 74.9322 154.656 75.1509 154.87C75.2655 154.958 75.3801 155.052 75.4999 155.141C75.7655 155.297 76.0572 155.375 76.3697 155.375C76.6093 155.385 76.828 155.333 77.0364 155.229C77.2499 155.156 77.4374 155.036 77.5937 154.87C77.7603 154.714 77.8801 154.531 77.9478 154.318C78.0572 154.109 78.1041 153.891 78.0989 153.651C78.078 153.5 78.0572 153.344 78.0364 153.193C77.953 152.901 77.8072 152.646 77.5937 152.432Z" fill="#EB905C"/>
<path d="M54.6929 106.521C51.4845 106.521 51.4793 111.495 54.6929 111.495C57.9012 111.495 57.9064 106.521 54.6929 106.521Z" fill="#EB905C"/>
<path d="M55.0988 108.089C54.9634 108.047 54.7342 108.047 54.5988 108.089C54.4373 108.141 54.3228 108.219 54.1925 108.328C54.1613 108.359 54.1248 108.391 54.0936 108.417C54.0467 108.474 53.9998 108.536 53.9582 108.594C53.8957 108.693 53.8592 108.797 53.854 108.911C53.8332 108.99 53.8332 109.068 53.854 109.141C53.8592 109.255 53.8957 109.365 53.9582 109.464C54.0363 109.589 54.1405 109.693 54.2655 109.771C54.4582 109.896 54.7186 109.906 54.9321 109.859C54.9738 109.849 55.0155 109.839 55.0519 109.828C55.2082 109.792 55.3644 109.703 55.4738 109.594C55.5675 109.5 55.6248 109.406 55.6769 109.286C55.7238 109.167 55.7603 109.036 55.7446 108.906C55.729 108.766 55.7238 108.625 55.6457 108.5C55.5155 108.302 55.3228 108.161 55.0988 108.089Z" fill="#EB905C"/>
<path d="M55.2085 103.062C53.745 103.062 53.7397 105.339 55.2085 105.339C56.672 105.339 56.6772 103.062 55.2085 103.062Z" fill="#EB905C"/>
<path d="M58.479 107.141C58.505 107.141 58.505 107.099 58.479 107.099C58.4478 107.099 58.4478 107.141 58.479 107.141Z" fill="#EB905C"/>
<path d="M59.7137 105.714C59.5939 105.625 59.4793 105.531 59.3595 105.443C59.0887 105.286 58.7918 105.203 58.4793 105.203C58.2345 105.198 58.0106 105.245 57.8022 105.354C57.5887 105.427 57.4012 105.547 57.245 105.714C57.0731 105.875 56.9533 106.057 56.8804 106.276C56.771 106.484 56.7189 106.708 56.7293 106.948C56.7502 107.104 56.771 107.255 56.7918 107.411C56.8752 107.708 57.0262 107.964 57.245 108.182C57.3595 108.271 57.4793 108.365 57.5939 108.453C57.87 108.609 58.1616 108.688 58.4793 108.693C58.7189 108.698 58.9429 108.651 59.1512 108.542C59.3648 108.469 59.5522 108.349 59.7137 108.182C59.8856 108.021 60.0054 107.833 60.0731 107.62C60.1825 107.411 60.2345 107.188 60.2241 106.948C60.2033 106.792 60.1825 106.641 60.1616 106.484C60.0783 106.188 59.9272 105.932 59.7137 105.714Z" fill="#EB905C"/>
<path d="M173.052 156.578C172.984 156.526 172.922 156.479 172.854 156.427C172.708 156.344 172.547 156.297 172.37 156.297C172.239 156.292 172.114 156.318 172 156.38C171.88 156.417 171.776 156.484 171.693 156.578C171.599 156.667 171.531 156.771 171.495 156.885C171.432 157 171.406 157.125 171.411 157.255C171.422 157.344 171.432 157.427 171.443 157.51C171.489 157.677 171.573 157.818 171.693 157.938C171.755 157.984 171.823 158.036 171.885 158.089C172.036 158.172 172.198 158.219 172.37 158.219C172.505 158.224 172.625 158.193 172.739 158.135C172.859 158.094 172.963 158.031 173.052 157.938C173.146 157.849 173.213 157.745 173.25 157.625C173.312 157.51 173.338 157.391 173.333 157.255C173.323 157.172 173.307 157.089 173.297 157C173.255 156.839 173.172 156.698 173.052 156.578Z" fill="#EB905C"/>
<path d="M175.349 151.536C175.214 151.432 175.078 151.328 174.943 151.224C174.625 151.042 174.286 150.948 173.922 150.948C173.641 150.938 173.38 150.995 173.141 151.12C172.891 151.203 172.672 151.344 172.49 151.536C172.292 151.719 172.156 151.938 172.073 152.188C171.948 152.427 171.891 152.688 171.896 152.964C171.922 153.146 171.948 153.323 171.969 153.5C172.068 153.844 172.24 154.141 172.49 154.391C172.625 154.495 172.766 154.604 172.901 154.708C173.214 154.891 173.557 154.979 173.922 154.984C174.198 154.995 174.458 154.932 174.698 154.807C174.948 154.729 175.167 154.589 175.349 154.391C175.547 154.208 175.687 153.99 175.766 153.74C175.896 153.5 175.953 153.245 175.943 152.964C175.917 152.786 175.896 152.609 175.87 152.427C175.771 152.089 175.599 151.792 175.349 151.536Z" fill="#EB905C"/>
<path d="M176.156 156.865C174.542 156.865 174.536 159.37 176.156 159.37C177.771 159.37 177.776 156.865 176.156 156.865Z" fill="#EB905C"/>
<path d="M156.37 109.896C154.854 109.896 154.854 112.245 156.37 112.245C157.885 112.245 157.89 109.896 156.37 109.896Z" fill="#EB905C"/>
<path d="M158.094 105.135C157.958 105.031 157.823 104.927 157.693 104.823C157.38 104.646 157.042 104.552 156.682 104.552C156.406 104.542 156.151 104.599 155.912 104.724C155.667 104.807 155.453 104.943 155.271 105.135C155.073 105.318 154.938 105.531 154.86 105.776C154.735 106.016 154.677 106.271 154.682 106.547C154.708 106.724 154.735 106.901 154.755 107.078C154.849 107.411 155.021 107.708 155.271 107.953C155.406 108.057 155.542 108.161 155.672 108.266C155.985 108.448 156.323 108.536 156.682 108.542C156.958 108.552 157.214 108.495 157.453 108.37C157.698 108.286 157.912 108.151 158.094 107.953C158.292 107.776 158.427 107.563 158.505 107.313C158.63 107.078 158.688 106.823 158.677 106.547C158.656 106.37 158.63 106.193 158.61 106.016C158.516 105.677 158.344 105.385 158.094 105.135Z" fill="#EB905C"/>
<path d="M161.927 108.271C161.823 108.193 161.719 108.115 161.615 108.031C161.38 107.896 161.12 107.823 160.844 107.823C160.635 107.818 160.437 107.859 160.255 107.953C160.068 108.016 159.901 108.12 159.76 108.271C159.615 108.411 159.505 108.573 159.448 108.76C159.349 108.943 159.307 109.141 159.312 109.349C159.333 109.484 159.349 109.625 159.37 109.755C159.443 110.016 159.573 110.24 159.76 110.432C159.865 110.51 159.969 110.589 160.073 110.672C160.312 110.807 160.568 110.88 160.844 110.88C161.057 110.885 161.25 110.844 161.432 110.75C161.625 110.688 161.786 110.583 161.927 110.432C162.078 110.292 162.182 110.13 162.245 109.938C162.338 109.755 162.385 109.563 162.375 109.349C162.359 109.219 162.338 109.078 162.318 108.943C162.25 108.688 162.115 108.464 161.927 108.271Z" fill="#EB905C"/>
<path d="M137.963 165.698C137.333 165.698 137.328 166.677 137.963 166.677C138.594 166.677 138.594 165.698 137.963 165.698Z" fill="#EB905C"/>
<path d="M139.25 165.688C139.219 165.599 139.182 165.516 139.146 165.432C139.089 165.359 139.037 165.292 138.985 165.224C138.844 165.073 138.698 165.021 138.511 164.953C138.485 164.943 138.458 164.932 138.432 164.922C138.406 164.911 138.38 164.901 138.354 164.891C138.115 164.828 137.87 164.828 137.625 164.891C137.448 164.932 137.292 165.016 137.156 165.135C137.011 165.234 136.891 165.365 136.802 165.521C136.677 165.734 136.62 165.969 136.615 166.214C136.63 166.333 136.646 166.458 136.667 166.578C136.729 166.812 136.849 167.01 137.016 167.182C137.141 167.318 137.292 167.411 137.458 167.469C137.625 167.552 137.802 167.594 137.99 167.583C138.36 167.583 138.693 167.432 138.964 167.182C139.13 167.01 139.25 166.812 139.318 166.578C139.38 166.333 139.38 166.094 139.318 165.849C139.292 165.797 139.271 165.74 139.25 165.688Z" fill="#EB905C"/>
<path d="M143.875 161.484C143.687 161.344 143.505 161.198 143.318 161.052C142.885 160.802 142.417 160.677 141.922 160.677C141.536 160.661 141.182 160.74 140.854 160.917C140.51 161.026 140.214 161.214 139.964 161.484C139.693 161.734 139.5 162.031 139.391 162.375C139.219 162.703 139.135 163.057 139.151 163.438C139.182 163.682 139.219 163.927 139.25 164.172C139.38 164.641 139.62 165.047 139.964 165.391C140.151 165.536 140.339 165.677 140.521 165.823C140.953 166.073 141.422 166.198 141.922 166.198C142.302 166.214 142.656 166.135 142.984 165.964C143.328 165.849 143.625 165.661 143.875 165.391C144.146 165.141 144.339 164.844 144.448 164.505C144.62 164.172 144.703 163.818 144.687 163.438C144.651 163.193 144.62 162.948 144.589 162.703C144.458 162.234 144.219 161.828 143.875 161.484Z" fill="#EB905C"/>
<path d="M143.391 168.385C143.286 168.307 143.177 168.224 143.068 168.141C142.823 167.995 142.552 167.922 142.266 167.922C142.042 167.911 141.839 167.958 141.646 168.057C141.448 168.125 141.281 168.234 141.135 168.385C140.979 168.531 140.87 168.703 140.802 168.901C140.703 169.089 140.661 169.297 140.667 169.516C140.688 169.656 140.703 169.797 140.724 169.937C140.802 170.208 140.938 170.443 141.135 170.641C141.245 170.724 141.349 170.807 141.458 170.891C141.708 171.036 141.974 171.109 142.266 171.109C142.484 171.115 142.688 171.073 142.88 170.969C143.078 170.906 143.25 170.797 143.391 170.641C143.547 170.495 143.656 170.323 143.724 170.13C143.823 169.937 143.87 169.734 143.859 169.516C143.844 169.375 143.823 169.234 143.802 169.089C143.729 168.823 143.589 168.589 143.391 168.385Z" fill="#EB905C"/>
<path d="M91.6821 205.901C91.3019 205.901 91.3019 206.49 91.6821 206.49C92.0623 206.49 92.0623 205.901 91.6821 205.901Z" fill="#EB905C"/>
<path d="M92.5156 205.536C92.4375 205.474 92.3542 205.411 92.276 205.349C92.0937 205.245 91.8958 205.193 91.6823 205.193C91.5208 205.182 91.3698 205.219 91.2292 205.292C91.0833 205.339 90.9583 205.417 90.8489 205.536C90.7344 205.641 90.651 205.766 90.6042 205.911C90.5312 206.052 90.5 206.203 90.5052 206.365C90.5208 206.469 90.5312 206.573 90.5469 206.677C90.6042 206.875 90.7031 207.052 90.8489 207.198C90.9271 207.255 91.0104 207.318 91.0885 207.38C91.2708 207.484 91.4687 207.542 91.6823 207.542C91.8437 207.547 91.9948 207.51 92.1354 207.437C92.2812 207.391 92.4062 207.312 92.5156 207.198C92.6302 207.089 92.7083 206.964 92.7604 206.818C92.8333 206.677 92.8646 206.526 92.8594 206.365C92.8437 206.26 92.8333 206.156 92.8177 206.052C92.7604 205.854 92.6614 205.682 92.5156 205.536Z" fill="#EB905C"/>
<path d="M91.3646 200.5C91.2292 200.396 91.099 200.292 90.9636 200.188C90.6511 200.01 90.3178 199.922 89.9636 199.922C89.6876 199.911 89.4376 199.964 89.198 200.089C88.9532 200.172 88.7396 200.307 88.5626 200.5C88.3699 200.677 88.2292 200.891 88.1511 201.135C88.0261 201.37 87.9688 201.625 87.9792 201.896C88.0053 202.073 88.0261 202.25 88.0521 202.422C88.1459 202.76 88.3178 203.052 88.5626 203.297C88.6928 203.401 88.8282 203.505 88.9636 203.604C89.2709 203.786 89.6042 203.875 89.9636 203.875C90.2344 203.885 90.4896 203.828 90.724 203.703C90.974 203.625 91.1824 203.49 91.3646 203.297C91.5574 203.12 91.6928 202.906 91.7761 202.661C91.8959 202.422 91.9532 202.172 91.9428 201.896C91.9219 201.724 91.8959 201.547 91.8751 201.37C91.7813 201.036 91.6094 200.745 91.3646 200.5Z" fill="#EB905C"/>
<path d="M96.5623 202.521C96.4581 202.443 96.354 202.365 96.2498 202.281C96.0102 202.141 95.7446 202.073 95.4685 202.073C95.255 202.062 95.0519 202.109 94.8696 202.203C94.6769 202.266 94.5102 202.37 94.3696 202.521C94.2185 202.661 94.1144 202.828 94.0519 203.021C93.9529 203.208 93.906 203.406 93.9165 203.62C93.9373 203.755 93.9529 203.891 93.9738 204.031C94.0467 204.292 94.1769 204.521 94.3696 204.714C94.4738 204.792 94.5779 204.875 94.6821 204.953C94.9269 205.094 95.1873 205.161 95.4685 205.167C95.6821 205.172 95.88 205.13 96.0623 205.031C96.255 204.969 96.4217 204.865 96.5623 204.714C96.7133 204.573 96.8227 204.406 96.8852 204.214C96.979 204.031 97.0258 203.828 97.0154 203.62C96.9998 203.479 96.979 203.344 96.9633 203.208C96.8904 202.943 96.755 202.719 96.5623 202.521Z" fill="#EB905C"/>
<path d="M192.844 160.953C189.635 160.953 189.63 165.927 192.844 165.927C196.052 165.927 196.057 160.953 192.844 160.953Z" fill="#EB905C"/>
<path d="M193.875 162.885C193.765 162.719 193.604 162.578 193.406 162.526C193.349 162.516 193.297 162.5 193.239 162.484C192.927 162.406 192.552 162.479 192.328 162.724C192.213 162.859 192.104 162.995 192.073 163.172C192.068 163.193 192.062 163.219 192.057 163.24C192.047 163.313 192.041 163.385 192.031 163.458C192.026 163.573 192.047 163.677 192.099 163.776C192.166 163.927 192.281 164.089 192.437 164.167C192.614 164.255 192.791 164.344 192.989 164.323C193.073 164.313 193.156 164.302 193.239 164.292C193.364 164.26 193.469 164.203 193.557 164.12C193.63 164.083 193.687 164.026 193.729 163.953C193.807 163.865 193.864 163.76 193.896 163.635C193.916 163.589 193.932 163.542 193.953 163.49C193.989 163.385 193.989 163.281 193.969 163.177C193.963 163.073 193.932 162.979 193.875 162.885Z" fill="#EB905C"/>
<path d="M198.052 161.161C197.984 161.104 197.911 161.052 197.844 160.995C197.682 160.901 197.505 160.854 197.318 160.854C197.177 160.849 197.042 160.88 196.917 160.943C196.786 160.984 196.677 161.057 196.583 161.161C196.479 161.255 196.406 161.365 196.37 161.495C196.302 161.615 196.271 161.75 196.276 161.891C196.292 161.984 196.302 162.078 196.312 162.167C196.364 162.344 196.453 162.5 196.583 162.625C196.651 162.682 196.724 162.734 196.792 162.792C196.953 162.885 197.13 162.932 197.318 162.932C197.463 162.938 197.594 162.906 197.719 162.844C197.849 162.802 197.958 162.729 198.052 162.625C198.156 162.531 198.229 162.422 198.271 162.292C198.333 162.167 198.364 162.036 198.359 161.891C198.344 161.802 198.333 161.708 198.323 161.615C198.271 161.443 198.182 161.292 198.052 161.161Z" fill="#EB905C"/>
<path d="M196.328 167.516C196.24 167.453 196.156 167.385 196.068 167.318C195.87 167.203 195.656 167.146 195.427 167.146C195.25 167.141 195.088 167.172 194.932 167.255C194.776 167.307 194.641 167.396 194.526 167.516C194.401 167.635 194.312 167.771 194.26 167.927C194.182 168.078 194.141 168.245 194.151 168.417C194.167 168.531 194.182 168.646 194.193 168.755C194.255 168.974 194.365 169.161 194.526 169.318C194.609 169.385 194.693 169.453 194.781 169.516C194.979 169.63 195.198 169.693 195.427 169.693C195.599 169.698 195.766 169.661 195.917 169.583C196.073 169.531 196.213 169.443 196.328 169.318C196.453 169.203 196.542 169.068 196.594 168.911C196.672 168.755 196.708 168.594 196.703 168.417C196.687 168.307 196.672 168.193 196.656 168.078C196.594 167.865 196.484 167.677 196.328 167.516Z" fill="#EB905C"/>
<path d="M109.229 105.661C106.021 105.661 106.015 110.635 109.229 110.635C112.437 110.635 112.443 105.661 109.229 105.661Z" fill="#EB905C"/>
<path d="M109.229 107.151C108.974 107.151 108.703 107.26 108.521 107.443C108.427 107.531 108.354 107.641 108.318 107.766C108.255 107.885 108.224 108.01 108.229 108.151C108.239 108.406 108.328 108.677 108.521 108.854C108.719 109.036 108.958 109.151 109.229 109.151C109.489 109.151 109.755 109.036 109.937 108.854C110.036 108.766 110.104 108.656 110.146 108.536C110.208 108.417 110.234 108.286 110.229 108.151C110.219 107.891 110.135 107.625 109.937 107.443C109.745 107.266 109.5 107.151 109.229 107.151Z" fill="#EB905C"/>
<path d="M114.219 103.604C111.01 103.604 111.005 108.578 114.219 108.578C117.427 108.578 117.432 103.604 114.219 103.604Z" fill="#EB905C"/>
<path d="M115 105.635C114.922 105.5 114.812 105.391 114.677 105.313C114.651 105.297 114.63 105.281 114.609 105.271C114.38 105.13 114.057 105.13 113.833 105.271C113.807 105.281 113.786 105.297 113.765 105.313C113.661 105.37 113.573 105.443 113.51 105.542C113.453 105.599 113.417 105.667 113.396 105.74C113.338 105.849 113.312 105.964 113.318 106.089C113.328 106.167 113.338 106.25 113.349 106.328C113.38 106.401 113.411 106.474 113.443 106.542C113.495 106.651 113.573 106.734 113.672 106.797C113.729 106.854 113.797 106.891 113.87 106.911C113.979 106.969 114.094 106.995 114.219 106.99C114.302 106.979 114.38 106.969 114.458 106.958C114.531 106.927 114.604 106.896 114.677 106.865C114.781 106.813 114.864 106.734 114.927 106.635C114.984 106.578 115.026 106.51 115.047 106.438C115.104 106.328 115.13 106.214 115.125 106.089C115.114 106.01 115.099 105.927 115.088 105.849C115.062 105.776 115.031 105.708 115 105.635Z" fill="#EB905C"/>
<path d="M113.875 111.604C113.901 111.604 113.901 111.562 113.875 111.562C113.849 111.562 113.849 111.604 113.875 111.604Z" fill="#EB905C"/>
<path d="M114.474 111.068C114.422 111.026 114.375 110.99 114.323 110.953C114.214 110.885 114.089 110.854 113.953 110.854C113.854 110.849 113.76 110.87 113.672 110.917C113.583 110.943 113.505 110.995 113.437 111.068C113.365 111.135 113.312 111.208 113.286 111.302C113.24 111.391 113.219 111.484 113.224 111.583C113.229 111.646 113.24 111.714 113.25 111.776C113.281 111.901 113.344 112.01 113.437 112.099C113.484 112.141 113.536 112.177 113.583 112.214C113.698 112.281 113.823 112.318 113.953 112.318C114.057 112.318 114.151 112.297 114.24 112.25C114.328 112.224 114.406 112.172 114.474 112.099C114.547 112.036 114.594 111.958 114.625 111.865C114.672 111.776 114.693 111.682 114.687 111.583C114.677 111.521 114.672 111.453 114.661 111.391C114.625 111.266 114.562 111.156 114.474 111.068Z" fill="#EB905C"/>
<path d="M123.849 208.255C123.755 208.099 123.615 207.984 123.448 207.911C123.386 207.875 123.313 207.859 123.24 207.854C123.167 207.839 123.094 207.839 123.021 207.854C122.943 207.859 122.875 207.875 122.807 207.911C122.708 207.948 122.62 208.005 122.542 208.083C122.469 208.146 122.391 208.203 122.313 208.26C122.193 208.38 122.115 208.521 122.068 208.688C122.021 208.854 122.021 209.026 122.068 209.198C122.115 209.359 122.193 209.5 122.313 209.62C122.401 209.714 122.505 209.781 122.625 209.818C122.74 209.88 122.865 209.906 122.995 209.901C123.167 209.901 123.328 209.854 123.479 209.771C123.776 209.599 123.953 209.281 123.958 208.943C123.958 208.849 123.958 208.76 123.958 208.672C123.948 208.599 123.938 208.526 123.932 208.453C123.901 208.385 123.875 208.318 123.849 208.255Z" fill="#EB905C"/>
<path d="M125.443 204.437C125.359 204.37 125.271 204.302 125.188 204.234C124.99 204.12 124.771 204.062 124.542 204.062C124.365 204.057 124.203 204.094 124.052 204.172C123.891 204.224 123.755 204.312 123.641 204.437C123.516 204.552 123.427 204.688 123.375 204.844C123.297 204.995 123.26 205.161 123.266 205.333C123.281 205.448 123.297 205.563 123.313 205.672C123.375 205.891 123.484 206.078 123.641 206.234C123.724 206.302 123.813 206.37 123.901 206.432C124.099 206.552 124.313 206.609 124.542 206.609C124.719 206.615 124.88 206.578 125.036 206.5C125.193 206.448 125.328 206.359 125.443 206.234C125.568 206.12 125.656 205.984 125.708 205.823C125.786 205.672 125.823 205.51 125.818 205.333C125.802 205.224 125.786 205.109 125.771 204.995C125.714 204.781 125.604 204.594 125.443 204.437Z" fill="#EB905C"/>
<path d="M127.474 208.422C127.406 208.37 127.339 208.318 127.276 208.266C127.12 208.177 126.958 208.135 126.781 208.135C126.646 208.13 126.516 208.156 126.401 208.219C126.281 208.255 126.172 208.323 126.083 208.422C125.99 208.51 125.922 208.615 125.88 208.734C125.823 208.854 125.792 208.979 125.797 209.115C125.807 209.198 125.823 209.286 125.833 209.37C125.88 209.536 125.964 209.682 126.083 209.807C126.151 209.854 126.219 209.906 126.287 209.958C126.438 210.047 126.604 210.094 126.781 210.094C126.917 210.099 127.042 210.068 127.156 210.005C127.276 209.969 127.385 209.901 127.474 209.807C127.568 209.719 127.635 209.609 127.677 209.49C127.74 209.375 127.766 209.245 127.76 209.115C127.75 209.026 127.74 208.937 127.724 208.854C127.677 208.687 127.594 208.542 127.474 208.422Z" fill="#EB905C"/>
</svg>
