<svg width="294" height="294" viewBox="0 0 294 294" fill="none" xmlns="http://www.w3.org/2000/svg">
<g clip-path="url(#clip0_1_1187)">
<path fill-rule="evenodd" clip-rule="evenodd" d="M29.9096 66.5781H231.259C231.259 66.5781 277.566 246.068 136.165 247.87C-20.1216 249.859 26.9565 70.0156 29.9096 66.5781Z" fill="#F3A8C2"/>
<path fill-rule="evenodd" clip-rule="evenodd" d="M208.457 94.8438C182.191 64.8281 286.811 73.3906 294.045 148.641C300.003 210.703 171.92 227.87 202.243 210.068C337.686 130.547 238.597 129.281 208.457 94.8438Z" fill="#F3A8C2"/>
<mask id="mask0_1_1187" style="mask-type:luminance" maskUnits="userSpaceOnUse" x="29" y="47" width="204" height="38">
<path d="M29.6648 47H232.331V84.4531H29.6648V47Z" fill="white"/>
</mask>
<g mask="url(#mask0_1_1187)">
<path d="M231.29 65.5885C231.29 66.1927 231.128 66.8021 230.805 67.4063C230.483 68.0104 229.998 68.6094 229.352 69.2031C228.712 69.8021 227.91 70.3854 226.951 70.9688C225.993 71.5521 224.884 72.1198 223.618 72.6823C222.358 73.2448 220.946 73.7917 219.389 74.3281C217.837 74.8646 216.139 75.3802 214.305 75.8854C212.472 76.3906 210.509 76.8802 208.415 77.349C206.321 77.8177 204.108 78.2656 201.774 78.6979C199.441 79.125 196.998 79.5313 194.446 79.9167C191.894 80.3021 189.248 80.6667 186.503 81C183.759 81.3385 180.93 81.651 178.024 81.9375C175.113 82.224 172.134 82.4844 169.082 82.7135C166.035 82.9479 162.93 83.151 159.769 83.3281C156.613 83.5052 153.415 83.651 150.18 83.7708C146.941 83.8906 143.68 83.9792 140.394 84.0365C137.113 84.099 133.821 84.125 130.519 84.125C127.217 84.125 123.925 84.099 120.644 84.0365C117.358 83.9792 114.097 83.8906 110.858 83.7708C107.623 83.651 104.425 83.5052 101.269 83.3281C98.1075 83.151 95.0034 82.9479 91.9565 82.7135C88.9044 82.4844 85.9253 82.224 83.0138 81.9375C80.1075 81.651 77.2794 81.3385 74.5346 81C71.7898 80.6667 69.144 80.3021 66.5919 79.9167C64.0398 79.5313 61.5971 79.125 59.2638 78.6979C56.9305 78.2656 54.7169 77.8177 52.6232 77.349C50.5294 76.8802 48.5659 76.3906 46.7325 75.8854C44.8992 75.3802 43.2013 74.8646 41.6492 74.3281C40.0919 73.7917 38.6805 73.2448 37.42 72.6823C36.1544 72.1198 35.045 71.5521 34.0867 70.9688C33.1284 70.3854 32.3263 69.8021 31.6857 69.2031C31.0398 68.6094 30.5555 68.0104 30.2325 67.4063C29.9096 66.8021 29.7482 66.1927 29.7482 65.5885C29.7482 64.9792 29.9096 64.375 30.2325 63.7708C30.5555 63.1667 31.0398 62.5677 31.6857 61.9688C32.3263 61.375 33.1284 60.7865 34.0867 60.2083C35.045 59.625 36.1544 59.0521 37.42 58.4948C38.6805 57.9323 40.0919 57.3854 41.6492 56.849C43.2013 56.3125 44.8992 55.7917 46.7325 55.2865C48.5659 54.7813 50.5294 54.2969 52.6232 53.8281C54.7169 53.3594 56.9305 52.9063 59.2638 52.4792C61.5971 52.0469 64.0398 51.6406 66.5919 51.2552C69.144 50.8698 71.7898 50.5104 74.5346 50.1719C77.2794 49.8333 80.1075 49.526 83.0138 49.2396C85.9253 48.9531 88.9044 48.6927 91.9565 48.4583C95.0034 48.2292 98.1075 48.0208 101.269 47.849C104.425 47.6719 107.623 47.5208 110.858 47.4063C114.097 47.2865 117.358 47.1979 120.644 47.1354C123.925 47.0781 127.217 47.0469 130.519 47.0469C133.821 47.0469 137.113 47.0781 140.394 47.1354C143.68 47.1979 146.941 47.2865 150.18 47.4063C153.415 47.5208 156.613 47.6719 159.769 47.849C162.93 48.0208 166.035 48.2292 169.082 48.4583C172.134 48.6927 175.113 48.9531 178.024 49.2396C180.93 49.526 183.759 49.8333 186.503 50.1719C189.248 50.5104 191.894 50.8698 194.446 51.2552C196.998 51.6406 199.441 52.0469 201.774 52.4792C204.108 52.9063 206.321 53.3594 208.415 53.8281C210.509 54.2969 212.472 54.7813 214.305 55.2865C216.139 55.7917 217.837 56.3125 219.389 56.849C220.946 57.3854 222.358 57.9323 223.618 58.4948C224.884 59.0521 225.993 59.625 226.951 60.2083C227.91 60.7865 228.712 61.375 229.352 61.9688C229.998 62.5677 230.483 63.1667 230.805 63.7708C231.128 64.375 231.29 64.9792 231.29 65.5885Z" fill="#F6E7D8"/>
</g>
<path fill-rule="evenodd" clip-rule="evenodd" d="M127.472 194.745C127.285 193.813 128.503 192.302 128.811 191.391C130.852 185.255 137.587 179.729 143.399 177.307C145.936 176.255 150.045 174.964 152.055 177.646C153.837 180.031 149.389 183.818 147.811 184.943C143.108 188.302 136.446 188.125 131.863 191.563C130.175 192.828 129.191 194.745 127.957 195.974" fill="#85860B"/>
<path fill-rule="evenodd" clip-rule="evenodd" d="M138.123 167.745C137.983 166.568 143.014 163.557 144.196 162.781C149.16 159.536 154.014 156.151 160.134 155.807C162.222 155.693 165.561 155.469 166.238 158.172C166.925 160.927 164.93 163.307 162.748 164.651C161.066 165.688 159.337 166.995 157.394 167.51C153.654 168.51 149.389 167.005 145.566 167.385C143.665 167.578 141.576 168.427 139.837 169.005C139.108 169.25 138.207 170.375 137.597 170.375C137.483 170.375 138.649 168.328 138.847 168.135" fill="#85860B"/>
<path fill-rule="evenodd" clip-rule="evenodd" d="M160.415 145.042C159.477 143.198 164.608 140.755 165.863 139.995C171.196 136.76 177.769 134.396 184.045 134.396C187.092 134.396 190.686 135.141 191.014 138.75C191.295 141.88 189.373 143.557 186.779 144.854C180.717 147.885 175.227 143.901 169.222 143.234C167.144 143 164.05 143.453 162.503 144.229C161.889 144.536 161.404 144.776 160.759 145.104C160.488 145.24 159.816 145.599 159.889 145.599" fill="#85860B"/>
<path fill-rule="evenodd" clip-rule="evenodd" d="M191.556 125.557C191.248 123.651 195.988 122.818 197.238 122.443C199.024 121.906 200.889 121.641 202.717 121.323C203.931 121.109 205.097 120.948 206.332 120.948C210.066 120.948 219.915 122.036 217.785 128.417C216.722 131.604 211.545 132.896 208.571 132.151C207.113 131.792 205.873 130.755 204.462 130.286C199.274 128.557 195.259 126.797 190.144 126.797" fill="#85860B"/>
<path fill-rule="evenodd" clip-rule="evenodd" d="M136.607 165.865C136.274 165.943 135.847 164.974 135.732 164.771C134.857 163.313 134.186 161.557 133.738 159.917C132.331 154.766 132.696 149.073 134.113 143.979C134.91 141.109 136.321 137.865 139.837 138.255C141.446 138.432 141.759 141.917 141.956 143.109C142.873 148.609 140.18 155.031 138.467 160.167C137.936 161.766 137.665 163.401 137.222 165.021C137.05 165.656 136.977 167.854 136.977 167.635" fill="#85860B"/>
<path fill-rule="evenodd" clip-rule="evenodd" d="M156.785 144.099C156.613 142.724 155.623 140.849 155.279 139.125C154.154 133.495 155.253 126.109 157.274 120.948C158.092 118.849 161.92 113.344 164.993 115.094C167.373 116.458 167.175 120.484 166.858 122.693C165.962 128.953 163.613 134.083 160.009 139.125C158.915 140.651 157.493 142.214 157.019 144.104C156.894 144.63 156.649 146.99 156.649 146.594" fill="#85860B"/>
<path fill-rule="evenodd" clip-rule="evenodd" d="M184.707 126.88C183.832 125.25 184.045 123 184.045 121.073C184.045 116 185.055 111.042 187.154 106.38C188.16 104.146 191.295 101.182 193.628 103.516C195.29 105.177 194.654 108.229 194.248 110.24C193.332 114.839 191.144 118.766 188.649 122.693C187.42 124.625 184.915 126.557 184.915 129.042" fill="#85860B"/>
<path fill-rule="evenodd" clip-rule="evenodd" d="M117.42 183.182C116.404 181.5 113.154 179.854 111.467 178.771C104.332 174.188 99.1128 172.01 90.4669 171.724C87.2065 171.615 79.7586 171.792 78.9617 176.182C77.9565 181.714 82.144 181.604 85.7222 182.797C88.7742 183.813 93.0138 182.948 95.9357 182.219C99.7013 181.276 103.722 181.068 107.722 181.068C110.493 181.068 112.832 181.323 115.201 182.505C115.686 182.75 117.212 183.453 117.212 183.802" fill="#85860B"/>
<path fill-rule="evenodd" clip-rule="evenodd" d="M99.7118 168.698C97.0086 164.661 90.5868 163.479 86.5868 161.083C84.3107 159.719 82.0295 158.359 79.5347 157.344C76.8055 156.229 74.1441 155.339 71.1961 155.042C67.1336 154.635 54.5295 156.208 60.5555 163.24C63.4566 166.62 71.1441 165.885 74.9357 165.682C83.592 165.229 90.4774 164.823 98.2326 168.703" fill="#85860B"/>
<path fill-rule="evenodd" clip-rule="evenodd" d="M72.2743 142.526C71.9982 143.125 70.5243 142.214 70.1909 142.099C67.6441 141.255 64.6649 140.479 61.993 139.943C54.6805 138.479 47.5659 129.792 46.1753 122.833C45.6128 120.031 45.4045 117.13 47.467 115.068C49.3941 113.146 52.9514 116.323 54.5139 117.37C59.9566 120.995 60.5607 129.885 65.0139 134.339C65.8264 135.146 71.0555 141.536 71.0555 139.943" fill="#85860B"/>
<path fill-rule="evenodd" clip-rule="evenodd" d="M80.0086 150.714C79.9773 150.823 78.6961 148.49 78.5346 148.141C77.5294 146 76.9981 143.729 76.6596 141.38C75.9669 136.495 76.4617 129.323 79.9669 125.422C81.5242 123.693 84.6231 122.021 87.0138 122.974C89.8367 124.104 91.8523 129.089 90.6127 131.891C88.8627 135.823 84.9357 138.854 83.1336 142.818C82.269 144.714 81.8627 146.969 81.4096 149.005C81.2586 149.682 81.1179 150.469 81.1179 151.161C81.1179 151.286 81.1179 152.214 81.1179 151.88" fill="#85860B"/>
<path fill-rule="evenodd" clip-rule="evenodd" d="M105.029 168.104C104.769 169.307 99.7951 162.844 99.2378 161.943C96.6753 157.807 93.9253 144.417 101.972 143.682C113.181 142.661 105.477 156.958 105.139 161.802C104.998 163.714 104.696 165.474 104.988 167.411C105.087 168.031 105.858 170.573 105.858 170.427" fill="#85860B"/>
<path fill-rule="evenodd" clip-rule="evenodd" d="M118.222 181.063C118.233 181.568 116.269 178.516 116.061 178.193C115.066 176.594 113.962 174.964 113.045 173.302C112.326 172.005 111.858 170.557 111.467 169.135C110.441 165.427 108.805 153.234 114.91 151.88C117.123 151.391 118.347 154.573 119.087 156.047C121.712 161.302 118.222 167.719 118.222 173.302C118.222 175.318 118.264 177.109 118.795 179.057C118.894 179.417 119.373 182.354 119.373 181.214" fill="#85860B"/>
<path fill-rule="evenodd" clip-rule="evenodd" d="M69.1805 123.536C67.4618 123.724 65.217 121.396 64.1493 120.245C59.9097 115.651 57.5711 108.323 56.8159 102.271C56.4357 99.2031 56.9722 94.2136 60.842 93.7865C63.8472 93.4531 66.5034 96.1563 67.1701 98.8177C68.6232 104.635 67.3003 110.776 68.0347 116.651C68.1545 117.625 69.8472 123.984 70.4774 123.984" fill="#85860B"/>
<path fill-rule="evenodd" clip-rule="evenodd" d="M122.816 151.042C121.774 150.849 120.305 149.182 119.227 148.286C114.399 144.26 112.894 136.995 113.764 130.885C114.128 128.328 114.154 123.568 117.071 122.115C119.91 120.698 121.462 123.87 121.962 125.854C122.748 128.99 122.102 133.911 121.097 136.922C120.852 137.661 120.55 140.573 120.956 141.38C121.446 142.359 124.264 148.094 124.264 148.573" fill="#85860B"/>
<path fill-rule="evenodd" clip-rule="evenodd" d="M134.592 130.865C134.045 128.964 131.462 127.37 130.592 125.276C128.774 120.927 129.873 114.146 131.019 109.745C131.649 107.323 133.363 101.922 137.061 102.844C138.957 103.318 139.675 106.099 139.79 107.734C140.175 113.078 136.087 117.672 135.477 122.833C135.3 124.38 134.717 130.453 135.623 130.453" fill="#85860B"/>
<path fill-rule="evenodd" clip-rule="evenodd" d="M146.727 117.182C144.649 110.859 145.191 99.7083 149.571 94.0729C151.821 91.1771 159.186 86.7188 159.925 93.3542C160.222 96.0677 158.123 98.7656 156.472 100.688C153.134 104.583 148.42 110.245 148.42 115.641" fill="#85860B"/>
<path fill-rule="evenodd" clip-rule="evenodd" d="M137.503 133.557C136.832 129.266 146.707 129.88 148.993 129.88C150.076 129.88 151.394 128.396 152.16 129.161C153.378 130.38 151.759 133.703 150.722 134.479C146.571 137.594 141.951 136.724 137.061 137.214C136.529 137.266 133.55 138.156 133.175 137.786C132.373 136.984 134.243 135.078 134.613 134.339" fill="#85860B"/>
<path fill-rule="evenodd" clip-rule="evenodd" d="M123.42 223.031C121.347 217.135 124.014 202.823 125.045 196.786C130.17 166.906 147.821 145.797 173.576 131.083C181.451 126.578 190.597 122.318 197.41 116.266C199.738 114.198 202.415 112.51 204.712 110.469C206.201 109.146 208.363 105.745 208.363 105.745C208.363 105.745 208.175 108.193 207.93 109.396C207.477 111.688 206.389 113.781 205.358 115.833C202.691 121.172 196.498 124.234 191.399 126.786C170.805 137.083 152.519 151.766 138.144 169.729C131.42 178.135 129.29 191.401 126.764 201.51C125.868 205.099 125.561 208.797 124.832 212.458C124.753 212.844 124.238 216.323 123.753 216.323C122.68 216.323 123.639 214.177 123.54 213.104C123.274 210.172 123.035 207.161 122.253 204.302C119.858 195.51 118.727 185.599 112.378 178.536C106.628 172.151 98.6128 170.948 91.9773 166.078C81.3419 158.286 71.9305 148.354 68.9982 135.161C67.5711 128.724 67.3159 123.099 68.9982 116.693C69.1648 116.063 70.0815 111.542 71.3628 111.542C71.6753 111.542 72.7742 117.682 72.8628 117.984C73.7117 120.813 73.9565 123.464 74.368 126.359C75.7117 135.786 77.1857 147.167 83.3888 154.917C89.5034 162.563 103.618 163.333 108.509 168.229C109.993 169.708 112.863 170.646 114.524 172.307C116.712 174.495 117.389 176.245 119.248 178.104C126.988 185.844 125.509 200.688 123.54 210.526" fill="#9A9B42"/>
<path fill-rule="evenodd" clip-rule="evenodd" d="M126.566 208.24C127.055 209.193 125.941 206.182 125.769 205.125C125.363 202.552 125.43 202.656 125.264 200.047C124.863 193.615 124.384 187.172 123.743 180.745C122.608 169.453 120.8 158.391 123.233 147.057C125.035 138.646 130.404 130.974 135.592 124.37C138.722 120.391 143.529 116.797 147.274 113.365C147.456 113.203 150.555 110.38 150.831 110.656C152.545 112.375 150.186 119.693 148.967 121.323C147.061 123.87 144.951 126.859 142.706 129.109C138.425 133.391 132.29 136.901 129.498 142.484C126.3 148.885 124.222 166.286 125.097 173.297C126.029 180.75 127.701 189.318 125.602 196.661" fill="#9A9B42"/>
<path fill-rule="evenodd" clip-rule="evenodd" d="M253.779 178.995C253.66 179.026 253.727 179.01 253.555 179.01Z" fill="#85860B"/>
<path fill-rule="evenodd" clip-rule="evenodd" d="M76.2168 155.135C75.8523 154.62 61.8523 159.734 58.9721 155.026C57.2481 152.203 65.4825 151.245 67.0762 151.432C69.2012 151.677 71.196 152.667 73.1908 153.38C73.8887 153.635 75.1387 154.453 75.1387 154.453L71.2429 152.313C68.8314 150.984 55.946 145.286 60.3835 141.307C62.9825 138.979 70.2168 146.479 71.7325 148.349C72.0814 148.781 75.4356 152.922 75.0866 153.016C74.9252 153.057 74.4252 152.021 74.2898 151.771C73.1752 149.74 70.3471 140.26 74.2064 139.245C79.1023 137.948 78.67 150.464 77.8002 152.698C77.5814 153.245 76.946 154.24 76.946 154.24C76.946 154.24 77.6648 153.422 78.0398 153.026C79.7846 151.188 81.9043 142.401 86.045 146.156C87.0137 147.036 86.9096 148.87 86.545 149.859C84.9512 154.177 80.795 155.505 76.6023 155.255C76.3679 155.245 76.0346 155.13 75.9408 155.297" fill="#C7235C"/>
<path fill-rule="evenodd" clip-rule="evenodd" d="M127.279 192.865C127.279 192.234 112.92 188.25 113.316 182.74C113.555 179.443 120.811 183.458 122.003 184.536C123.587 185.974 124.634 187.938 125.837 189.682C126.259 190.292 126.8 191.682 126.8 191.682L124.878 187.677C123.691 185.193 116.524 173.063 122.451 172.406C125.915 172.026 127.436 182.333 127.576 184.74C127.613 185.292 127.93 190.615 127.592 190.484C127.436 190.427 127.634 189.292 127.665 189.01C127.941 186.708 131.16 177.354 134.889 178.771C139.623 180.568 131.988 190.495 129.983 191.802C129.488 192.125 128.394 192.563 128.394 192.563C128.394 192.563 129.451 192.313 129.988 192.214C132.477 191.734 139.311 185.818 140.493 191.286C140.774 192.563 139.618 193.995 138.748 194.583C134.936 197.167 130.785 195.828 127.519 193.188C127.337 193.042 127.134 192.755 126.962 192.839" fill="#C7235C"/>
<path fill-rule="evenodd" clip-rule="evenodd" d="M174.488 132.943C174.509 132.745 168.998 128.948 167.925 127.443C166.941 126.047 164.691 118.922 167.035 117.906C171.227 116.094 172.644 124.854 173.18 127.026C173.514 128.365 173.394 131.182 173.394 131.182C173.394 131.182 173.91 128.036 174.014 126.448C174.123 124.807 175.118 107.125 179.55 110.75C182.321 113.021 179.899 123.359 178.066 125.781C177.18 126.958 176.467 128.359 175.686 129.594C175.509 129.87 175.154 130.422 175.154 130.422C175.154 130.422 175.623 129.615 175.925 129.271C177.014 128.036 183.498 123.12 184.337 126.505C185.665 131.896 173.753 131.906 173.8 131.828" fill="#C7235C"/>
<path fill-rule="evenodd" clip-rule="evenodd" d="M126.196 148.089C126.212 147.896 120.706 144.099 119.634 142.594C118.644 141.198 116.399 134.073 118.743 133.057C122.936 131.245 124.352 140 124.889 142.172C125.217 143.51 125.102 146.333 125.102 146.333C125.102 146.333 125.613 143.182 125.722 141.594C125.826 139.953 126.821 122.276 131.259 125.901C134.029 128.172 131.608 138.51 129.774 140.932C128.889 142.104 128.175 143.51 127.389 144.745C127.217 145.021 126.863 145.573 126.863 145.573C126.863 145.573 127.331 144.766 127.634 144.422C128.722 143.182 135.201 138.271 136.04 141.656C137.373 147.047 125.462 147.052 125.509 146.974" fill="#C7235C"/>
<path fill-rule="evenodd" clip-rule="evenodd" d="M72.0346 117.083C72.0502 116.891 66.545 113.094 65.4721 111.583C64.4877 110.193 62.2377 103.068 64.5815 102.052C68.7742 100.24 70.1908 108.995 70.7273 111.167C71.0606 112.505 70.9408 115.323 70.9408 115.323C70.9408 115.323 71.4513 112.177 71.5606 110.589C71.67 108.948 72.6596 91.2656 77.0971 94.8958C79.8679 97.1615 77.446 107.5 75.6127 109.927C74.7273 111.099 74.0138 112.505 73.2273 113.734C73.0554 114.01 72.7013 114.563 72.7013 114.563C72.7013 114.563 73.17 113.755 73.4721 113.411C74.5606 112.177 81.045 107.266 81.8783 110.651C83.2117 116.042 71.3002 116.047 71.3471 115.969" fill="#C7235C"/>
</g>
<defs>
<clipPath id="clip0_1_1187">
<rect width="294" height="294" fill="white"/>
</clipPath>
</defs>
</svg>
