<svg width="294" height="294" viewBox="0 0 294 294" fill="none" xmlns="http://www.w3.org/2000/svg">
<mask id="mask0_1_1191" style="mask-type:luminance" maskUnits="userSpaceOnUse" x="7" y="58" width="287" height="179">
<path d="M7 58H293.859V236.917H7V58Z" fill="white"/>
</mask>
<g mask="url(#mask0_1_1191)">
<path fill-rule="evenodd" clip-rule="evenodd" d="M248.724 58.0365C249.646 58.0208 251.578 58.0677 253.005 58.1354C254.432 58.224 256.328 58.4063 257.203 58.5573C258.073 58.7083 259.25 58.9792 259.807 59.1615C260.359 59.3333 261.297 59.599 261.906 59.7552C262.51 59.9063 263.484 60.1406 264.089 60.276C264.693 60.4063 265.781 60.7448 266.521 61C267.26 61.2656 268.167 61.6198 268.536 61.7865C268.906 61.9375 269.693 62.3281 270.302 62.6302C270.906 62.9167 271.729 63.3542 272.146 63.5885C272.568 63.8229 273.224 64.1927 273.625 64.4115C274.01 64.6302 274.328 64.849 274.328 64.9323C274.328 65 274.464 65.0885 274.615 65.1354C274.781 65.1719 275.339 65.474 275.844 65.7917C276.344 66.1302 276.849 66.4479 276.932 66.5313C277.016 66.6146 277.286 66.7708 277.521 66.901C277.755 67.0208 278.156 67.2917 278.443 67.5104C278.729 67.7292 279.167 68.0833 279.417 68.2813C279.672 68.5 280.896 69.6771 282.141 70.9063C283.38 72.1198 284.406 73.2135 284.406 73.2969C284.406 73.3958 284.542 73.5677 284.724 73.6823C284.891 73.7865 285.161 74.1563 285.328 74.474C285.495 74.7917 285.766 75.1615 285.932 75.2813C286.12 75.3802 286.25 75.5677 286.25 75.651C286.25 75.7552 286.573 76.2917 286.974 76.8802C287.375 77.4531 288.099 78.7656 288.589 79.776C289.073 80.8021 289.661 81.9792 289.88 82.4323C290.099 82.8698 290.281 83.3229 290.281 83.4427C290.281 83.5417 290.417 83.9115 290.583 84.2344C290.771 84.5521 291.005 85.2396 291.12 85.7448C291.24 86.25 291.443 86.8229 291.557 87.0104C291.661 87.1927 291.859 87.7969 291.979 88.3542C292.094 88.9115 292.245 89.4479 292.313 89.5313C292.38 89.6354 292.568 90.4896 292.719 91.4688C292.885 92.4427 293.068 93.3698 293.156 93.5365C293.24 93.6875 293.422 94.9844 293.573 96.3958C293.74 97.9948 293.859 100.469 293.859 102.99C293.859 105.854 293.776 107.755 293.557 109.469C293.406 110.813 293.203 112.026 293.135 112.161C293.068 112.297 292.885 113.255 292.719 114.266C292.568 115.271 292.396 116.198 292.333 116.281C292.266 116.365 292.094 116.99 291.927 117.63C291.776 118.286 291.49 119.26 291.307 119.818C291.104 120.37 290.839 121.063 290.703 121.328C290.568 121.615 290.182 122.474 289.844 123.266C289.51 124.057 288.87 125.417 288.438 126.292C288 127.167 287.396 128.344 287.094 128.901C286.771 129.458 286.354 130.214 286.151 130.583C285.932 130.953 285.578 131.625 285.38 132.063C285.161 132.5 284.943 132.87 284.859 132.854C284.792 132.854 284.74 132.938 284.74 133.021C284.74 133.109 284.24 134.031 283.599 135.057C282.979 136.083 282.323 137.161 282.141 137.464C281.953 137.786 281.469 138.505 281.047 139.078C280.625 139.667 280.156 140.276 279.99 140.443C279.839 140.63 279.703 140.813 279.703 140.896C279.688 140.964 279.266 141.552 278.745 142.193C278.224 142.833 277.521 143.672 277.203 144.026C276.865 144.396 276.359 144.917 276.078 145.203C275.807 145.49 275.083 146.198 274.479 146.771C273.896 147.339 273.307 147.813 273.188 147.828C273.089 147.828 272.953 147.927 272.901 148.047C272.87 148.146 272.432 148.521 271.964 148.839C271.49 149.156 270.99 149.51 270.823 149.594C270.667 149.677 270.5 149.865 270.417 149.984C270.349 150.083 270.198 150.182 270.083 150.182C269.979 150.203 269.542 150.453 269.125 150.771C268.703 151.094 268.266 151.344 268.151 151.359C268.052 151.359 267.917 151.479 267.865 151.615C267.813 151.75 267.698 151.865 267.615 151.865C267.531 151.865 267.109 152.083 266.688 152.37C266.271 152.656 265.865 152.875 265.781 152.875C265.698 152.875 265.516 152.979 265.396 153.094C265.281 153.229 264.875 153.5 264.505 153.698C264.135 153.885 263.682 154.156 263.5 154.271C263.313 154.375 262.844 154.677 262.458 154.943C262.057 155.198 261.667 155.401 261.583 155.401C261.5 155.401 261.318 155.5 261.198 155.62C261.063 155.719 260.292 156.156 259.469 156.578C258.63 157 257.943 157.385 257.906 157.469C257.891 157.536 257.771 157.589 257.656 157.589C257.552 157.589 256.516 158.057 255.354 158.615C254.198 159.167 253.141 159.708 253.005 159.792C252.87 159.875 252.484 160.042 252.167 160.193C251.844 160.328 251.458 160.516 251.323 160.599C251.193 160.682 250.432 161.068 249.646 161.474C248.854 161.875 248.099 162.297 247.969 162.417C247.833 162.531 247.448 162.771 247.125 162.938C246.807 163.104 246.188 163.458 245.734 163.693C245.297 163.948 244.589 164.349 244.135 164.583C243.703 164.823 243.13 165.141 242.844 165.292C242.557 165.458 242.292 165.677 242.208 165.797C242.141 165.896 241.99 166 241.87 166C241.771 166 241.333 166.266 240.911 166.589C240.495 166.906 239.938 167.38 239.656 167.615C239.37 167.833 239.068 168.083 238.984 168.167C238.901 168.234 238.63 168.385 238.396 168.521C238.161 168.641 237.521 169.094 236.969 169.531C236.411 169.969 235.505 170.661 234.953 171.078C234.396 171.5 233.776 172.036 233.573 172.24C233.375 172.458 232.802 173.25 232.318 174.005C231.828 174.75 231.073 176.078 230.635 176.953C230.182 177.828 229.427 179.474 228.943 180.635C228.438 181.797 227.833 183.411 227.578 184.255C227.313 185.094 226.974 186.073 226.792 186.443C226.625 186.813 226.474 187.214 226.474 187.333C226.474 187.432 226.37 187.734 226.255 187.974C226.151 188.208 225.667 188.646 225.214 188.932C224.625 189.302 224.188 189.438 223.734 189.417C223.349 189.401 222.896 189.219 222.51 188.932C222.193 188.661 221.771 188.141 221.583 187.755C221.417 187.349 221.266 186.927 221.266 186.828C221.266 186.708 221.151 186.24 220.714 184.927L220.443 185.448C220.292 185.734 219.958 186.375 219.672 186.859C219.385 187.349 219.068 187.938 218.932 188.193C218.797 188.427 218.193 189.385 217.589 190.313C216.984 191.234 216.448 192.078 216.411 192.161C216.38 192.245 215.958 192.818 215.49 193.422C215.036 194.026 214.266 194.969 213.797 195.526C213.323 196.083 212.635 196.87 212.266 197.292C211.911 197.698 210.891 198.755 210 199.646C209.109 200.521 208.052 201.547 207.646 201.917C207.245 202.292 206.135 203.214 205.182 203.99C204.24 204.745 203.385 205.37 203.297 205.37C203.214 205.37 203.13 205.453 203.13 205.536C203.13 205.62 202.964 205.771 202.745 205.875C202.542 205.958 201.922 206.375 201.37 206.781C200.813 207.203 200.313 207.536 200.224 207.536C200.161 207.557 199.875 207.724 199.573 207.943C199.271 208.146 198.75 208.464 198.396 208.651C198.042 208.833 196.802 209.474 195.609 210.063C194.432 210.651 193.089 211.307 192.635 211.526C192.167 211.745 191.714 211.927 191.63 211.927C191.547 211.927 191.073 212.13 190.62 212.349C190.151 212.583 189.682 212.771 189.563 212.771C189.464 212.771 189.042 212.922 188.641 213.109C188.255 213.276 187.146 213.661 186.172 213.948C185.198 214.234 183.953 214.62 183.401 214.792C182.849 214.958 181.906 215.193 181.302 215.313C180.698 215.411 180.125 215.563 180.042 215.646C179.958 215.714 179.203 215.901 176.854 216.339L177.052 216.792C177.172 217.026 177.339 217.984 177.458 218.911C177.609 220.193 177.609 221.047 177.458 222.531C177.339 223.589 177.188 224.734 177.104 225.052C177.036 225.37 176.833 226.094 176.667 226.651C176.516 227.208 176.182 227.927 175.943 228.266C175.708 228.604 175.172 229.156 174.75 229.479C174.214 229.896 173.693 230.135 172.99 230.266C172.438 230.37 171.865 230.521 171.729 230.604C171.594 230.672 170.807 230.875 169.969 231.026C169.125 231.193 168.37 231.396 168.286 231.464C168.203 231.531 167.547 231.682 166.859 231.781C166.172 231.885 165.146 232.068 164.594 232.203C164.042 232.339 163.016 232.521 162.328 232.625C161.635 232.724 160.495 232.927 159.807 233.063C159.12 233.198 157.12 233.417 155.359 233.547C153.594 233.682 150.74 233.901 148.979 234.052C147.214 234.188 145.146 234.375 144.359 234.474C143.568 234.557 142.292 234.708 141.505 234.813C140.714 234.896 138.719 235.099 137.052 235.229C135.391 235.38 132.943 235.568 131.599 235.667C130.255 235.771 127.615 235.953 125.719 236.089C123.823 236.224 121 236.443 119.422 236.578C117.625 236.745 114.151 236.849 110.021 236.865C105.432 236.896 102.682 236.828 100.87 236.661C99.3073 236.51 96.6667 236.443 94.2344 236.458C92.0156 236.474 89.75 236.427 89.1979 236.323C88.6406 236.24 87.349 236.089 86.3438 235.974C85.3333 235.87 84.1927 235.688 83.8229 235.568C83.4531 235.448 82.4792 235.266 81.6406 235.146C80.8021 235.047 79.526 234.813 78.7865 234.625C78.0469 234.443 77.2083 234.24 76.9375 234.156C76.6719 234.073 76.0469 233.854 75.5938 233.682C75.125 233.516 74.3854 233.026 73.9479 232.625C73.4948 232.203 72.875 231.531 72.5729 231.109C72.2708 230.688 71.8021 229.813 71.5469 229.172C71.1302 228.115 71.0938 227.776 71.0781 225.724C71.0625 223.724 71.1094 223.271 71.5156 221.938C71.7656 221.099 72.0833 220.208 72.2188 219.922C72.3698 219.635 72.4896 219.161 72.4896 218.88C72.4896 218.391 72.4219 218.307 71.9323 218.224C71.651 218.172 71.0625 218.073 70.6406 217.969C70.224 217.885 69.1615 217.651 68.2917 217.464C67.4167 217.297 66.1771 217.026 65.5208 216.911C64.8646 216.776 64.1615 216.589 63.9271 216.505C63.6875 216.406 62.901 216.203 62.1615 216.052C61.4219 215.885 60.75 215.698 60.651 215.63C60.5469 215.563 59.8802 215.359 59.1406 215.208C58.401 215.042 57.7604 214.859 57.7135 214.792C57.6615 214.74 57.1094 214.536 56.4531 214.37C55.7969 214.203 55.2448 214.016 55.1927 213.948C55.1406 213.896 54.7708 213.745 54.3542 213.63C53.9323 213.51 53.276 213.26 52.875 213.089C52.4896 212.922 52.1198 212.771 52.0365 212.771C51.9688 212.771 51.5313 212.583 51.0781 212.365C50.6094 212.146 49.7188 211.745 49.0625 211.458C48.4063 211.172 47.099 210.531 46.125 210.047C45.151 209.557 44.1094 208.969 43.8073 208.766C43.5208 208.563 43.2344 208.396 43.1875 208.396C43.1354 208.396 42.2448 207.823 41.2031 207.099C40.1823 206.396 39.0573 205.62 38.7344 205.385C38.4167 205.151 38.0313 204.828 37.8646 204.693C37.6927 204.563 37.3438 204.255 37.0417 204.021C36.7552 203.786 35.4635 202.542 34.151 201.229C32.8438 199.932 31.4635 198.536 31.1146 198.115C30.7448 197.714 30.3594 197.26 30.2708 197.109C30.1719 196.953 29.7708 196.401 29.3646 195.88C28.9792 195.359 28.6615 194.901 28.6615 194.854C28.6615 194.802 28.4271 194.448 28.1563 194.063C27.8698 193.656 27.651 193.24 27.651 193.135C27.651 193.021 27.5885 192.917 27.4844 192.917C27.3854 192.917 27.1823 192.63 27 192.297C26.8281 191.943 26.4635 191.234 26.1771 190.729C25.8906 190.224 25.1875 188.865 24.6302 187.703C24.0625 186.542 23.4219 185.26 23.2188 184.844C23 184.422 22.7656 183.833 22.7188 183.547C22.6667 183.245 22.5469 182.99 22.4479 182.99C22.349 182.99 22.1979 182.703 22.0938 182.37C21.9948 182.016 21.724 181.328 21.5052 180.854C21.2917 180.365 21.1042 179.865 21.1042 179.76C21.1042 179.646 20.9896 179.323 20.8333 179.036C20.6823 178.75 20.4479 178.161 20.3177 177.693C20.1823 177.24 19.9948 176.766 19.9271 176.682C19.8594 176.599 19.7083 176.177 19.5938 175.755C19.4948 175.339 19.2917 174.781 19.1719 174.495C19.0417 174.208 18.7865 173.417 18.5833 172.729C18.3854 172.036 18.0312 170.828 17.7969 170.036C17.5625 169.245 17.2083 167.932 17.0052 167.094C16.7865 166.25 16.5729 165.458 16.5208 165.328C16.4531 165.193 16.2865 164.536 16.151 163.896C16.0156 163.255 15.7969 162.266 15.6615 161.708C15.5312 161.151 15.2604 159.974 15.0573 159.099C14.8594 158.224 14.5885 156.865 14.474 156.073C14.3385 155.281 14.151 154.271 14.0521 153.802C13.9688 153.349 13.7656 152.203 13.6302 151.276C13.5 150.354 13.2135 148.417 12.9792 146.99C12.7604 145.557 12.526 144.26 12.474 144.125C12.4219 143.995 12.224 142.849 12.0365 141.604C11.8542 140.359 11.5156 138.12 11.2969 136.641C11.0625 135.161 10.7917 133.495 10.6927 132.938C10.5938 132.385 10.4062 131.052 10.276 129.995C10.1406 128.932 9.92187 127.302 9.78646 126.375C9.65104 125.453 9.48437 123.854 9.41667 122.844C9.36458 121.833 9.25 120.875 9.18229 120.74C9.11458 120.604 8.93229 118.552 8.78125 116.198C8.63021 113.844 8.42708 111.536 8.34375 111.068C8.26042 110.615 8.10938 108.625 8.00521 106.693C7.90625 104.76 7.78646 102.25 7.73958 101.141C7.6875 100.031 7.58854 98.9688 7.50521 98.7865C7.41667 98.599 7.26563 96.599 7.18229 94.3281C7.08333 92.0573 7 89.1094 7 87.7656C7 86.4219 7.08333 83.8958 7.18229 82.1302C7.26563 80.3646 7.41667 78.7656 7.52083 78.5625C7.60417 78.3438 7.67187 77.3698 7.6875 76.375C7.6875 75.3646 7.77083 74.2552 7.85417 73.8854C7.97396 73.4479 8.27604 72.9948 8.72917 72.5729C9.11458 72.2188 9.58333 71.8854 9.77083 71.8333C9.95313 71.7813 10.1875 71.6458 10.2917 71.5469C10.375 71.4479 10.7917 71.2604 11.2135 71.125C11.6146 71.0104 12.1719 70.8073 12.4583 70.6875C12.7396 70.5729 13.4479 70.3854 14.0521 70.2865C14.6562 70.1667 15.3594 69.9844 15.6458 69.8646C15.9323 69.7292 16.6875 69.5469 17.3281 69.4271C17.9635 69.3073 18.5677 69.1563 18.6719 69.0885C18.7708 69.0052 19.526 68.8229 20.349 68.651C21.1719 68.5 21.9271 68.2969 22.026 68.2344C22.1302 68.1667 22.9844 67.9635 23.9583 67.8125C24.9323 67.6615 25.875 67.474 26.0573 67.3906C26.2448 67.3073 27.5208 67.0885 28.9115 66.901C30.2917 66.7188 32.4896 66.3802 33.7813 66.1615C35.0781 65.9583 36.25 65.7396 36.3854 65.6771C36.5208 65.625 37.7604 65.4063 39.1563 65.2188C40.5313 65.0208 42.6146 64.75 43.776 64.6146C44.9323 64.4792 46.2917 64.2969 46.7969 64.2135C47.3021 64.1094 49.1979 63.9271 50.9948 63.7917C52.7917 63.6563 54.8385 63.4531 55.526 63.3698C56.2188 63.2865 58.2344 63.0833 59.9792 62.9479C61.724 62.7969 63.4688 62.6146 63.8385 62.526C64.2083 62.4271 66.1406 62.2448 68.125 62.1094C70.1042 61.974 72.151 61.7865 72.6563 61.6875C73.1615 61.5885 75.2083 61.349 77.1927 61.1667C79.1719 60.9792 81.8906 60.7604 83.2344 60.6771C84.5781 60.5938 87.2135 60.4427 89.1146 60.3438C91.0104 60.2396 92.9271 60.0885 93.3958 60.0052C93.849 59.9063 96.8021 59.7552 99.9427 59.6667C103.083 59.5677 108.156 59.4167 111.193 59.3333C114.234 59.2656 116.854 59.1458 116.99 59.099C117.12 59.0469 124.193 58.9635 132.688 58.9271C141.188 58.8802 150.708 58.776 153.849 58.6771C156.984 58.5729 161.031 58.4427 162.828 58.375C164.625 58.3073 172.87 58.2552 181.135 58.2552C190.922 58.2552 197.625 58.3229 200.359 58.4583C202.661 58.5729 206.104 58.776 208 58.9115C209.901 59.0469 212.568 59.2656 213.964 59.4167C215.339 59.5677 217.083 59.8177 217.823 60.0052C218.563 60.1875 219.286 60.3438 219.422 60.3229C219.552 60.3229 219.854 60.474 220.094 60.6458C220.328 60.8281 220.766 61.0156 221.047 61.0833C221.401 61.151 221.755 61.3854 222.021 61.7396C222.24 62.026 222.443 62.3281 222.443 62.4115C222.443 62.4792 222.542 62.6302 222.646 62.7448C222.76 62.8646 222.964 63.4531 223.099 64.0417C223.229 64.651 223.38 65.2188 223.469 65.3021C223.531 65.3906 223.719 66.1979 223.885 67.0729C224.036 67.9479 224.224 68.7031 224.307 68.7552C224.375 68.8021 224.557 69.5104 224.708 70.3542C224.875 71.1927 225.063 71.9479 225.146 72.0365C225.214 72.1198 225.365 72.6719 225.5 73.2604C225.615 73.8333 225.75 74.3073 225.802 74.3073C225.849 74.3073 226.021 73.651 226.188 72.8438C226.339 72.0156 226.542 71.3281 226.604 71.276C226.672 71.2292 226.844 70.8542 226.974 70.4531C227.109 70.0313 227.313 69.6094 227.396 69.526C227.495 69.4271 227.682 69.0729 227.818 68.7552C227.932 68.4323 228.203 67.9479 228.385 67.6771C228.589 67.4063 229.411 66.5156 230.25 65.6927C231.089 64.849 231.911 64.026 232.099 63.8594C232.281 63.6875 232.536 63.5365 232.635 63.5365C232.75 63.5365 232.906 63.4375 232.969 63.3177C233.057 63.2031 233.443 62.8802 233.859 62.6146C234.281 62.3438 234.766 62.026 234.953 61.9063C235.135 61.7865 235.641 61.5208 236.063 61.3177C236.479 61.099 236.932 60.8438 237.068 60.7448C237.203 60.6458 237.974 60.2917 238.813 59.9531C239.656 59.6198 240.443 59.3333 240.578 59.3333C240.714 59.3333 241.016 59.25 241.25 59.1302C241.484 59.0313 242.427 58.7917 243.349 58.6094C244.271 58.4427 245.479 58.2396 246.036 58.1719C246.589 58.0885 247.797 58.0365 248.724 58.0365ZM248.167 68.9219C247.411 69.0208 246.656 69.1563 246.49 69.2396C246.339 69.3438 245.599 69.5938 244.859 69.8125C244.12 70.0469 242.911 70.5052 242.172 70.8385C241.432 71.1771 240.714 71.5313 240.578 71.6146C240.443 71.6979 240.057 71.8854 239.74 72.0365C239.417 72.1667 239.031 72.3542 238.901 72.4531C238.766 72.5573 238.344 72.776 237.974 72.9427C237.604 73.1302 237.188 73.3958 237.052 73.5469C236.917 73.6979 236.75 73.8177 236.667 73.8021C236.599 73.8021 236.193 74.0521 235.76 74.3542C235.307 74.6406 234.854 75.0313 234.75 75.1979C234.635 75.349 234.417 75.4844 234.281 75.4844C234.146 75.4844 233.943 75.6354 233.859 75.8177C233.776 76.0052 233.625 76.1563 233.526 76.1563C233.443 76.1563 232.688 76.8125 231.865 77.6354C231.021 78.4427 230.333 79.1823 230.349 79.2708C230.349 79.3698 230.016 79.6563 229.63 79.9427C229.224 80.2135 228.724 80.4323 228.49 80.4115C228.25 80.4115 227.849 80.3281 227.578 80.2448L227.094 80.1094C227.276 81.2865 227.396 81.8594 227.479 82.1302C227.563 82.4167 227.75 83.6927 227.901 84.9896C228.036 86.2865 228.234 87.6823 228.318 88.1042C228.401 88.5208 228.552 89.651 228.656 90.625C228.755 91.599 228.906 93.0833 228.99 93.9063C229.094 94.75 229.344 97.1719 229.578 99.2917C229.813 101.427 230.068 103.729 230.167 104.422C230.25 105.109 230.453 107.13 230.604 108.88C230.74 110.646 230.974 113.589 231.125 115.443C231.323 118.016 231.391 121.281 231.391 129.24C231.375 137.417 231.323 140.276 231.125 142.443C230.974 143.974 230.74 146.432 230.589 147.911C230.453 149.391 230.266 151.057 230.167 151.615C230.083 152.167 229.88 153.464 229.745 154.474C229.615 155.5 229.396 156.813 229.26 157.417C229.125 158.026 228.891 159.302 228.74 160.276C228.589 161.255 228.401 162.161 228.318 162.297C228.25 162.432 228.135 162.938 228.083 163.391C228.016 163.865 227.917 164.417 227.865 164.651C227.797 164.938 228.12 164.635 228.854 163.729C229.464 162.99 230.552 161.776 231.276 161.021C232.016 160.276 233.104 159.219 233.708 158.661C234.313 158.125 235.005 157.521 235.219 157.333C235.438 157.151 236.161 156.578 236.833 156.073C237.505 155.568 238.531 154.792 239.099 154.375C239.688 153.953 240.51 153.38 240.948 153.078C241.401 152.776 242.073 152.323 242.458 152.052C242.859 151.797 243.854 151.109 244.693 150.536C245.531 149.948 247.276 148.755 248.604 147.865C249.932 146.969 251.193 146.115 251.391 145.979C251.609 145.844 252.063 145.526 252.432 145.271C252.786 145.021 253.271 144.667 253.505 144.479C253.745 144.297 254.026 144.125 254.13 144.125C254.245 144.125 254.349 144.078 254.349 144.01C254.349 143.927 254.849 143.536 255.474 143.135C256.109 142.714 257 142.073 257.49 141.703C257.958 141.318 258.88 140.646 259.552 140.172C260.208 139.719 260.911 139.198 261.115 139.047C261.318 138.88 262.391 138.052 263.516 137.198C264.625 136.339 266.135 135.109 266.859 134.453C267.578 133.813 268.755 132.703 269.443 132.016C270.151 131.307 271.51 129.859 272.484 128.802C273.458 127.724 274.411 126.63 274.615 126.359C274.818 126.094 275.286 125.5 275.641 125.031C276.01 124.578 276.797 123.432 277.422 122.51C278.026 121.583 278.526 120.76 278.526 120.656C278.526 120.573 278.646 120.37 278.76 120.234C278.88 120.104 279.318 119.344 279.719 118.552C280.125 117.766 280.51 117.089 280.578 117.042C280.625 116.99 280.813 116.62 280.979 116.198C281.146 115.776 281.318 115.406 281.38 115.359C281.432 115.307 281.62 114.833 281.771 114.313C281.922 113.776 282.12 113.323 282.188 113.307C282.255 113.271 282.49 112.651 282.693 111.906C282.911 111.167 283.214 110.042 283.38 109.385C283.547 108.745 283.818 107.99 283.953 107.703C284.104 107.432 284.302 106.625 284.406 105.938C284.521 105.245 284.672 104.521 284.755 104.339C284.859 104.135 284.891 102.401 284.859 100.214C284.807 97.526 284.693 95.724 284.438 93.9896C284.24 92.6458 283.969 91.2813 283.833 90.9635C283.719 90.6406 283.5 89.8698 283.38 89.2292C283.245 88.6042 283.115 88.1042 283.063 88.1042C283.01 88.1042 282.844 87.6302 282.656 87.0573C282.49 86.4688 282.292 85.9323 282.224 85.8281C282.141 85.7448 281.953 85.2917 281.802 84.8229C281.635 84.3646 281.401 83.9271 281.281 83.8646C281.146 83.776 281.047 83.625 281.047 83.526C281.047 83.4063 280.828 82.9896 280.542 82.599C280.276 82.1979 280.042 81.8438 280.042 81.7917C280.042 81.7448 279.87 81.4896 279.651 81.2396C279.453 80.9688 279.099 80.4948 278.865 80.1927C278.63 79.875 278.057 79.1667 277.589 78.6146C277.12 78.0417 276.276 77.151 275.74 76.5938C275.203 76.0573 274.26 75.2656 273.656 74.8281C273.052 74.3906 272.146 73.7865 271.641 73.4635C271.141 73.1458 270.583 72.7917 270.385 72.6719C270.198 72.5729 269.443 72.1875 268.703 71.8177C267.964 71.4479 266.974 71.026 266.521 70.8906C266.052 70.7396 265.193 70.5052 264.589 70.3542C263.984 70.2031 262.708 69.8958 261.734 69.6615C260.76 69.4427 259.333 69.1406 258.547 69.0052C257.755 68.8698 255.724 68.7188 254.01 68.6875C252.297 68.651 250.604 68.651 250.234 68.6875C249.865 68.7188 248.943 68.8385 248.167 68.9219Z" fill="#F7F6F2"/>
</g>
<mask id="mask1_1_1191" style="mask-type:luminance" maskUnits="userSpaceOnUse" x="70" y="58" width="224" height="179">
<path d="M70.2709 58H293.859V236.917H70.2709V58Z" fill="white"/>
</mask>
<g mask="url(#mask1_1_1191)">
<path d="M246.037 58.1562C245.479 58.224 244.271 58.4427 243.349 58.6094C242.427 58.7917 241.484 59.0312 241.25 59.1302C241.016 59.25 240.714 59.3333 240.578 59.3333C240.443 59.3333 239.656 59.6198 238.813 59.9531C237.974 60.2917 237.203 60.6458 237.068 60.7448C236.932 60.8437 236.479 61.099 236.063 61.3177C235.641 61.5208 235.135 61.7865 234.953 61.9062C234.766 62.026 234.281 62.3437 233.859 62.6146C233.443 62.8802 233.057 63.2031 232.969 63.3177C232.906 63.4375 232.75 63.5365 232.635 63.5365C232.537 63.5365 232.281 63.6875 232.099 63.8594C231.912 64.026 231.089 64.849 230.25 65.6927C229.412 66.5156 228.589 67.4062 228.385 67.6771C228.203 67.9479 227.932 68.4323 227.818 68.7552C227.682 69.0729 227.495 69.4271 227.396 69.526C227.313 69.6094 227.109 70.0312 226.974 70.4531C226.844 70.8594 226.672 71.2292 226.604 71.276C226.542 71.3281 226.37 71.9687 226.219 72.7083C226.068 73.4479 225.87 74.2031 225.781 74.3906C225.698 74.5729 225.599 75.5677 225.583 76.5781C225.547 78.0052 225.599 78.5104 225.802 78.75C225.938 78.9167 226.323 79.3177 226.641 79.6198C226.958 79.9271 227.495 80.2448 227.818 80.3125C228.135 80.3802 228.552 80.4115 228.74 80.3958C228.922 80.3646 229.359 80.1458 229.714 79.8906C230.068 79.6406 230.349 79.3542 230.349 79.2708C230.333 79.1875 231.021 78.4427 231.844 77.6198C232.688 76.8125 233.443 76.1562 233.526 76.1562C233.609 76.1562 233.776 76.0052 233.859 75.8177C233.943 75.6354 234.146 75.4844 234.281 75.4844C234.417 75.4844 234.635 75.349 234.75 75.1823C234.854 75.0312 235.307 74.6406 235.76 74.3385C236.193 74.0521 236.599 73.8021 236.667 73.8021C236.75 73.8177 236.917 73.6979 237.052 73.5469C237.188 73.3958 237.604 73.1302 237.974 72.9427C238.344 72.776 238.766 72.5573 238.901 72.4531C239.031 72.3542 239.417 72.1667 239.74 72.0365C240.057 71.8854 240.443 71.6979 240.578 71.6146C240.714 71.5312 241.432 71.1771 242.172 70.8385C242.912 70.5052 244.12 70.0469 244.859 69.8125C245.599 69.5937 246.339 69.3437 246.505 69.2396C246.656 69.1562 247.448 68.9896 248.25 68.8906C249.109 68.7552 251.255 68.6875 253.339 68.6875C255.844 68.7031 257.422 68.7865 258.464 68.9896C259.302 69.125 260.761 69.4427 261.734 69.6615C262.708 69.8958 263.984 70.2031 264.589 70.3542C265.193 70.5052 266.052 70.7396 266.521 70.8906C266.974 71.026 267.964 71.4479 268.703 71.8177C269.443 72.1875 270.198 72.5729 270.386 72.6719C270.583 72.7917 271.141 73.1458 271.646 73.4635C272.146 73.7865 273.052 74.3906 273.656 74.8281C274.261 75.2656 275.203 76.0573 275.74 76.5937C276.276 77.151 277.12 78.0417 277.589 78.6146C278.057 79.1667 278.63 79.875 278.865 80.1927C279.099 80.4948 279.453 80.9687 279.651 81.2396C279.87 81.4896 280.042 81.7448 280.042 81.7917C280.042 81.8437 280.276 82.1979 280.542 82.5833C280.828 82.9896 281.047 83.4062 281.047 83.5104C281.047 83.625 281.146 83.776 281.281 83.8437C281.401 83.9271 281.636 84.349 281.802 84.8229C281.953 85.276 282.141 85.7448 282.224 85.8281C282.292 85.9167 282.49 86.4687 282.662 87.0573C282.844 87.6302 283.011 88.1042 283.063 88.1042C283.115 88.1042 283.245 88.6042 283.38 89.2292C283.5 89.8698 283.719 90.6406 283.833 90.9635C283.969 91.2812 284.24 92.6458 284.438 93.9896C284.693 95.724 284.807 97.526 284.859 100.214C284.891 102.401 284.859 104.135 284.761 104.339C284.672 104.521 284.521 105.245 284.406 105.937C284.302 106.625 284.104 107.432 283.953 107.703C283.818 107.974 283.547 108.729 283.38 109.385C283.214 110.042 282.912 111.167 282.693 111.906C282.49 112.651 282.255 113.271 282.188 113.286C282.12 113.323 281.922 113.776 281.771 114.297C281.62 114.833 281.432 115.307 281.38 115.359C281.318 115.406 281.146 115.776 280.979 116.198C280.813 116.62 280.625 116.99 280.578 117.042C280.511 117.089 280.125 117.766 279.719 118.552C279.318 119.344 278.88 120.104 278.766 120.234C278.646 120.37 278.526 120.573 278.526 120.656C278.526 120.74 278.026 121.583 277.422 122.505C276.797 123.432 276.011 124.562 275.641 125.031C275.287 125.484 274.818 126.094 274.615 126.359C274.412 126.63 273.458 127.724 272.484 128.802C271.511 129.859 270.151 131.307 269.443 132.016C268.74 132.703 267.578 133.797 266.859 134.453C266.136 135.109 264.625 136.339 263.516 137.198C262.391 138.052 261.318 138.88 261.115 139.047C260.912 139.198 260.208 139.703 259.552 140.172C258.88 140.63 257.958 141.318 257.49 141.703C257 142.073 256.109 142.714 255.474 143.135C254.849 143.536 254.349 143.927 254.349 143.995C254.349 144.078 254.245 144.125 254.13 144.125C254.026 144.125 253.745 144.297 253.505 144.479C253.271 144.667 252.787 145.021 252.432 145.271C252.063 145.526 251.609 145.844 251.391 145.979C251.193 146.115 249.932 146.969 248.604 147.865C247.276 148.755 245.531 149.948 244.693 150.536C243.854 151.109 242.88 151.781 242.511 152.036C242.141 152.286 241.5 152.708 241.099 152.979C240.677 153.245 239.823 153.854 239.167 154.339C238.51 154.813 237.823 155.318 237.641 155.469C237.453 155.599 236.932 156.005 236.464 156.344C236.01 156.693 235.474 157.099 235.287 157.266C235.104 157.417 234.432 158.042 233.813 158.63C233.172 159.203 232.583 159.708 232.5 159.724C232.417 159.755 231.609 160.599 230.719 161.589C229.813 162.583 228.656 163.964 228.151 164.651C227.63 165.344 226.943 166.385 226.589 166.958C226.255 167.547 225.969 168.068 225.969 168.135C225.969 168.219 225.87 168.385 225.734 168.521C225.615 168.656 225.417 169.042 225.297 169.365C225.177 169.682 224.979 170.068 224.859 170.203C224.745 170.339 224.573 170.776 224.474 171.161C224.375 171.568 224.224 171.906 224.156 171.922C224.089 171.953 223.854 172.427 223.635 172.979C223.417 173.536 223.078 174.443 222.865 175C222.662 175.557 222.443 176.125 222.375 176.26C222.323 176.396 222.125 177.052 221.922 177.693C221.74 178.333 221.469 179.323 221.349 179.88C221.234 180.432 221.031 181.766 220.917 182.823C220.714 184.557 220.714 184.859 220.979 185.682C221.13 186.188 221.266 186.708 221.266 186.813C221.266 186.927 221.417 187.349 221.583 187.734C221.771 188.141 222.193 188.661 222.51 188.911C222.896 189.219 223.349 189.401 223.75 189.417C224.188 189.438 224.625 189.302 225.214 188.932C225.682 188.646 226.151 188.208 226.271 187.974C226.37 187.734 226.474 187.432 226.474 187.318C226.474 187.214 226.625 186.813 226.792 186.443C226.974 186.073 227.313 185.094 227.578 184.255C227.833 183.411 228.438 181.797 228.943 180.635C229.443 179.474 230.198 177.807 230.635 176.932C231.073 176.057 231.828 174.729 232.318 173.99C232.802 173.25 233.375 172.458 233.573 172.24C233.776 172.036 234.396 171.5 234.953 171.078C235.505 170.661 236.412 169.969 236.969 169.531C237.521 169.094 238.162 168.641 238.396 168.521C238.63 168.385 238.901 168.234 238.984 168.167C239.068 168.083 239.37 167.833 239.656 167.615C239.938 167.38 240.495 166.906 240.912 166.589C241.333 166.266 241.771 166 241.886 166C241.99 166 242.141 165.896 242.224 165.781C242.292 165.677 242.557 165.458 242.844 165.292C243.13 165.141 243.703 164.823 244.156 164.583C244.589 164.349 245.297 163.948 245.75 163.693C246.188 163.458 246.807 163.104 247.125 162.938C247.448 162.771 247.833 162.531 247.969 162.417C248.099 162.297 248.854 161.875 249.646 161.474C250.432 161.068 251.193 160.682 251.323 160.599C251.458 160.516 251.844 160.328 252.167 160.193C252.484 160.042 252.87 159.875 253.005 159.792C253.141 159.708 254.198 159.167 255.354 158.615C256.516 158.057 257.552 157.589 257.672 157.589C257.771 157.589 257.891 157.536 257.922 157.453C257.943 157.385 258.63 157 259.469 156.578C260.292 156.156 261.063 155.719 261.198 155.599C261.318 155.5 261.5 155.401 261.583 155.401C261.667 155.401 262.057 155.198 262.458 154.927C262.844 154.677 263.313 154.375 263.5 154.271C263.682 154.156 264.136 153.885 264.505 153.698C264.875 153.5 265.281 153.229 265.396 153.094C265.516 152.979 265.698 152.875 265.781 152.875C265.865 152.875 266.271 152.656 266.688 152.37C267.109 152.083 267.531 151.865 267.615 151.865C267.698 151.865 267.813 151.75 267.865 151.615C267.917 151.479 268.052 151.359 268.167 151.359C268.266 151.344 268.703 151.094 269.125 150.771C269.542 150.453 269.979 150.203 270.099 150.182C270.198 150.182 270.349 150.083 270.432 149.964C270.5 149.865 270.672 149.677 270.823 149.594C270.99 149.51 271.49 149.156 271.964 148.839C272.432 148.516 272.87 148.146 272.901 148.031C272.953 147.927 273.089 147.828 273.203 147.828C273.307 147.813 273.896 147.339 274.479 146.771C275.083 146.198 275.807 145.49 276.078 145.203C276.359 144.917 276.865 144.396 277.203 144.026C277.521 143.672 278.224 142.833 278.745 142.193C279.266 141.552 279.688 140.964 279.703 140.88C279.703 140.812 279.839 140.625 280.005 140.443C280.156 140.276 280.625 139.667 281.047 139.078C281.469 138.505 281.953 137.786 282.141 137.464C282.323 137.161 282.979 136.083 283.615 135.057C284.24 134.031 284.74 133.109 284.74 133.021C284.74 132.937 284.792 132.854 284.875 132.854C284.943 132.87 285.162 132.5 285.38 132.062C285.578 131.625 285.932 130.953 286.151 130.583C286.354 130.214 286.771 129.458 287.094 128.901C287.396 128.344 288 127.167 288.438 126.292C288.87 125.417 289.511 124.057 289.844 123.266C290.182 122.474 290.568 121.599 290.703 121.328C290.839 121.062 291.104 120.37 291.307 119.818C291.49 119.26 291.776 118.286 291.927 117.63C292.094 116.974 292.266 116.365 292.333 116.281C292.396 116.198 292.568 115.271 292.719 114.266C292.886 113.255 293.068 112.297 293.136 112.161C293.203 112.026 293.406 110.812 293.557 109.469C293.776 107.719 293.859 105.87 293.844 102.906C293.844 100.365 293.74 97.875 293.573 96.4323C293.438 95.1354 293.24 93.8385 293.156 93.5677C293.052 93.3021 292.87 92.3073 292.719 91.3802C292.568 90.4583 292.38 89.6146 292.313 89.5312C292.245 89.4479 292.094 88.9115 291.979 88.3542C291.859 87.7969 291.662 87.1927 291.557 87.0104C291.443 86.8229 291.24 86.25 291.12 85.7448C291.005 85.2396 290.771 84.5521 290.583 84.2344C290.417 83.9115 290.281 83.5417 290.281 83.4271C290.281 83.3229 290.099 82.8698 289.88 82.4167C289.662 81.9792 289.073 80.7812 288.589 79.776C288.099 78.7656 287.375 77.4531 286.974 76.8646C286.573 76.2917 286.25 75.7344 286.25 75.651C286.25 75.5677 286.12 75.3802 285.932 75.2656C285.766 75.1615 285.495 74.7917 285.328 74.474C285.162 74.1562 284.891 73.7865 284.724 73.6667C284.542 73.5677 284.406 73.3802 284.406 73.2969C284.406 73.2135 283.38 72.1198 282.141 70.8906C280.896 69.6771 279.672 68.5 279.417 68.2812C279.167 68.0781 278.729 67.7292 278.443 67.5104C278.156 67.2917 277.755 67.0208 277.521 66.901C277.287 66.7708 277.016 66.6146 276.932 66.5312C276.849 66.4479 276.344 66.1302 275.844 65.7917C275.339 65.474 274.781 65.1719 274.63 65.1354C274.464 65.0885 274.328 65 274.328 64.9167C274.328 64.849 274.011 64.6302 273.625 64.4115C273.224 64.1927 272.568 63.8229 272.146 63.5885C271.729 63.3542 270.906 62.9167 270.302 62.6302C269.698 62.3281 268.906 61.9375 268.537 61.7865C268.167 61.6198 267.261 61.2656 266.521 61C265.781 60.7448 264.693 60.4062 264.089 60.276C263.484 60.1406 262.271 59.8385 261.401 59.5833C260.526 59.349 259.047 58.9948 258.125 58.8125C257.203 58.625 256.229 58.4062 255.943 58.3229C255.656 58.2396 253.557 58.1354 251.24 58.1042C248.943 58.0521 246.589 58.0885 246.037 58.1562ZM168.037 214.135C166.323 214.203 163.99 214.354 162.828 214.453C161.672 214.552 160.094 214.672 159.302 214.724C158.516 214.771 155.156 214.958 151.833 215.141C148.505 215.344 144.51 215.547 142.932 215.63C141.354 215.698 138.599 215.849 136.802 215.969C135.005 216.068 133.156 216.219 132.688 216.302C132.234 216.385 130.672 216.557 129.245 216.656C127.615 216.792 125.516 216.823 123.62 216.74C121.958 216.693 118.599 216.589 116.146 216.557C113.698 216.505 111.177 216.385 110.521 216.302C109.87 216.219 106.662 216.104 103.385 216.052C100.109 216 95.8803 215.849 93.9844 215.698C92.0834 215.563 89.9376 215.38 89.198 215.297C88.4584 215.208 85.922 215.057 83.573 214.99C81.2188 214.906 78.8334 214.875 78.2813 214.906C77.7292 214.943 77.0209 215.01 76.7344 215.042C76.4324 215.094 76.0834 215.229 75.9792 215.344C75.8647 215.479 75.4272 215.766 75.0261 215.984C74.6199 216.203 74.1199 216.49 73.9011 216.589C73.6824 216.708 73.448 216.943 73.3803 217.094C73.3282 217.26 73.0938 217.615 72.8907 217.901C72.6719 218.188 72.4897 218.625 72.4897 218.911C72.4897 219.198 72.3699 219.635 72.2188 219.922C72.0834 220.208 71.7657 221.099 71.5157 221.938C71.1094 223.271 71.0626 223.724 71.0782 225.724C71.0938 227.776 71.1303 228.115 71.5469 229.177C71.8022 229.813 72.2709 230.688 72.573 231.109C72.8751 231.531 73.4949 232.203 73.948 232.625C74.3855 233.026 75.1407 233.516 75.5938 233.682C76.0678 233.854 76.6719 234.073 76.9376 234.156C77.2084 234.24 78.0469 234.443 78.7865 234.625C79.5261 234.813 80.8022 235.047 81.6407 235.146C82.4792 235.266 83.4532 235.448 83.823 235.568C84.1928 235.688 85.3334 235.87 86.3438 235.974C87.349 236.089 88.6772 236.255 89.2813 236.359C89.9845 236.474 91.3438 236.495 93.0574 236.427C95.0053 236.344 96.8022 236.391 99.6094 236.594C102.495 236.813 105.115 236.88 110.021 236.865C114.167 236.849 117.609 236.745 119.422 236.578C121 236.443 123.823 236.224 125.719 236.089C127.615 235.953 130.255 235.771 131.599 235.667C132.943 235.568 135.391 235.38 137.052 235.229C138.719 235.099 140.714 234.896 141.505 234.813C142.292 234.708 143.568 234.557 144.359 234.474C145.146 234.375 147.214 234.188 148.979 234.052C150.74 233.901 153.594 233.682 155.359 233.547C157.12 233.417 159.12 233.198 159.807 233.063C160.495 232.927 161.635 232.724 162.328 232.625C163.016 232.521 164.042 232.339 164.594 232.203C165.146 232.068 166.172 231.885 166.859 231.781C167.547 231.682 168.203 231.531 168.287 231.464C168.37 231.396 169.125 231.193 169.969 231.026C170.807 230.875 171.594 230.672 171.729 230.604C171.865 230.521 172.438 230.37 172.99 230.266C173.693 230.135 174.214 229.896 174.75 229.479C175.172 229.156 175.708 228.604 175.943 228.266C176.182 227.927 176.484 227.276 176.599 226.818C176.719 226.349 176.87 225.896 176.938 225.807C177.005 225.724 177.135 225.036 177.255 224.297C177.354 223.557 177.474 222.375 177.542 221.688C177.589 221 177.557 219.703 177.458 218.828C177.307 217.719 177.104 216.911 176.766 216.219C176.5 215.667 175.995 214.922 175.641 214.573L175.005 213.932C172.016 214 169.75 214.068 168.037 214.135Z" fill="#E4C64B"/>
</g>
<path fill-rule="evenodd" clip-rule="evenodd" d="M181.083 80.2292C181.521 80.1927 182.375 80.2604 182.979 80.3802C183.583 80.4792 184.557 80.8021 185.162 81.0885C185.922 81.4375 186.589 81.9427 187.349 82.7344C187.953 83.3385 188.625 84.2135 188.844 84.6719C189.057 85.125 189.297 85.6458 189.38 85.8281C189.448 86.0156 189.547 86.3177 189.599 86.5052C189.646 86.6875 189.729 87.2083 189.781 87.6823C189.833 88.1354 189.917 88.7396 190.052 89.5313L190.422 89.1771C190.62 88.9792 191.125 88.6042 191.547 88.3542C191.964 88.0833 192.938 87.5469 193.729 87.1406C194.516 86.7396 195.292 86.4219 195.443 86.4219C195.61 86.4219 195.776 86.3698 195.807 86.2865C195.844 86.2188 196.396 86.099 197.021 86C197.656 85.9167 198.547 85.849 199.016 85.8802C199.469 85.8958 200.313 86.0677 200.865 86.2656C201.417 86.4531 202.24 86.8906 202.714 87.2292C203.167 87.5625 203.735 88.0677 203.969 88.3385C204.208 88.625 204.594 89.1302 204.844 89.4792C205.115 89.8333 205.313 90.2396 205.313 90.375C205.313 90.5052 205.38 90.6615 205.485 90.7083C205.568 90.7604 205.735 91.1979 205.833 91.6667C205.953 92.1563 206.037 92.9792 206.037 93.4844C206.021 93.9896 205.938 94.75 205.818 95.1667C205.719 95.5885 205.349 96.4115 205.011 97.0208C204.693 97.625 203.901 98.6354 203.281 99.2917C202.662 99.9271 201.787 100.651 200.526 101.276L201.87 101.964C202.61 102.354 203.552 102.922 203.953 103.245C204.36 103.563 205.115 104.339 205.636 104.943C206.156 105.568 206.74 106.391 206.927 106.792C207.13 107.198 207.412 107.802 207.547 108.125C207.698 108.443 207.917 109.13 208.052 109.635C208.167 110.141 208.287 111.167 208.318 111.906C208.354 112.766 208.287 113.589 208.12 114.177C207.969 114.682 207.563 115.474 207.214 115.948C206.875 116.401 206.354 117.005 206.068 117.26C205.802 117.526 205.266 117.88 204.896 118.047C204.526 118.234 203.735 118.505 203.13 118.656C202.427 118.839 201.386 118.943 200.193 118.943C198.969 118.958 197.974 118.859 197.255 118.656C196.651 118.505 195.776 118.203 195.323 117.984C194.854 117.781 193.88 117.125 193.141 116.536C192.016 115.661 191.797 115.526 191.745 115.797C191.729 115.964 191.578 116.568 191.443 117.125C191.292 117.677 190.922 118.62 190.62 119.229C190.333 119.833 189.849 120.693 189.547 121.161C189.261 121.615 188.386 122.625 187.63 123.401C186.875 124.172 185.953 124.979 185.583 125.198C185.214 125.417 184.276 125.755 183.485 125.958C182.511 126.208 181.755 126.313 181.136 126.245C180.531 126.193 179.755 125.938 178.865 125.521C177.792 125 177.203 124.542 175.844 123.182C174.667 122.021 174.016 121.214 173.714 120.573C173.474 120.068 173.193 119.229 173.073 118.724C172.953 118.219 172.891 117.24 172.99 115.339L172.068 115.474C171.563 115.542 170.604 115.594 169.969 115.557C169.328 115.542 168.406 115.427 167.953 115.292C167.328 115.104 166.86 114.786 166.12 114.063C165.568 113.49 164.964 112.698 164.708 112.161C164.474 111.656 164.193 110.849 164.073 110.396C163.953 109.922 163.854 108.979 163.854 108.292C163.87 107.599 163.974 106.542 164.089 105.938C164.224 105.328 164.474 104.453 164.662 104C164.86 103.531 165.13 102.922 165.281 102.656C165.432 102.37 165.833 101.729 166.156 101.224C166.49 100.719 167.328 99.7083 168.021 98.9896C168.724 98.2656 169.75 97.3698 170.302 96.9844C170.854 96.599 172.031 95.9063 172.906 95.4531C173.776 95 174.516 94.5938 174.537 94.5625C174.568 94.5313 174.365 94.1563 174.078 93.7396C173.797 93.3177 173.578 92.9323 173.578 92.8438C173.578 92.7813 173.458 92.4583 173.292 92.1406C173.141 91.8177 172.87 91.0104 172.719 90.375C172.5 89.5469 172.417 88.6927 172.453 87.5104C172.485 86.0469 172.552 85.6979 172.99 84.8229C173.261 84.2656 173.813 83.4427 174.235 82.9896C174.651 82.5521 175.458 81.9271 176.011 81.625C176.568 81.3229 177.37 80.9531 177.807 80.8021C178.261 80.651 178.969 80.4792 179.406 80.4323C179.86 80.3802 180.229 80.3281 180.245 80.3125C180.261 80.2969 180.63 80.2604 181.083 80.2292ZM183.485 100.302C183.349 100.417 183.13 100.854 183 101.24C182.88 101.646 182.781 102.469 182.797 103.078C182.813 103.948 182.896 104.271 183.235 104.708C183.469 105.026 184.073 105.448 184.61 105.698C185.146 105.938 185.886 106.135 186.255 106.135C186.625 106.135 187.214 106.021 187.547 105.87C187.932 105.719 188.287 105.396 188.438 105.094C188.573 104.807 188.688 104.557 188.688 104.505C188.688 104.453 188.724 104.219 188.776 103.948C188.823 103.698 188.792 103.229 188.688 102.906C188.589 102.589 188.271 101.917 187.969 101.427C187.547 100.719 187.245 100.453 186.542 100.115C186.073 99.8958 185.5 99.7083 185.281 99.7292C185.078 99.7292 184.641 99.8125 184.323 99.9115C184.005 99.9948 183.62 100.182 183.485 100.302ZM62.4949 86.0313C63.2032 86.0833 64.0782 86.2656 64.6824 86.5208C65.2345 86.7552 65.7189 86.9896 65.771 87.0573C65.823 87.125 66.1564 87.3802 66.5262 87.6146C66.896 87.849 67.5366 88.4375 67.9532 88.9271C68.3751 89.4167 68.8595 90.0885 69.047 90.4219C69.2293 90.7604 69.4324 91.0781 69.4845 91.1302C69.5314 91.1823 69.7032 91.4323 69.8335 91.7188C69.9845 91.9896 70.1564 92.4948 70.2397 92.8125C70.3074 93.1302 70.4064 93.5208 70.4376 93.6563C70.4897 93.7865 70.5418 94.5469 70.5574 95.3385C70.5887 96.3646 70.5262 97.0208 70.3074 97.6927C70.1355 98.1979 69.8022 98.9896 69.5522 99.4583C69.297 99.9115 68.8282 100.552 68.5262 100.839C68.2085 101.141 67.9532 101.443 67.9532 101.51C67.9532 101.594 67.6512 101.828 67.2814 102.068C66.9116 102.302 66.6303 102.521 66.6303 102.573C66.6303 102.62 66.3907 102.771 66.1095 102.906C65.823 103.042 65.5522 103.26 65.521 103.359C65.4689 103.479 65.6355 103.682 65.8907 103.818C66.1564 103.948 66.9637 104.453 67.7032 104.943C68.4428 105.432 69.5001 106.286 70.0522 106.859C70.6095 107.432 71.146 108.005 71.2293 108.141C71.3282 108.276 71.547 108.594 71.7345 108.88C71.9168 109.151 72.0678 109.417 72.0835 109.469C72.0835 109.521 72.1876 109.771 72.3022 110.057C72.422 110.328 72.573 110.901 72.6564 111.318C72.7397 111.74 72.7762 112.531 72.7397 113.089C72.7085 113.641 72.521 114.552 72.3543 115.104C72.172 115.661 71.8178 116.453 71.547 116.87C71.297 117.292 70.7241 117.964 70.2866 118.385C69.8543 118.807 69.0782 119.344 68.5939 119.599C68.1043 119.849 67.4689 120.104 67.198 120.167C66.9116 120.219 66.1251 120.286 65.4376 120.323C64.7449 120.339 63.7241 120.255 63.1668 120.12C62.6147 120 61.4376 119.531 58.9689 118.302L58.9532 119.729C58.9532 120.521 58.8178 121.651 58.6512 122.255C58.5001 122.859 58.0626 123.953 57.7137 124.693C57.3439 125.438 56.8543 126.26 56.6199 126.547C56.3855 126.813 55.9845 127.271 55.7137 127.557C55.4637 127.823 55.0262 128.245 54.7553 128.479C54.4897 128.698 53.8491 129.135 53.3439 129.458C52.8439 129.76 52.0366 130.115 51.5835 130.245C51.1147 130.401 50.4741 130.531 50.1564 130.583C49.8335 130.615 49.1147 130.583 48.5574 130.484C48.0053 130.38 47.1512 130.094 46.646 129.844C46.073 129.573 45.3855 129.021 44.797 128.365C44.2762 127.792 43.7085 127.031 43.521 126.682C43.3387 126.328 43.1512 126.005 43.1043 125.958C43.0522 125.906 42.9168 125.635 42.7814 125.37C42.6668 125.083 42.3803 124.292 42.146 123.599C41.9116 122.859 41.7085 121.75 41.6564 120.911C41.5887 119.766 41.6564 119.161 41.9585 117.932C42.1772 117.073 42.3126 116.365 42.2605 116.365C42.2137 116.365 41.7918 116.469 41.3387 116.604C40.8699 116.719 39.7762 116.839 38.9064 116.854C38.0314 116.87 36.823 116.802 36.2189 116.703C35.6147 116.604 34.521 116.333 33.7814 116.083C33.0418 115.844 32.1043 115.49 31.6824 115.271C31.2657 115.073 30.6616 114.635 30.3387 114.313C30.021 113.995 29.4324 113.354 29.047 112.901C28.646 112.432 28.2241 111.688 28.0418 111.151C27.8699 110.578 27.7553 109.755 27.771 108.964C27.7866 108.276 27.9376 107.099 28.1251 106.354C28.3074 105.615 28.7293 104.422 29.0626 103.698C29.4845 102.792 29.9689 102.099 30.6772 101.391C31.3803 100.688 32.0887 100.198 34.3387 99.1198L33.7814 98.2813C33.4793 97.8073 33.0418 96.9531 32.8074 96.3438C32.5887 95.7396 32.3543 94.849 32.3074 94.3594C32.2189 93.7188 32.271 93.25 32.4897 92.5938C32.6564 92.125 33.1095 91.2656 33.4793 90.7083C33.8647 90.1563 34.3855 89.5 34.6407 89.2604C34.9064 89.0104 35.4949 88.5729 35.9637 88.2865C36.4168 87.9844 37.3751 87.5781 38.0626 87.3438C38.7553 87.125 39.5418 86.9063 39.8282 86.8594C40.0991 86.7917 41.1199 86.7552 42.0939 86.7552C43.0678 86.7552 44.0782 86.7917 44.3595 86.8385C44.6303 86.8906 45.2866 87.0573 45.7866 87.1927C46.2918 87.3281 47.0835 87.599 47.5522 87.7656C48.0053 87.9323 48.6928 88.2188 49.0626 88.3854C49.4324 88.5573 49.9532 88.8438 50.2397 89.0104C50.5053 89.1979 51.0782 89.5677 51.5001 89.8542C51.9168 90.1198 52.3387 90.4427 52.4376 90.5417C52.5574 90.625 52.7762 90.8281 52.9428 90.9792C53.1251 91.1146 53.4272 91.3333 53.6303 91.4323C53.9324 91.5833 54.0157 91.5833 54.0157 91.4167C54.0157 91.3177 54.1355 91.0469 54.3022 90.8438C54.4689 90.6406 54.9064 90.1198 55.2762 89.6823C55.646 89.2292 56.0991 88.7396 56.2866 88.5729C56.4689 88.3854 56.8387 88.0677 57.1251 87.8333C57.3907 87.6146 58.0835 87.1927 58.6355 86.9063C59.1876 86.6406 60.0105 86.3021 60.4845 86.1823C60.9845 86.0469 61.7918 85.9844 62.4949 86.0313ZM49.9376 102.792C48.9949 103.229 48.7293 103.448 48.4585 104C48.1928 104.542 48.1564 104.891 48.2241 105.719C48.2762 106.307 48.4585 107.078 48.646 107.448C48.8803 107.938 49.1824 108.208 49.6824 108.443C50.2918 108.693 50.5262 108.729 51.0782 108.578C51.448 108.495 52.0678 108.156 52.4532 107.854C52.8907 107.5 53.3439 106.927 53.5991 106.391C53.9168 105.719 54.0001 105.313 53.948 104.672C53.9168 104.203 53.8178 103.682 53.7137 103.495C53.6147 103.313 53.3282 102.958 53.0626 102.724C52.8074 102.484 52.4741 102.25 52.3387 102.219C52.2032 102.167 51.8491 102.167 51.5835 102.182C51.297 102.219 50.5574 102.484 49.9376 102.792ZM111.026 137.917C111.667 137.917 112.724 138.021 113.375 138.156C114.016 138.286 115.042 138.641 115.646 138.943C116.365 139.318 117.208 139.953 118.094 140.849C118.849 141.589 119.823 142.766 120.281 143.453C120.714 144.146 121.255 145.12 121.469 145.589C121.688 146.078 121.943 146.833 122.042 147.271C122.141 147.729 122.261 148.198 122.292 148.333C122.344 148.5 122.531 148.333 122.833 147.828C123.099 147.406 123.823 146.552 124.479 145.911C125.115 145.271 126.089 144.432 126.641 144.026C127.198 143.641 128.287 143 129.078 142.63C129.87 142.26 131.109 141.786 131.849 141.604C132.589 141.401 134.016 141.198 135.042 141.151C136.365 141.083 137.354 141.13 138.568 141.333C139.755 141.536 140.615 141.786 141.505 142.224C142.375 142.661 143.068 143.167 143.74 143.875C144.276 144.432 144.979 145.307 145.281 145.807C145.599 146.313 145.969 147.188 146.104 147.745C146.271 148.349 146.375 149.443 146.375 150.521C146.375 151.578 146.24 152.891 146.057 153.802C145.886 154.625 145.516 155.885 145.25 156.578C144.979 157.266 144.495 158.328 144.156 158.932C143.823 159.536 143.182 160.479 142.729 161.036C142.292 161.573 141.083 162.667 138.229 164.854L139.49 165.495C140.177 165.849 141.354 166.589 142.094 167.125C142.828 167.682 143.922 168.656 144.511 169.297C145.115 169.938 145.99 170.995 146.458 171.635C146.927 172.276 147.599 173.302 147.938 173.906C148.255 174.51 148.724 175.589 148.958 176.297C149.328 177.406 149.396 177.927 149.396 179.578C149.396 181.109 149.328 181.813 149.063 182.656C148.86 183.313 148.406 184.188 147.917 184.844C147.485 185.448 146.557 186.422 145.87 187.01C145.182 187.62 144.224 188.344 143.771 188.63C143.302 188.932 142.375 189.453 141.703 189.786C141.052 190.125 139.943 190.547 139.271 190.729C138.5 190.948 137.542 191.068 136.636 191.068C135.797 191.068 134.688 190.948 133.948 190.75C133.261 190.578 132.438 190.313 131.599 189.891L131.531 190.427C131.479 190.729 131.412 191.406 131.36 191.906C131.313 192.411 131.146 193.286 131.011 193.844C130.859 194.401 130.521 195.307 130.255 195.865C129.985 196.417 129.479 197.208 129.11 197.63C128.74 198.047 127.922 198.672 127.297 199.01C126.662 199.344 125.537 199.781 124.797 199.984C124.057 200.167 122.917 200.323 122.276 200.323C121.62 200.323 120.495 200.203 119.761 200.052C119.021 199.901 117.776 199.495 116.99 199.161C116.198 198.839 115.021 198.219 114.386 197.797C113.729 197.359 112.755 196.62 112.203 196.13C111.646 195.661 110.823 194.833 110.37 194.297C109.938 193.776 109.115 192.651 108.557 191.823C108.005 190.984 107.266 189.703 106.912 188.964C106.557 188.224 106.005 186.745 105.672 185.682C105.333 184.625 104.917 183.026 104.479 180.521L103.636 180.906C103.167 181.125 102.078 181.411 101.203 181.563C100.328 181.698 99.0053 181.813 98.2657 181.813C97.5262 181.813 96.3178 181.714 95.5782 181.563C94.8387 181.427 93.698 181.109 93.0574 180.854C92.4064 180.583 91.5835 180.146 91.2137 179.865C90.8439 179.578 90.1564 178.922 89.698 178.417C89.2293 177.911 88.6616 177.089 88.4064 176.583C88.172 176.078 87.7866 175.068 87.5678 174.328C87.2345 173.167 87.1824 172.646 87.198 170.542C87.2345 168.641 87.3178 167.797 87.5835 166.755C87.7866 166.016 88.2241 164.87 88.5418 164.234C88.8751 163.594 89.4637 162.635 89.8699 162.13C90.2553 161.625 90.9793 160.901 91.4793 160.516C91.9845 160.146 92.6564 159.672 92.9741 159.49C93.2918 159.286 94.0835 158.948 94.7397 158.714C95.3751 158.479 96.5835 158.193 97.4272 158.073C98.6147 157.906 99.2866 157.906 100.615 158.073C101.537 158.193 102.464 158.313 103.052 158.427L102.63 157.5C102.396 157 101.906 155.5 101.537 154.172C101.172 152.859 100.781 151.177 100.698 150.438C100.615 149.609 100.615 148.5 100.714 147.526C100.802 146.682 101.021 145.505 101.219 144.917C101.406 144.344 101.859 143.422 102.208 142.865C102.563 142.313 103.219 141.5 103.672 141.083C104.109 140.661 104.932 140.021 105.484 139.667C106.042 139.318 106.948 138.828 107.5 138.609C108.052 138.391 108.807 138.135 109.177 138.073C109.547 138.005 110.37 137.938 111.026 137.917ZM116.87 165.578C116.469 165.813 115.912 166.354 115.625 166.792C115.323 167.245 115.005 167.818 114.922 168.104C114.839 168.385 114.787 169.078 114.823 169.651C114.87 170.526 114.974 170.776 115.391 171.214C115.662 171.516 116.266 171.938 116.734 172.172C117.188 172.411 118.13 172.714 118.787 172.828C119.891 173.047 120.094 173.031 120.886 172.76C121.505 172.563 121.943 172.24 122.495 171.635C122.901 171.161 123.417 170.406 123.636 169.953C123.958 169.313 124.042 168.823 124.057 167.849C124.073 166.875 124.005 166.505 123.755 166.182C123.589 165.964 123 165.526 122.443 165.224C121.604 164.755 121.271 164.651 120.432 164.672C119.875 164.672 119.005 164.786 118.5 164.922C117.995 165.057 117.255 165.359 116.87 165.578Z" fill="#F1BC3C"/>
<path d="M117.24 91.5521C116.87 91.6875 116.432 91.9375 116.25 92.1042C116.083 92.2552 115.776 92.7292 115.563 93.1511C115.359 93.5677 115.073 94.2917 114.922 94.75C114.787 95.2188 114.62 95.974 114.568 96.4323C114.5 96.9688 114.568 97.6406 114.74 98.2813C114.87 98.8333 115.125 99.4896 115.276 99.7604C115.427 100.016 115.865 100.432 116.234 100.703C116.599 100.974 117.375 101.344 117.964 101.547C118.531 101.745 119.37 101.896 119.844 101.896C120.297 101.896 120.885 101.813 121.151 101.714C121.406 101.63 121.875 101.359 122.193 101.141C122.51 100.922 123.068 100.318 123.417 99.8125C123.755 99.2917 124.125 98.5156 124.224 98.0781C124.344 97.625 124.391 96.849 124.344 96.3438C124.307 95.8386 124.109 95.0833 123.922 94.6615C123.719 94.2448 123.234 93.5365 122.833 93.0833C122.427 92.625 121.807 92.0886 121.438 91.8698C120.932 91.5677 120.432 91.4479 119.339 91.3802C118.281 91.3177 117.745 91.3646 117.24 91.5521ZM46.7136 161.37C46.3438 161.505 45.9063 161.76 45.724 161.927C45.5522 162.078 45.2501 162.552 45.0313 162.969C44.8334 163.391 44.5469 164.115 44.3959 164.568C44.2605 165.042 44.0938 165.797 44.0417 166.25C43.974 166.792 44.0417 167.464 44.2084 168.104C44.3438 168.656 44.599 169.313 44.7501 169.583C44.9011 169.833 45.3334 170.255 45.7032 170.526C46.073 170.792 46.849 171.161 47.4324 171.365C48.0053 171.568 48.8438 171.719 49.3178 171.719C49.7865 171.719 50.3542 171.635 50.6251 171.536C50.8751 171.448 51.349 171.182 51.6667 170.964C51.9844 170.745 52.5417 170.135 52.8907 169.635C53.2292 169.109 53.599 168.339 53.698 167.901C53.8178 167.448 53.8647 166.672 53.8178 166.167C53.7813 165.661 53.5782 164.906 53.3959 164.484C53.1928 164.063 52.7084 163.359 52.3022 162.901C51.9011 162.448 51.2813 161.911 50.9115 161.693C50.4063 161.391 49.9011 161.271 48.8126 161.203C47.7553 161.135 47.2188 161.188 46.7136 161.37ZM182.391 161.37C182.026 161.505 181.589 161.76 181.401 161.927C181.234 162.078 180.932 162.552 180.714 162.969C180.51 163.391 180.229 164.115 180.078 164.568C179.943 165.042 179.771 165.797 179.724 166.25C179.656 166.792 179.724 167.464 179.891 168.104C180.026 168.656 180.276 169.313 180.427 169.583C180.578 169.833 181.016 170.255 181.385 170.526C181.755 170.792 182.526 171.161 183.115 171.365C183.688 171.568 184.526 171.719 184.995 171.719C185.464 171.719 186.037 171.635 186.307 171.536C186.557 171.448 187.026 171.182 187.349 170.964C187.667 170.745 188.219 170.135 188.573 169.635C188.906 169.109 189.276 168.339 189.38 167.901C189.495 167.448 189.547 166.672 189.495 166.167C189.464 165.661 189.26 164.906 189.078 164.484C188.875 164.063 188.385 163.359 187.984 162.901C187.583 162.448 186.958 161.911 186.589 161.693C186.089 161.391 185.583 161.271 184.49 161.203C183.432 161.135 182.896 161.188 182.391 161.37Z" fill="#E6CFE2"/>
</svg>
