<svg width="294" height="294" viewBox="0 0 294 294" fill="none" xmlns="http://www.w3.org/2000/svg">
<path d="M225.615 195.953C219.25 195.953 212.573 194.26 206.307 190.917C197.313 186.12 190.307 178.891 184.13 172.505C183.75 172.109 183.412 171.682 183.115 171.219C182.818 170.755 182.568 170.266 182.37 169.755C182.172 169.245 182.021 168.719 181.922 168.182C181.828 167.641 181.787 167.094 181.797 166.547C181.807 165.995 181.87 165.453 181.984 164.917C182.104 164.38 182.271 163.865 182.49 163.359C182.714 162.854 182.979 162.38 183.292 161.927C183.604 161.479 183.958 161.063 184.354 160.677C184.75 160.297 185.177 159.958 185.641 159.661C186.099 159.365 186.589 159.115 187.099 158.911C187.609 158.708 188.136 158.557 188.677 158.458C189.219 158.359 189.766 158.318 190.313 158.323C190.865 158.333 191.406 158.396 191.943 158.51C192.479 158.625 193.005 158.792 193.505 159.005C194.011 159.224 194.49 159.49 194.943 159.797C195.396 160.109 195.818 160.464 196.198 160.854C201.781 166.62 207.552 172.578 214.219 176.135C220.448 179.453 227.255 180.125 231.984 177.88C234.865 176.516 237.578 173.823 239.625 170.302C241.5 167.073 242.922 163.172 244.229 157.651C247.109 145.563 247.849 133.349 246.448 121.005C245.542 112.984 243.886 107.635 241.063 103.661C236.807 97.6771 228.599 94.0365 220.172 94.349C212.136 94.6615 203.609 98.3073 196.167 104.615C195.745 104.969 195.297 105.286 194.813 105.557C194.333 105.823 193.828 106.047 193.302 106.214C192.776 106.385 192.24 106.505 191.688 106.568C191.141 106.63 190.589 106.641 190.042 106.599C189.49 106.552 188.948 106.458 188.417 106.307C187.886 106.156 187.375 105.953 186.88 105.703C186.391 105.453 185.927 105.156 185.495 104.813C185.063 104.469 184.667 104.089 184.307 103.667C183.948 103.245 183.636 102.797 183.37 102.313C183.099 101.828 182.88 101.328 182.714 100.802C182.547 100.276 182.427 99.7396 182.365 99.1875C182.302 98.6406 182.297 98.0938 182.344 97.5417C182.391 96.9948 182.49 96.4531 182.641 95.9219C182.797 95.3906 183 94.8802 183.25 94.3906C183.505 93.9011 183.807 93.4427 184.151 93.0104C184.495 92.5781 184.88 92.1875 185.302 91.8333C195.594 83.1094 207.745 78.0573 219.516 77.599C233.734 77.0365 247.193 83.3177 254.755 93.9688C260.662 102.281 262.365 112.307 263.13 119.13C264.75 133.406 263.896 147.536 260.568 161.516C258.859 168.703 256.88 174.005 254.146 178.708C250.365 185.224 245.193 190.172 239.193 193.021C234.886 195.016 230.359 195.995 225.615 195.953Z" fill="#FF6546"/>
<mask id="mask0_1_842" style="mask-type:luminance" maskUnits="userSpaceOnUse" x="55" y="50" width="155" height="202">
<path d="M55 50.4896H209.708V251.823H55V50.4896Z" fill="white"/>
</mask>
<g mask="url(#mask0_1_842)">
<path d="M55.0364 51.0989V228.214C55.0416 229.271 55.203 230.302 55.526 231.312C55.8489 232.323 56.3124 233.26 56.9166 234.13C57.526 235 58.2447 235.76 59.0833 236.406C59.9218 237.057 60.8385 237.568 61.828 237.943C108.562 255.828 155.302 255.828 202.036 237.943C203.026 237.568 203.943 237.057 204.781 236.406C205.62 235.76 206.338 235 206.948 234.13C207.552 233.26 208.016 232.323 208.338 231.312C208.661 230.302 208.823 229.271 208.828 228.214V51.0989H55.0364Z" fill="white"/>
</g>
<path d="M145.068 102.474C144.932 102.474 144.807 102.443 144.688 102.38C144.563 102.323 144.464 102.24 144.38 102.13C144.297 102.026 144.245 101.906 144.219 101.776C144.193 101.641 144.193 101.51 144.229 101.38C147.24 89.9792 153.078 80.4896 161.104 73.9323C161.292 73.7812 161.505 73.7187 161.745 73.7448C161.984 73.7656 162.177 73.8698 162.333 74.0573C162.484 74.2448 162.547 74.4583 162.521 74.6927C162.5 74.9323 162.396 75.1302 162.208 75.2812C154.464 81.599 148.828 90.776 145.912 101.823C145.859 102.016 145.755 102.172 145.599 102.292C145.443 102.411 145.266 102.474 145.068 102.474Z" fill="#183B5D"/>
<path d="M145.844 98.8906C139.448 93.474 136.521 86.9635 138.839 78.8125C145.755 83.5208 147.693 90.3802 145.844 98.8906Z" fill="#183B5D"/>
<path d="M145.521 99.4948C148.062 91.1406 154.51 88.6041 163.661 90.0937C159.042 96.5521 153.302 100.406 145.521 99.4948Z" fill="#183B5D"/>
<path d="M132.521 92.4531C128.885 93.2239 125.729 95.6718 123.672 98.7604C121.615 101.844 120.589 105.536 120.26 109.229C119.938 113.062 120.313 116.823 121.385 120.521C122.458 124.214 124.156 127.594 126.484 130.656C129.021 133.969 132.516 136.885 136.667 137.344C141.38 137.87 145.807 135.177 149.594 132.328C153.849 129.12 157.917 125.484 160.615 120.891C163.318 116.297 164.51 110.599 162.792 105.557C162.307 104.156 161.589 102.891 160.641 101.755C159.688 100.62 158.568 99.6875 157.276 98.9635C155.958 98.2343 154.547 97.8333 153.042 97.7708C151.49 97.7135 150.182 98.2396 148.708 98.5833C148.063 98.7187 147.464 98.5989 146.927 98.2239C145.568 97.2135 144.573 95.7968 143.135 94.8281C141.662 93.8125 140.052 93.0781 138.323 92.625C136.401 92.1146 134.469 92.0573 132.521 92.4531Z" fill="#FF6546"/>
<path d="M134.161 102.344C133.88 102.344 133.641 102.245 133.443 102.047C133.245 101.849 133.146 101.609 133.146 101.328V98.3333C133.146 98.0521 133.245 97.8125 133.443 97.6146C133.641 97.4166 133.88 97.3177 134.161 97.3177C134.437 97.3177 134.677 97.4166 134.875 97.6146C135.073 97.8125 135.172 98.0521 135.172 98.3333V101.328C135.172 101.609 135.073 101.849 134.875 102.047C134.677 102.245 134.437 102.344 134.161 102.344Z" fill="#183B5D"/>
<path d="M140.667 118.25C140.271 118.25 139.974 118.078 139.781 117.729C139.588 117.385 139.594 117.042 139.807 116.703L140.901 114.943C141.052 114.708 141.26 114.562 141.531 114.505C141.802 114.443 142.052 114.484 142.286 114.63C142.521 114.776 142.672 114.984 142.739 115.25C142.802 115.521 142.766 115.771 142.625 116.01L141.531 117.771C141.333 118.094 141.042 118.25 140.667 118.25Z" fill="#183B5D"/>
<path d="M154.526 107.797C154.297 107.802 154.094 107.734 153.911 107.594C153.729 107.458 153.609 107.281 153.547 107.062C153.484 106.844 153.495 106.63 153.578 106.417C153.661 106.208 153.797 106.042 153.995 105.922C154.474 105.63 154.906 105.281 155.302 104.88C155.5 104.682 155.739 104.583 156.021 104.583C156.302 104.578 156.542 104.677 156.739 104.875C156.937 105.068 157.036 105.307 157.042 105.589C157.042 105.87 156.943 106.109 156.745 106.307C156.239 106.823 155.672 107.271 155.052 107.651C154.891 107.75 154.713 107.797 154.526 107.797Z" fill="#183B5D"/>
<path d="M129.698 112.104C129.458 112.104 129.245 112.026 129.062 111.875C128.875 111.729 128.76 111.536 128.708 111.302C128.547 110.552 128.448 109.797 128.406 109.031C128.396 108.75 128.479 108.505 128.667 108.297C128.854 108.089 129.088 107.979 129.37 107.964C129.651 107.948 129.896 108.031 130.104 108.219C130.312 108.406 130.427 108.641 130.437 108.922C130.469 109.583 130.557 110.234 130.693 110.875C130.724 111.026 130.724 111.177 130.687 111.323C130.651 111.474 130.583 111.609 130.489 111.729C130.391 111.844 130.276 111.938 130.135 112.005C130 112.068 129.854 112.104 129.698 112.104Z" fill="#183B5D"/>
<path d="M152.49 121.333C152.068 121.333 151.766 121.141 151.583 120.766C151.396 120.396 151.427 120.042 151.682 119.708C152.078 119.182 152.432 118.63 152.745 118.047C152.875 117.802 153.078 117.635 153.344 117.552C153.609 117.474 153.87 117.5 154.115 117.63C154.365 117.76 154.531 117.958 154.609 118.229C154.693 118.495 154.667 118.75 154.536 119C154.177 119.677 153.766 120.318 153.297 120.932C153.094 121.198 152.823 121.333 152.49 121.333Z" fill="#183B5D"/>
<path d="M132.818 129.573C132.542 129.573 132.302 129.474 132.104 129.276C131.906 129.078 131.807 128.839 131.807 128.557V126.448C131.807 126.167 131.906 125.927 132.104 125.729C132.302 125.531 132.542 125.432 132.818 125.432C133.099 125.432 133.339 125.531 133.537 125.729C133.734 125.927 133.833 126.167 133.833 126.448V128.562C133.833 128.839 133.734 129.078 133.537 129.276C133.339 129.474 133.099 129.573 132.818 129.573Z" fill="#183B5D"/>
<path d="M126.724 122.75C126.495 122.75 126.286 122.682 126.104 122.542C125.922 122.401 125.802 122.219 125.745 121.995L125.109 119.609C125.036 119.339 125.073 119.083 125.214 118.844C125.354 118.599 125.557 118.443 125.833 118.37C126.104 118.302 126.359 118.333 126.599 118.474C126.844 118.615 127 118.823 127.073 119.094L127.703 121.479C127.776 121.75 127.74 122.005 127.599 122.25C127.458 122.49 127.255 122.646 126.979 122.719C126.896 122.74 126.813 122.75 126.724 122.75Z" fill="#183B5D"/>
<path d="M141.089 132.474C140.875 132.474 140.677 132.411 140.505 132.292C140.328 132.167 140.203 132.005 140.13 131.807C140.057 131.604 140.052 131.401 140.104 131.198C140.161 130.99 140.271 130.818 140.438 130.682L142.448 129.005C142.661 128.828 142.911 128.755 143.188 128.781C143.464 128.807 143.688 128.927 143.865 129.141C144.042 129.354 144.12 129.599 144.099 129.875C144.078 130.151 143.958 130.375 143.75 130.557L141.74 132.24C141.547 132.396 141.333 132.474 141.089 132.474Z" fill="#183B5D"/>
<path d="M143.823 106.417H143.807C143.526 106.411 143.292 106.312 143.094 106.109C142.901 105.906 142.807 105.667 142.807 105.391L142.849 103.047C142.87 102.776 142.979 102.547 143.177 102.354C143.375 102.167 143.609 102.068 143.88 102.052C144.162 102.057 144.401 102.161 144.594 102.365C144.787 102.562 144.88 102.802 144.875 103.083L144.839 105.422C144.833 105.698 144.734 105.932 144.537 106.125C144.339 106.323 144.099 106.417 143.823 106.417Z" fill="#183B5D"/>
<path d="M83.1667 56.1979C89.7917 53.1302 93.7553 48.3438 93.7084 40.9688C86.8126 43.3177 83.5886 48.625 83.1667 56.1979Z" fill="#183B5D"/>
<path d="M83.2968 56.776C83.1041 49.1771 78.2812 45.5521 70.2551 44.6875C72.6353 51.1719 76.552 55.7396 83.2968 56.776Z" fill="#183B5D"/>
<path d="M95.8437 53.8802C98.7082 55.3698 100.792 58.151 101.797 61.2187C102.807 64.2864 102.812 67.6198 102.229 70.7916C101.609 74.0833 100.422 77.1562 98.6614 80.0052C96.9062 82.8593 94.6926 85.302 92.026 87.3333C89.1301 89.526 85.5207 91.1614 81.9322 90.5885C77.8541 89.9375 74.7655 86.651 72.2499 83.3802C69.4218 79.7031 66.8541 75.7135 65.6562 71.2343C64.4582 66.7552 64.7864 61.6927 67.3957 57.8593C68.1249 56.802 69.0207 55.901 70.0832 55.1718C71.1457 54.4375 72.302 53.9166 73.5572 53.6093C74.828 53.302 76.1093 53.2916 77.3853 53.5833C78.6978 53.8958 79.677 54.6406 80.8332 55.276C81.3437 55.5364 81.8697 55.5729 82.4114 55.3854C83.7864 54.8489 84.953 53.8906 86.3801 53.4114C87.8541 52.901 89.3749 52.6614 90.9322 52.677C92.6614 52.6927 94.302 53.0937 95.8437 53.8802Z" fill="#FF6546"/>
<path d="M92.4064 61.9583C92.3126 61.9583 92.2241 61.9479 92.1355 61.9219C91.8647 61.8438 91.6616 61.6875 91.5209 61.4427C91.3855 61.2031 91.3543 60.9427 91.4272 60.6771L92.1199 58.1615C92.198 57.8906 92.3543 57.6875 92.5991 57.5521C92.8439 57.4115 93.0991 57.3802 93.3699 57.4531C93.6407 57.5313 93.8439 57.6875 93.9845 57.9323C94.1199 58.1771 94.1512 58.4323 94.0782 58.6979L93.3855 61.2135C93.323 61.4375 93.2032 61.6146 93.0209 61.75C92.8387 61.8906 92.6303 61.9583 92.4064 61.9583Z" fill="#183B5D"/>
<path d="M83.2448 73.8021C83.0209 73.8021 82.8178 73.7344 82.6355 73.599C82.4584 73.4636 82.3334 73.2917 82.2709 73.0729L81.7605 71.3438C81.6823 71.0729 81.7084 70.8177 81.8438 70.5677C81.9792 70.3229 82.1823 70.1615 82.448 70.0833C82.7188 70.0052 82.9792 70.0313 83.224 70.1667C83.4688 70.3021 83.6303 70.5 83.7084 70.7708L84.2188 72.5052C84.2657 72.6563 84.2709 72.8125 84.2448 72.9688C84.2188 73.1302 84.1563 73.2708 84.0573 73.3958C83.9636 73.5261 83.8438 73.625 83.698 73.6979C83.5573 73.7708 83.4063 73.8021 83.2448 73.8021Z" fill="#183B5D"/>
<path d="M74.0468 61.8229C73.75 61.8229 73.5052 61.7135 73.3021 61.5C72.8646 61.0312 72.4896 60.5156 72.1771 59.9583C72.0364 59.7135 72.0052 59.4583 72.0781 59.1875C72.1562 58.9114 72.3177 58.7083 72.5625 58.5729C72.8073 58.4323 73.0677 58.401 73.3385 58.4791C73.6094 58.5573 73.8125 58.7187 73.9479 58.9687C74.1823 59.3854 74.4635 59.7656 74.7864 60.1198C75.0885 60.4427 75.151 60.8073 74.9791 61.2135C74.8021 61.6198 74.4896 61.8229 74.0468 61.8229Z" fill="#183B5D"/>
<path d="M93.8749 71.1823C93.6978 71.1823 93.5312 71.1406 93.3801 71.0521C93.2239 70.9635 93.0989 70.8437 93.0103 70.6927C92.9166 70.5416 92.8697 70.3802 92.8645 70.2031C92.8593 70.026 92.8958 69.8593 92.9791 69.6979C93.2395 69.1979 93.4583 68.6771 93.6405 68.1406C93.7291 67.875 93.8958 67.6823 94.1458 67.5573C94.3958 67.4323 94.6562 67.4114 94.9218 67.5C95.1874 67.5885 95.3801 67.7552 95.5051 68.0052C95.6353 68.2552 95.651 68.5156 95.5624 68.7812C95.3489 69.4218 95.0885 70.0364 94.776 70.6354C94.5885 71 94.2864 71.1823 93.8749 71.1823Z" fill="#183B5D"/>
<path d="M72.6093 73.6458C72.1509 73.6458 71.8384 73.4323 71.6666 73.0104C71.4166 72.3854 71.2186 71.7448 71.0676 71.0833C71.0103 70.8125 71.052 70.5573 71.203 70.3229C71.3541 70.0833 71.5624 69.9375 71.8384 69.875C72.1093 69.8125 72.3645 69.8594 72.6041 70.0052C72.8384 70.1562 72.9895 70.3698 73.052 70.6406C73.177 71.1927 73.3436 71.7344 73.552 72.2604C73.6561 72.5156 73.6509 72.776 73.5416 73.0312C73.4322 73.2917 73.2447 73.4687 72.9843 73.5781C72.8645 73.625 72.7395 73.6458 72.6093 73.6458Z" fill="#183B5D"/>
<path d="M87.1979 85.1198C87.1094 85.1198 87.0156 85.1093 86.9271 85.0833C86.6615 85.0104 86.4531 84.8489 86.3177 84.6041C86.1771 84.3646 86.1459 84.1041 86.224 83.8385L86.7136 82.0625C86.7865 81.7916 86.9479 81.5885 87.1927 81.4479C87.4375 81.3125 87.6927 81.2812 87.9636 81.3541C88.2344 81.4323 88.4375 81.5885 88.5729 81.8333C88.7136 82.0781 88.7448 82.3333 88.6719 82.6041L88.1771 84.375C88.1198 84.5937 87.9948 84.776 87.8125 84.9114C87.6354 85.0521 87.4271 85.1198 87.1979 85.1198Z" fill="#183B5D"/>
<path d="M93.901 80.8073C93.5051 80.8073 93.2135 80.6406 93.0208 80.2969C92.8228 79.9583 92.8228 79.6198 93.0208 79.2813L94.1093 77.4271C94.2551 77.1927 94.4635 77.0417 94.7291 76.9792C94.9947 76.9115 95.2499 76.9479 95.4843 77.0886C95.7239 77.224 95.8749 77.4271 95.9478 77.6927C96.026 77.9583 95.9947 78.2083 95.8645 78.4479L94.776 80.3073C94.578 80.6406 94.2864 80.8073 93.901 80.8073Z" fill="#183B5D"/>
<path d="M79.5938 85.6406C79.2344 85.6406 78.9583 85.4948 78.7552 85.2031L77.4531 83.3229C77.3021 83.0937 77.25 82.8437 77.3021 82.5729C77.3542 82.3021 77.4948 82.0885 77.724 81.9271C77.9531 81.7708 78.2031 81.7187 78.474 81.7656C78.75 81.8125 78.9635 81.9479 79.125 82.1771L80.4219 84.0469C80.5833 84.2812 80.6406 84.5312 80.5885 84.8073C80.5417 85.0833 80.401 85.2969 80.1719 85.4583C79.9948 85.5781 79.8021 85.6406 79.5938 85.6406Z" fill="#183B5D"/>
<path d="M83.3437 63.1406C83.2604 63.1406 83.1718 63.1302 83.0885 63.1094C82.8177 63.0364 82.6093 62.8802 82.4687 62.6406C82.3281 62.401 82.2916 62.1406 82.3645 61.8698L82.875 59.9062C82.9427 59.6302 83.0989 59.4271 83.3385 59.2812C83.5833 59.1406 83.8385 59.1041 84.1093 59.1771C84.3802 59.2448 84.5885 59.401 84.7291 59.6406C84.8697 59.8802 84.9062 60.1354 84.8385 60.4114L84.3281 62.3854C84.2708 62.6094 84.1458 62.7916 83.9635 62.9323C83.7812 63.0729 83.5729 63.1406 83.3437 63.1406Z" fill="#183B5D"/>
<path d="M166.797 191.401C166.583 191.401 166.391 191.333 166.229 191.193C166.068 191.057 165.969 190.88 165.937 190.672C165.901 190.458 165.943 190.266 166.052 190.083C166.161 189.901 166.318 189.776 166.521 189.708C168.708 188.974 170.812 188.052 172.833 186.943C174.854 185.833 176.755 184.547 178.547 183.094C180.333 181.641 181.979 180.036 183.479 178.286C184.979 176.536 186.307 174.667 187.469 172.677C187.594 172.474 187.766 172.344 187.995 172.281C188.229 172.224 188.448 172.255 188.651 172.37C188.859 172.49 188.99 172.661 189.057 172.891C189.12 173.12 189.094 173.339 188.974 173.547C187.76 175.625 186.37 177.583 184.802 179.411C183.234 181.245 181.516 182.917 179.646 184.437C177.776 185.958 175.781 187.302 173.667 188.464C171.557 189.625 169.354 190.589 167.068 191.354C166.979 191.385 166.891 191.401 166.797 191.401Z" fill="#183B5D"/>
<path d="M170.198 189.359C177.885 185.443 184.385 187.208 189.901 193.714C182.609 197.031 176.016 195.74 170.198 189.359Z" fill="#183B5D"/>
<path d="M169.656 189.823C176.396 184.464 178.656 177.911 176.432 170.167C170.016 174.792 168.531 181.698 169.656 189.823Z" fill="#183B5D"/>
<path d="M168.214 177.578C166.526 175.349 163.412 174.573 160.656 175.052C157.906 175.526 155.453 177.063 153.224 178.74C146.953 183.469 141.76 189.734 138.839 197.016C137.589 200.135 136.755 203.552 137.401 206.844C138.016 209.672 139.396 212.057 141.537 214C143.646 215.906 146.037 217.323 148.719 218.266C159.005 222.078 171.375 219.484 179.26 211.865C181.667 209.536 183.755 206.568 183.859 203.219C184.01 198.526 180.5 194.948 176.74 192.708C175.224 191.807 173.662 190.943 172.38 189.729C168.802 186.333 170.99 181.255 168.214 177.578Z" fill="#FF6546"/>
<path d="M162.911 193.328C162.464 193.328 162.151 193.12 161.979 192.714C161.802 192.302 161.87 191.937 162.172 191.615C162.875 190.875 163.615 190.177 164.391 189.521C164.604 189.333 164.854 189.25 165.135 189.271C165.417 189.292 165.651 189.406 165.839 189.625C166.021 189.839 166.099 190.089 166.073 190.37C166.047 190.651 165.927 190.885 165.703 191.062C164.984 191.677 164.297 192.323 163.646 193.01C163.448 193.219 163.203 193.328 162.911 193.328Z" fill="#183B5D"/>
<path d="M172.615 202.401C172.375 202.401 172.167 202.323 171.979 202.177C171.792 202.026 171.677 201.833 171.625 201.604C171.573 201.37 171.599 201.146 171.708 200.938C171.812 200.724 171.974 200.568 172.187 200.464C172.849 200.167 173.484 199.818 174.094 199.427C174.328 199.281 174.583 199.24 174.854 199.297C175.125 199.359 175.333 199.505 175.484 199.74C175.635 199.974 175.682 200.224 175.625 200.495C175.568 200.771 175.422 200.979 175.187 201.135C174.5 201.573 173.781 201.964 173.036 202.307C172.901 202.37 172.76 202.401 172.615 202.401Z" fill="#183B5D"/>
<path d="M162.401 205.089C162.172 205.089 161.964 205.016 161.781 204.875C161.594 204.734 161.474 204.552 161.417 204.323C161.359 204.099 161.38 203.88 161.474 203.672C161.568 203.458 161.714 203.297 161.917 203.188C162.563 202.839 163.156 202.417 163.698 201.922C163.906 201.734 164.151 201.646 164.432 201.661C164.714 201.672 164.948 201.781 165.136 201.99C165.323 202.198 165.412 202.443 165.396 202.724C165.386 203 165.271 203.234 165.063 203.422C164.401 204.026 163.672 204.542 162.886 204.964C162.734 205.047 162.573 205.089 162.401 205.089Z" fill="#183B5D"/>
<path d="M151.953 199.479C151.537 199.479 151.234 199.292 151.047 198.922C150.859 198.547 150.891 198.198 151.136 197.865L152.386 196.182C152.557 195.958 152.776 195.823 153.057 195.786C153.333 195.745 153.583 195.807 153.807 195.974C154.031 196.141 154.167 196.365 154.208 196.641C154.245 196.917 154.182 197.167 154.016 197.391L152.766 199.068C152.563 199.344 152.292 199.479 151.953 199.479Z" fill="#183B5D"/>
<path d="M160.094 183.906C159.875 183.911 159.677 183.844 159.5 183.719C159.323 183.594 159.198 183.427 159.13 183.219C159.062 183.01 159.057 182.802 159.125 182.594C159.187 182.385 159.307 182.219 159.479 182.089L161.266 180.74C161.489 180.573 161.739 180.505 162.016 180.542C162.292 180.583 162.516 180.714 162.687 180.937C162.854 181.156 162.922 181.406 162.88 181.687C162.844 181.964 162.713 182.187 162.489 182.354L160.703 183.703C160.526 183.839 160.323 183.906 160.094 183.906Z" fill="#183B5D"/>
<path d="M171.177 212.469C170.922 212.469 170.698 212.385 170.505 212.219C170.318 212.052 170.203 211.844 170.172 211.589C170.135 211.339 170.188 211.104 170.328 210.896C170.474 210.682 170.667 210.547 170.911 210.479C171.714 210.26 172.479 209.948 173.208 209.542C173.453 209.406 173.708 209.375 173.974 209.453C174.245 209.531 174.443 209.688 174.583 209.932C174.719 210.172 174.75 210.427 174.677 210.698C174.599 210.964 174.443 211.167 174.203 211.307C173.328 211.797 172.406 212.172 171.438 212.432C171.354 212.458 171.266 212.469 171.177 212.469Z" fill="#183B5D"/>
<path d="M156.812 216.115C156.536 216.115 156.302 216.016 156.104 215.828C155.906 215.635 155.807 215.401 155.797 215.125C155.792 214.854 155.88 214.615 156.068 214.411C156.255 214.214 156.484 214.104 156.76 214.089C157.469 214.052 158.156 213.911 158.823 213.682C159.089 213.589 159.344 213.604 159.594 213.724C159.849 213.849 160.021 214.042 160.109 214.302C160.203 214.568 160.187 214.823 160.068 215.073C159.948 215.323 159.755 215.495 159.495 215.589C158.646 215.891 157.771 216.063 156.87 216.115C156.849 216.115 156.833 216.115 156.812 216.115Z" fill="#183B5D"/>
<path d="M148.172 210.906C147.755 210.906 147.448 210.714 147.266 210.339C147.078 209.964 147.115 209.609 147.37 209.276L149.005 207.151C149.172 206.932 149.401 206.802 149.677 206.766C149.953 206.734 150.203 206.797 150.427 206.969C150.646 207.141 150.776 207.365 150.812 207.641C150.849 207.917 150.781 208.167 150.615 208.391L148.979 210.51C148.776 210.776 148.505 210.906 148.172 210.906Z" fill="#183B5D"/>
<path d="M141.427 205.031C141.266 205.031 141.109 204.995 140.969 204.922C140.823 204.849 140.703 204.745 140.604 204.615C140.51 204.484 140.453 204.339 140.427 204.177C140.401 204.016 140.411 203.859 140.464 203.708C140.625 203.208 140.854 202.74 141.151 202.307C141.312 202.073 141.526 201.932 141.802 201.885C142.078 201.833 142.333 201.885 142.562 202.042C142.792 202.203 142.937 202.417 142.984 202.693C143.036 202.969 142.984 203.219 142.828 203.453C142.641 203.724 142.495 204.016 142.391 204.333C142.323 204.542 142.203 204.708 142.026 204.839C141.849 204.969 141.646 205.031 141.427 205.031Z" fill="#183B5D"/>
<path d="M147.833 191.245C147.375 191.245 147.063 191.031 146.896 190.609C146.724 190.182 146.807 189.813 147.141 189.495L148.359 188.349C148.563 188.156 148.802 188.063 149.083 188.073C149.365 188.078 149.599 188.182 149.792 188.385C149.984 188.589 150.078 188.833 150.068 189.109C150.063 189.391 149.953 189.625 149.75 189.818L148.531 190.969C148.339 191.156 148.104 191.245 147.833 191.245Z" fill="#183B5D"/>
<path d="M117.401 250.865C125.01 243.714 136.474 240.896 146.521 243.854C149.333 244.615 151.88 245.896 154.167 247.703C154.901 248.307 155.578 248.969 156.198 249.693C143.302 251.411 130.37 251.802 117.401 250.865Z" fill="#FF6546"/>
<path d="M136.094 249.297C135.849 249.297 135.635 249.224 135.453 249.068C135.266 248.917 135.146 248.724 135.099 248.49C135.052 248.255 135.083 248.031 135.193 247.818C135.302 247.604 135.469 247.448 135.693 247.354C136.536 246.99 137.417 246.75 138.333 246.641C138.609 246.604 138.859 246.672 139.083 246.844C139.302 247.016 139.432 247.24 139.464 247.516C139.5 247.797 139.432 248.047 139.26 248.266C139.089 248.484 138.865 248.615 138.583 248.651C137.859 248.74 137.161 248.927 136.49 249.214C136.365 249.271 136.229 249.297 136.094 249.297Z" fill="#183B5D"/>
<path d="M77.5209 167.552C77.3282 167.552 77.1563 167.495 77 167.38C76.8438 167.266 76.7396 167.115 76.6875 166.932C76.0209 164.734 75.1667 162.615 74.1198 160.573C73.0729 158.531 71.8542 156.599 70.4584 154.776C69.0625 152.958 67.5104 151.271 65.8125 149.729C64.1146 148.188 62.2917 146.807 60.3386 145.594C60.1354 145.464 60.0104 145.286 59.9532 145.052C59.9011 144.818 59.9375 144.604 60.0625 144.401C60.1875 144.193 60.3646 144.068 60.599 144.01C60.8334 143.953 61.0521 143.99 61.2552 144.115C63.2917 145.385 65.2032 146.828 66.9792 148.443C68.7552 150.057 70.375 151.818 71.8386 153.724C73.2969 155.63 74.5729 157.651 75.6667 159.786C76.7657 161.922 77.6563 164.141 78.3542 166.438C78.4219 166.667 78.3959 166.885 78.2813 167.099C78.1667 167.307 77.9948 167.448 77.7657 167.516C77.6875 167.542 77.6042 167.552 77.5209 167.552Z" fill="#183B5D"/>
<path d="M76.453 163.266C72.7812 155.505 74.7395 149.094 81.3957 143.807C84.4791 151.161 82.9947 157.672 76.453 163.266Z" fill="#183B5D"/>
<path d="M76.8958 163.813C71.7604 156.953 65.2969 154.51 57.5 156.484C61.9219 163 68.7656 164.688 76.8958 163.813Z" fill="#183B5D"/>
<path d="M64.6459 164.88C62.3751 166.484 61.5053 169.562 61.8959 172.312C62.2866 175.062 63.7397 177.547 65.3491 179.812C69.8751 186.187 75.9689 191.547 83.1407 194.667C86.2084 196.005 89.5939 196.937 92.8959 196.396C95.7345 195.87 98.1564 194.568 100.162 192.5C102.125 190.464 103.609 188.125 104.63 185.49C108.745 175.38 106.531 163.005 99.1772 154.937C96.9272 152.474 94.0262 150.307 90.6928 150.099C86.0157 149.812 82.3439 153.193 79.9949 156.859C79.047 158.339 78.1355 159.865 76.8907 161.104C73.3959 164.562 68.3959 162.229 64.6459 164.88Z" fill="#FF6546"/>
<path d="M79.1771 171.615C78.8958 171.615 78.6562 171.516 78.4583 171.313C77.7448 170.594 77.0677 169.833 76.4323 169.042C76.2604 168.823 76.1875 168.573 76.2187 168.297C76.25 168.021 76.375 167.792 76.5937 167.62C76.8125 167.443 77.0625 167.37 77.3437 167.401C77.6198 167.432 77.8489 167.563 78.0208 167.781C78.6093 168.516 79.2343 169.219 79.901 169.885C80.2187 170.208 80.2916 170.573 80.1146 170.99C79.9427 171.406 79.6302 171.615 79.1771 171.615Z" fill="#183B5D"/>
<path d="M88.5209 162.24C88.0729 162.24 87.7656 162.031 87.5886 161.625C87.3073 160.958 86.9792 160.318 86.6094 159.693C86.4636 159.453 86.4219 159.198 86.4896 158.922C86.5573 158.651 86.7084 158.438 86.9531 158.292C87.1979 158.151 87.4531 158.109 87.7292 158.182C88 158.255 88.2084 158.411 88.3542 158.656C88.7709 159.354 89.1354 160.078 89.4584 160.828C89.5261 160.984 89.5469 161.146 89.5313 161.318C89.5208 161.49 89.4636 161.641 89.3698 161.786C89.2761 161.927 89.1511 162.036 89.0052 162.12C88.8542 162.198 88.6927 162.24 88.5209 162.24Z" fill="#183B5D"/>
<path d="M90.8959 172.474C90.474 172.474 90.1719 172.286 89.9844 171.911C89.6615 171.26 89.2605 170.661 88.7865 170.104C88.6042 169.896 88.5209 169.646 88.5417 169.37C88.5677 169.089 88.6823 168.859 88.8959 168.677C89.1094 168.495 89.3542 168.417 89.6355 168.437C89.9167 168.458 90.1459 168.578 90.3282 168.792C90.9063 169.469 91.4011 170.208 91.8021 171.005C91.9271 171.255 91.9427 171.516 91.8542 171.781C91.7657 172.047 91.599 172.24 91.349 172.365C91.2032 172.437 91.0521 172.474 90.8959 172.474Z" fill="#183B5D"/>
<path d="M84.9845 182.688C84.7501 182.688 84.5366 182.615 84.3543 182.469L82.7137 181.177C82.4949 181.005 82.3699 180.776 82.3387 180.5C82.3074 180.219 82.3751 179.974 82.5522 179.755C82.7241 179.531 82.9532 179.406 83.2293 179.375C83.5105 179.344 83.7553 179.417 83.9793 179.589L85.6147 180.88C85.7866 181.016 85.9012 181.182 85.9585 181.391C86.021 181.599 86.0157 181.802 85.9428 182.01C85.8751 182.214 85.7501 182.375 85.573 182.5C85.396 182.625 85.2032 182.688 84.9845 182.688Z" fill="#183B5D"/>
<path d="M69.7032 174.125C69.3543 174.125 69.0782 173.984 68.8751 173.698L67.5834 171.885C67.422 171.656 67.3647 171.406 67.4116 171.13C67.4584 170.854 67.5939 170.635 67.823 170.474C68.0522 170.313 68.3022 170.255 68.5782 170.297C68.8543 170.344 69.073 170.484 69.2397 170.714L70.5262 172.526C70.7657 172.859 70.7918 173.214 70.6043 173.578C70.4116 173.943 70.1147 174.125 69.7032 174.125Z" fill="#183B5D"/>
<path d="M98.5209 163.974C98.2865 163.974 98.0782 163.901 97.8907 163.755C97.7084 163.609 97.5886 163.422 97.5365 163.198C97.3438 162.391 97.0521 161.62 96.6667 160.885C96.5365 160.641 96.5157 160.38 96.599 160.115C96.6823 159.849 96.849 159.651 97.0938 159.521C97.3438 159.391 97.6042 159.365 97.8698 159.448C98.1354 159.531 98.3334 159.698 98.4636 159.948C98.9271 160.828 99.2761 161.755 99.5104 162.729C99.5729 163 99.5313 163.255 99.3854 163.495C99.2396 163.729 99.0313 163.88 98.7552 163.948C98.6771 163.964 98.599 163.974 98.5209 163.974Z" fill="#183B5D"/>
<path d="M101.719 178.365C101.443 178.365 101.208 178.266 101.011 178.073C100.813 177.88 100.714 177.651 100.708 177.375C100.688 176.667 100.573 175.979 100.359 175.307C100.276 175.042 100.297 174.786 100.427 174.536C100.557 174.292 100.755 174.125 101.021 174.036C101.287 173.953 101.547 173.974 101.792 174.104C102.042 174.234 102.208 174.427 102.292 174.698C102.568 175.552 102.714 176.427 102.734 177.323C102.745 177.604 102.651 177.844 102.458 178.047C102.261 178.25 102.026 178.354 101.745 178.365H101.719Z" fill="#183B5D"/>
<path d="M96.2656 186.792C96.0208 186.792 95.8073 186.714 95.6198 186.562L93.5573 184.875C93.3385 184.698 93.2135 184.469 93.1875 184.193C93.1615 183.911 93.2344 183.667 93.4115 183.448C93.5885 183.234 93.8177 183.109 94.099 183.083C94.375 183.052 94.625 183.13 94.8385 183.307L96.9063 184.995C97.0729 185.13 97.1823 185.302 97.2396 185.505C97.2969 185.714 97.2917 185.917 97.2188 186.12C97.1458 186.323 97.0208 186.484 96.849 186.604C96.6719 186.729 96.4792 186.792 96.2656 186.792Z" fill="#183B5D"/>
<path d="M90.198 193.318C90.0834 193.318 89.9688 193.302 89.8595 193.26C89.3647 193.083 88.9063 192.839 88.4793 192.531C88.2553 192.365 88.1199 192.146 88.0782 191.87C88.0365 191.589 88.0991 191.339 88.2605 191.115C88.4272 190.885 88.6511 190.755 88.9272 190.714C89.2032 190.667 89.4532 190.729 89.6824 190.896C89.9428 191.089 90.2293 191.24 90.5418 191.349C90.7709 191.432 90.9532 191.578 91.0782 191.792C91.2032 192.005 91.2449 192.234 91.2032 192.479C91.1615 192.719 91.0418 192.922 90.8543 193.078C90.6668 193.24 90.448 193.318 90.198 193.318Z" fill="#183B5D"/>
<path d="M76.6457 186.531C76.3436 186.536 76.0936 186.422 75.8905 186.193L74.7759 184.948C74.5936 184.734 74.5051 184.495 74.5259 184.214C74.5416 183.932 74.6561 183.703 74.8645 183.516C75.0728 183.328 75.3176 183.245 75.5989 183.26C75.8749 183.276 76.1093 183.391 76.2968 183.599L77.4061 184.844C77.6978 185.172 77.7551 185.536 77.5728 185.932C77.3957 186.333 77.0884 186.531 76.6457 186.531Z" fill="#183B5D"/>
<path d="M196.578 147.812C196.484 148.771 196.188 149.651 195.677 150.464C195.167 151.276 194.5 151.927 193.677 152.427C192.839 152.906 191.938 153.125 190.969 153.089C190.005 153.052 189.12 152.766 188.323 152.224C187.943 151.943 187.615 151.609 187.344 151.224C187.068 150.833 186.865 150.417 186.734 149.958C186.599 149.505 186.536 149.047 186.557 148.573C186.573 148.099 186.667 147.641 186.833 147.198C185.99 148.068 184.984 148.661 183.813 148.974C182.646 149.281 181.474 149.271 180.313 148.937C178.057 148.219 176.344 145.932 176.479 143.568C176.615 141.208 178.734 139.073 181.104 139.099C179.432 137.937 177.635 136.604 177.172 134.625C176.646 132.37 178.276 129.922 180.5 129.286C182.729 128.646 185.255 129.687 186.615 131.557C186.656 129.859 187.161 128.312 188.13 126.911C188.693 126 189.49 125.375 190.516 125.042C191.469 124.844 192.375 124.979 193.234 125.437C193.938 125.766 194.542 126.224 195.052 126.812C195.557 127.401 195.922 128.062 196.146 128.807C196.354 129.557 196.354 130.312 196.146 131.062C195.943 131.818 195.552 132.464 194.99 133.005C196.875 131.687 199.734 132.151 201.214 133.911C202.688 135.672 202.693 138.453 201.333 140.307C200.849 140.937 200.26 141.448 199.568 141.839C198.875 142.229 198.135 142.469 197.344 142.562C196.917 142.615 195.297 142.828 195.297 142.828C195.297 142.828 195.703 143.62 195.813 143.833C195.995 144.208 196.151 144.589 196.276 144.984C196.568 145.906 196.672 146.849 196.578 147.812Z" fill="#FDBA40"/>
<path d="M186.984 141.271C186.63 141 186.339 140.677 186.115 140.292C185.891 139.906 185.75 139.495 185.688 139.052C185.63 138.615 185.656 138.177 185.771 137.75C185.88 137.318 186.073 136.927 186.344 136.573C186.609 136.219 186.938 135.927 187.323 135.703C187.708 135.479 188.12 135.339 188.563 135.281C189.005 135.219 189.438 135.245 189.87 135.359C190.302 135.474 190.693 135.661 191.047 135.932C191.401 136.203 191.693 136.526 191.917 136.911C192.141 137.297 192.281 137.708 192.344 138.146C192.401 138.589 192.375 139.021 192.266 139.453C192.151 139.885 191.958 140.276 191.688 140.63C191.422 140.984 191.094 141.271 190.708 141.495C190.323 141.719 189.911 141.865 189.469 141.922C189.031 141.984 188.594 141.958 188.161 141.844C187.729 141.729 187.339 141.542 186.984 141.271Z" fill="#183B5D"/>
<path d="M85.9637 103.141C86.9272 103.182 87.823 103.432 88.6668 103.896C89.5053 104.359 90.198 104.99 90.7397 105.781C91.2657 106.589 91.5366 107.474 91.5522 108.443C91.5678 109.406 91.3282 110.302 90.8282 111.13C90.5678 111.526 90.2553 111.87 89.8803 112.161C89.5105 112.453 89.0991 112.677 88.6564 112.839C88.2084 113 87.7501 113.083 87.2762 113.089C86.8022 113.099 86.3387 113.031 85.8855 112.891C86.8022 113.682 87.448 114.651 87.8282 115.802C88.2032 116.953 88.2553 118.115 87.9845 119.297C87.3855 121.583 85.198 123.417 82.8282 123.411C80.4584 123.406 78.2032 121.411 78.0991 119.047C77.0366 120.776 75.797 122.641 73.8439 123.214C71.6199 123.859 69.0834 122.37 68.3178 120.187C67.5574 118.005 68.4637 115.427 70.2605 113.969C68.5574 114.021 66.9793 113.599 65.5262 112.714C64.5834 112.198 63.9116 111.443 63.5262 110.437C63.2762 109.495 63.3595 108.583 63.7709 107.703C64.0626 106.984 64.4897 106.359 65.047 105.818C65.6043 105.281 66.2501 104.88 66.9793 104.62C67.7189 104.37 68.4741 104.328 69.2397 104.49C70.0001 104.656 70.672 105.005 71.2397 105.542C69.823 103.729 70.1251 100.854 71.8074 99.2864C73.4897 97.7135 76.2709 97.5573 78.198 98.8177C78.8543 99.2604 79.3959 99.8229 79.823 100.49C80.2553 101.156 80.5366 101.88 80.672 102.667C80.7449 103.089 81.047 104.693 81.047 104.693C81.047 104.693 81.8178 104.245 82.0314 104.125C82.3907 103.922 82.7657 103.745 83.1564 103.599C84.0626 103.255 84.9949 103.104 85.9637 103.141Z" fill="#FDBA40"/>
<path d="M79.9479 113.063C79.6979 113.432 79.3853 113.74 79.0156 113.984C78.6458 114.229 78.2395 114.396 77.802 114.479C77.3645 114.563 76.927 114.563 76.4947 114.469C76.0572 114.38 75.6562 114.214 75.2864 113.964C74.9166 113.714 74.6093 113.406 74.3645 113.031C74.1197 112.661 73.9531 112.26 73.8697 111.823C73.7864 111.385 73.7864 110.948 73.8749 110.516C73.9635 110.078 74.1353 109.677 74.3853 109.307C74.6353 108.943 74.9426 108.635 75.3176 108.391C75.6874 108.146 76.0937 107.979 76.5312 107.896C76.9687 107.813 77.4062 107.813 77.8385 107.901C78.276 107.99 78.677 108.161 79.0468 108.411C79.4166 108.661 79.7239 108.969 79.9687 109.339C80.2135 109.714 80.3801 110.115 80.4635 110.552C80.5468 110.99 80.5468 111.422 80.4583 111.859C80.3645 112.297 80.1979 112.698 79.9479 113.063Z" fill="#183B5D"/>
<path d="M181.667 79.3229C180.937 79.4427 180.219 79.3854 179.516 79.1615C178.812 78.9427 178.198 78.5729 177.667 78.0573C177.151 77.526 176.812 76.901 176.651 76.1719C176.495 75.4479 176.536 74.7396 176.786 74.0365C176.922 73.7031 177.109 73.3958 177.344 73.1198C177.583 72.8438 177.854 72.6094 178.167 72.4219C178.479 72.2344 178.812 72.1042 179.172 72.026C179.526 71.9479 179.885 71.9271 180.245 71.9635C179.437 71.5052 178.802 70.8698 178.344 70.0625C177.885 69.2552 177.672 68.3854 177.693 67.4531C177.724 67 177.823 66.5625 177.99 66.1354C178.161 65.7135 178.391 65.3281 178.687 64.9792C178.979 64.625 179.323 64.3333 179.708 64.0938C180.099 63.8542 180.516 63.6771 180.958 63.5729C182.745 63.2188 184.745 64.3802 185.182 66.1458C185.724 64.6823 186.375 63.0885 187.76 62.3646C189.338 61.5417 191.479 62.276 192.38 63.8073C193.286 65.3385 192.995 67.4167 191.865 68.7917C193.141 68.4948 194.391 68.5677 195.62 69.0156C196.411 69.2604 197.031 69.7292 197.474 70.4271C197.807 71.099 197.88 71.8021 197.703 72.526C197.474 73.7552 196.823 74.6927 195.755 75.3385C195.234 75.6354 194.672 75.7813 194.073 75.776C193.469 75.7656 192.911 75.6042 192.401 75.2865C192.724 75.5885 192.984 75.9375 193.187 76.3385C193.385 76.7344 193.505 77.151 193.552 77.5885C193.604 78.0313 193.573 78.4635 193.463 78.8958C193.354 79.3229 193.177 79.724 192.922 80.0885C192.651 80.4375 192.333 80.7396 191.963 80.9844C191.599 81.2344 191.198 81.4167 190.771 81.5365C190.344 81.6563 189.906 81.7031 189.463 81.6823C189.021 81.6563 188.594 81.5677 188.182 81.4063C187.005 80.9115 186.187 80.0677 185.729 78.8802C185.609 78.5729 185.135 77.4063 185.135 77.4063C185.135 77.4063 184.625 77.8646 184.484 77.9844C184.245 78.1927 183.99 78.3802 183.719 78.5521C183.088 78.9479 182.401 79.2083 181.667 79.3229Z" fill="#FDBA40"/>
<path d="M184.698 70.9375C184.828 70.6198 185.016 70.3437 185.26 70.1042C185.5 69.8594 185.781 69.6771 186.099 69.5469C186.417 69.4167 186.745 69.3542 187.089 69.3542C187.432 69.3542 187.76 69.4219 188.073 69.5521C188.391 69.6875 188.667 69.875 188.912 70.1146C189.151 70.3594 189.339 70.6406 189.469 70.9531C189.594 71.2708 189.662 71.5989 189.662 71.9427C189.656 72.2812 189.594 72.6094 189.458 72.9271C189.328 73.2448 189.141 73.5208 188.896 73.7604C188.651 74 188.375 74.1875 188.057 74.3177C187.74 74.4479 187.412 74.5104 187.068 74.5104C186.724 74.5052 186.396 74.4427 186.083 74.3073C185.766 74.1771 185.484 73.9896 185.245 73.7448C185.005 73.5052 184.818 73.2239 184.688 72.9062C184.557 72.5937 184.495 72.2656 184.495 71.9219C184.5 71.5781 184.563 71.25 184.698 70.9375Z" fill="#183B5D"/>
<path d="M93.2291 236.344C92.4114 236.849 91.5259 237.146 90.5676 237.229C89.6145 237.318 88.6874 237.182 87.7968 236.828C86.9062 236.453 86.1822 235.87 85.6301 235.078C85.0728 234.292 84.7707 233.411 84.7187 232.448C84.7082 231.974 84.7812 231.516 84.9218 231.062C85.0676 230.615 85.2812 230.198 85.5624 229.818C85.8384 229.437 86.1718 229.109 86.5624 228.839C86.9478 228.562 87.3697 228.359 87.8228 228.224C85.4739 227.932 83.2812 226.323 82.4947 224.094C81.703 221.865 82.4895 219.12 84.453 217.797C86.4218 216.479 89.4062 216.87 90.8176 218.771C90.7343 216.74 90.7134 214.505 92.0103 212.937C93.4895 211.156 96.427 210.969 98.2812 212.354C100.135 213.74 100.833 216.375 100.167 218.594C101.547 217.599 103.088 217.062 104.786 216.984C105.859 216.88 106.838 217.135 107.724 217.75C108.458 218.391 108.901 219.187 109.052 220.151C109.213 220.911 109.219 221.667 109.057 222.422C108.896 223.182 108.583 223.875 108.13 224.5C107.656 225.12 107.057 225.578 106.328 225.87C105.604 226.161 104.854 226.245 104.083 226.12C106.271 226.823 107.635 229.375 107.12 231.62C106.609 233.859 104.396 235.547 102.094 235.583C101.302 235.578 100.536 235.422 99.8072 235.104C99.078 234.792 98.4374 234.349 97.8853 233.776C97.5832 233.469 96.4322 232.307 96.4322 232.307C96.4322 232.307 96.0468 233.109 95.9426 233.328C95.7551 233.698 95.5468 234.052 95.302 234.391C94.7447 235.187 94.052 235.833 93.2291 236.344Z" fill="#FDBA40"/>
<path d="M99.3593 224.76C99.3593 225.203 99.276 225.63 99.1041 226.042C98.9322 226.453 98.6926 226.818 98.3749 227.13C98.0624 227.443 97.6978 227.688 97.2864 227.854C96.8749 228.026 96.4478 228.109 96.0051 228.109C95.5572 228.109 95.1301 228.026 94.7187 227.854C94.3072 227.688 93.9426 227.443 93.6301 227.13C93.3124 226.818 93.0728 226.453 92.901 226.042C92.7291 225.63 92.6458 225.203 92.6458 224.76C92.6458 224.313 92.7291 223.885 92.901 223.474C93.0728 223.068 93.3124 222.703 93.6301 222.391C93.9426 222.073 94.3072 221.833 94.7187 221.661C95.1301 221.49 95.5572 221.406 96.0051 221.406C96.4478 221.406 96.8749 221.49 97.2864 221.661C97.6978 221.833 98.0624 222.073 98.3749 222.391C98.6926 222.703 98.9322 223.068 99.1041 223.474C99.276 223.885 99.3593 224.313 99.3593 224.76Z" fill="#183B5D"/>
<path d="M140.333 163.849C140.792 164.594 141.062 165.396 141.141 166.26C141.214 167.13 141.094 167.969 140.771 168.776C140.432 169.583 139.901 170.24 139.182 170.74C138.464 171.245 137.667 171.521 136.792 171.568C136.359 171.573 135.943 171.51 135.531 171.38C135.12 171.25 134.745 171.057 134.396 170.802C134.052 170.552 133.75 170.25 133.505 169.896C133.255 169.547 133.073 169.167 132.948 168.755C132.818 169.844 132.417 170.823 131.74 171.687C131.068 172.557 130.219 173.187 129.193 173.589C127.161 174.302 124.667 173.589 123.464 171.807C122.266 170.026 122.62 167.318 124.349 166.036C122.505 166.115 120.469 166.135 119.047 164.958C117.427 163.62 117.255 160.958 118.516 159.271C119.776 157.589 122.172 156.958 124.187 157.562C123.286 156.312 122.797 154.917 122.729 153.375C122.63 152.401 122.865 151.516 123.422 150.714C124.005 150.047 124.734 149.646 125.609 149.505C126.297 149.359 126.984 149.359 127.677 149.505C128.365 149.651 128.995 149.932 129.562 150.344C130.13 150.776 130.542 151.318 130.807 151.979C131.073 152.635 131.151 153.312 131.036 154.016C131.677 152.026 134 150.797 136.036 151.26C136.542 151.391 137.016 151.604 137.453 151.891C137.891 152.177 138.271 152.526 138.599 152.937C138.922 153.349 139.177 153.802 139.354 154.292C139.531 154.786 139.63 155.292 139.641 155.818C139.635 157.318 139.089 158.594 138 159.63C137.719 159.906 136.661 160.948 136.661 160.948C136.661 160.948 137.396 161.297 137.594 161.396C137.927 161.562 138.25 161.755 138.557 161.974C139.281 162.479 139.87 163.104 140.333 163.849Z" fill="#FDBA40"/>
<path d="M132.844 161.333C132.844 161.74 132.771 162.13 132.615 162.5C132.458 162.875 132.24 163.203 131.953 163.49C131.667 163.776 131.339 163.995 130.964 164.146C130.589 164.302 130.203 164.38 129.797 164.38C129.391 164.38 129.005 164.302 128.63 164.146C128.255 163.995 127.927 163.776 127.641 163.49C127.354 163.203 127.135 162.875 126.979 162.5C126.823 162.13 126.75 161.74 126.75 161.333C126.75 160.932 126.823 160.542 126.979 160.172C127.135 159.797 127.354 159.469 127.641 159.182C127.927 158.896 128.255 158.677 128.63 158.521C129.005 158.37 129.391 158.292 129.797 158.292C130.203 158.292 130.589 158.37 130.964 158.521C131.339 158.677 131.667 158.896 131.953 159.182C132.24 159.469 132.458 159.797 132.615 160.172C132.771 160.542 132.844 160.932 132.844 161.333Z" fill="#183B5D"/>
<path d="M208.828 227.578V228.214C208.823 229.271 208.661 230.307 208.344 231.312C208.021 232.323 207.557 233.26 206.953 234.13C206.349 235 205.625 235.755 204.792 236.406C203.953 237.052 203.036 237.562 202.047 237.937C198.417 239.344 194.76 240.62 191.13 241.792C190.495 241.703 189.891 241.516 189.318 241.224C187.203 240.151 185.896 237.599 186.432 235.286C186.969 232.974 189.385 231.229 191.734 231.667C190.292 230.224 188.713 228.615 188.615 226.573C188.448 224.292 190.458 222.146 192.776 221.88C195.062 221.609 197.38 223.052 198.417 225.13C198.74 223.458 199.5 222.016 200.703 220.807C201.406 220.068 202.318 219.432 203.354 219.365C204.333 219.318 205.208 219.599 205.974 220.203C206.609 220.641 207.13 221.193 207.531 221.854C207.937 222.51 208.187 223.224 208.292 223.99C208.37 224.766 208.24 225.51 207.911 226.219C207.578 226.927 207.088 227.505 206.448 227.948C207.203 227.599 208 227.479 208.828 227.578Z" fill="#FDBA40"/>
<path d="M197.172 234.766C196.864 234.443 196.635 234.073 196.479 233.656C196.318 233.24 196.25 232.813 196.26 232.365C196.276 231.922 196.375 231.495 196.557 231.094C196.739 230.688 196.995 230.333 197.318 230.026C197.646 229.724 198.016 229.49 198.432 229.333C198.849 229.177 199.281 229.104 199.724 229.12C200.167 229.135 200.594 229.234 201 229.417C201.406 229.599 201.76 229.854 202.068 230.177C202.37 230.5 202.604 230.87 202.76 231.286C202.917 231.703 202.989 232.13 202.974 232.578C202.958 233.021 202.859 233.448 202.677 233.849C202.495 234.255 202.239 234.609 201.917 234.917C201.594 235.219 201.219 235.448 200.807 235.609C200.391 235.766 199.958 235.839 199.51 235.823C199.068 235.807 198.641 235.708 198.234 235.526C197.828 235.344 197.474 235.089 197.172 234.766Z" fill="#183B5D"/>
<mask id="mask1_1_842" style="mask-type:luminance" maskUnits="userSpaceOnUse" x="55" y="33" width="155" height="38">
<path d="M55 33H209.708V70.4896H55V33Z" fill="white"/>
</mask>
<g mask="url(#mask1_1_842)">
<path d="M208.828 51.099C208.828 61.099 174.401 69.2031 131.932 69.2031C89.4635 69.2031 55.0364 61.099 55.0364 51.099C55.0364 41.1042 89.4635 33 131.932 33C174.401 33 208.828 41.1042 208.828 51.099Z" fill="white"/>
</g>
<path d="M131.932 70.3594C94.2343 70.3594 62.8177 64.1666 55.5364 55.2864C55.3333 55.0416 55.2447 54.7552 55.2812 54.4375C55.3125 54.1198 55.4479 53.8594 55.6979 53.6562C55.9479 53.4531 56.2291 53.3698 56.5468 53.401C56.8697 53.4323 57.1302 53.5729 57.3333 53.8177C64.0937 62.0625 95.4687 68.0469 131.932 68.0469C168.953 68.0469 201.177 61.7239 206.896 53.3385C207.073 53.0781 207.323 52.9166 207.635 52.8541C207.953 52.7969 208.24 52.8542 208.505 53.0364C208.771 53.2135 208.932 53.4635 208.995 53.776C209.052 54.0885 208.99 54.3802 208.812 54.6458C202.599 63.75 170.266 70.3594 131.932 70.3594Z" fill="#183B5D"/>
<path d="M193.682 49.8646C193.682 55.2552 166.037 59.6302 131.932 59.6302C97.8282 59.6302 70.1824 55.2552 70.1824 49.8646C70.1824 44.4687 97.8282 40.0989 131.932 40.0989C166.037 40.0989 193.682 44.4687 193.682 49.8646Z" fill="#FDBA40"/>
<path d="M208.828 95.9479C208.51 95.9479 208.234 95.8333 208.01 95.6094C207.781 95.3802 207.672 95.1094 207.667 94.7864V81.375C207.667 81.0521 207.781 80.7812 208.01 80.5573C208.234 80.3281 208.51 80.2135 208.828 80.2135C209.151 80.2135 209.422 80.3281 209.651 80.5573C209.875 80.7812 209.99 81.0521 209.99 81.375V94.7864C209.99 95.1094 209.875 95.3802 209.651 95.6094C209.422 95.8333 209.151 95.9479 208.828 95.9479Z" fill="#183B5D"/>
<path d="M208.828 191.37C208.51 191.37 208.234 191.26 208.01 191.031C207.781 190.807 207.672 190.531 207.667 190.214V175.599C207.667 175.276 207.781 175.005 208.01 174.781C208.234 174.552 208.51 174.438 208.828 174.438C209.151 174.438 209.422 174.552 209.651 174.781C209.875 175.005 209.99 175.276 209.99 175.599V190.214C209.99 190.531 209.875 190.807 209.651 191.031C209.422 191.26 209.151 191.37 208.828 191.37Z" fill="#183B5D"/>
</svg>
