<svg width="184" height="35" viewBox="0 0 184 35" fill="none" xmlns="http://www.w3.org/2000/svg">
<path d="M6.0906 34.3754C4.17209 34.3754 2.71236 33.6942 1.71141 32.3317C0.738253 30.9693 0.251676 28.7867 0.251676 25.7838V18.4017C0.251676 16.7335 0.432405 15.232 0.793861 13.8974C1.18312 12.5628 1.79482 11.5063 2.62895 10.7277C3.46308 9.92141 4.58916 9.51824 6.00718 9.51824C6.86912 9.51824 7.66154 9.69897 8.38446 10.0604C9.13518 10.3941 9.81638 10.8389 10.4281 11.395V0.217676H16.1002V34H10.4281V32.29C9.78858 32.9295 9.10737 33.4439 8.38446 33.8332C7.66154 34.1946 6.89692 34.3754 6.0906 34.3754ZM8.17592 30.4549C8.48177 30.4549 8.82933 30.3854 9.21859 30.2464C9.60785 30.1074 10.011 29.9128 10.4281 29.6625V14.1894C10.0944 13.9669 9.73297 13.7862 9.34371 13.6472C8.95445 13.4804 8.55128 13.397 8.13422 13.397C7.32789 13.397 6.7579 13.7723 6.42425 14.523C6.1184 15.2459 5.96548 16.1357 5.96548 17.1923V26.2009C5.96548 27.0072 6.02109 27.7301 6.1323 28.3696C6.24352 29.0091 6.45205 29.5235 6.7579 29.9128C7.09155 30.2742 7.56423 30.4549 8.17592 30.4549ZM27.6803 34.3754C25.873 34.3754 24.3993 34.0417 23.2594 33.3744C22.1194 32.6793 21.2714 31.6783 20.7153 30.3715C20.187 29.0369 19.9228 27.4382 19.9228 25.5753V18.3183C19.9228 16.3998 20.187 14.7872 20.7153 13.4804C21.2714 12.1736 22.1194 11.1865 23.2594 10.5192C24.4272 9.8519 25.9008 9.51824 27.6803 9.51824C29.5988 9.51824 31.0863 9.8797 32.1429 10.6026C33.2272 11.3255 33.9919 12.3821 34.4367 13.7723C34.9094 15.1347 35.1457 16.803 35.1457 18.7771V22.197H25.5532V26.9516C25.5532 27.7301 25.6227 28.3696 25.7618 28.8701C25.9286 29.3706 26.1788 29.732 26.5125 29.9545C26.8461 30.1769 27.2493 30.2881 27.722 30.2881C28.2224 30.2881 28.6256 30.1769 28.9315 29.9545C29.2373 29.7042 29.4597 29.3567 29.5988 28.9118C29.7378 28.4391 29.8073 27.8552 29.8073 27.1601V25.1582H35.104V26.7848C35.104 29.2315 34.4923 31.1083 33.2689 32.4152C32.0456 33.722 30.1827 34.3754 27.6803 34.3754ZM25.5532 19.4027H29.8073V17.1088C29.8073 16.2747 29.7378 15.6074 29.5988 15.1069C29.4597 14.5786 29.2373 14.2033 28.9315 13.9808C28.6256 13.7306 28.1946 13.6055 27.6386 13.6055C27.1381 13.6055 26.7349 13.7306 26.4291 13.9808C26.1232 14.2311 25.9008 14.6482 25.7618 15.232C25.6227 15.8159 25.5532 16.6501 25.5532 17.7344V19.4027ZM42.1228 34L37.3265 9.8936H42.8735L45.3342 27.2018L47.7532 9.8936H53.2167L48.4205 34H42.1228ZM54.3855 34V28.2862H59.8908V34H54.3855ZM74.0208 34.3754C73.1311 34.3754 72.297 34.1668 71.5184 33.7498C70.7399 33.3327 70.017 32.8183 69.3497 32.2066V34H63.6776V0.217676H69.3497V11.7287C70.0448 11.0614 70.7955 10.5331 71.6018 10.1438C72.436 9.72678 73.3257 9.51824 74.2711 9.51824C75.3554 9.51824 76.2452 9.76848 76.9403 10.269C77.6354 10.7694 78.1776 11.4367 78.5668 12.2709C78.9561 13.0772 79.2202 13.953 79.3593 14.8984C79.5261 15.8159 79.6095 16.7057 79.6095 17.5676V25.7421C79.6095 27.3269 79.4149 28.7728 79.0256 30.0796C78.6642 31.3864 78.0664 32.4291 77.2322 33.2076C76.4259 33.9861 75.3554 34.3754 74.0208 34.3754ZM71.8521 30.4132C72.4638 30.4132 72.9087 30.2186 73.1867 29.8293C73.4925 29.4123 73.6872 28.8701 73.7706 28.2028C73.8818 27.5077 73.9374 26.757 73.9374 25.9506V17.3174C73.9374 16.5667 73.8818 15.8993 73.7706 15.3155C73.6594 14.7038 73.4508 14.2172 73.145 13.8557C72.8669 13.4943 72.4221 13.3135 71.8104 13.3135C71.3655 13.3135 70.9345 13.4248 70.5175 13.6472C70.1004 13.8418 69.7111 14.0643 69.3497 14.3145V29.5374C69.7111 29.7876 70.1004 29.9962 70.5175 30.163C70.9623 30.3298 71.4072 30.4132 71.8521 30.4132ZM83.887 34V0.217676H89.5174V34H83.887ZM98.0236 34.3754C96.9392 34.3754 95.9939 34.0973 95.1876 33.5412C94.409 32.9573 93.8112 32.2344 93.3942 31.3725C92.9771 30.4827 92.7686 29.5652 92.7686 28.6199C92.7686 27.1184 93.0466 25.8533 93.6027 24.8246C94.1588 23.7958 94.8956 22.9339 95.8132 22.2387C96.7585 21.5436 97.8012 20.9458 98.9412 20.4454C100.109 19.9171 101.305 19.4444 102.528 19.0273V16.942C102.528 16.2469 102.472 15.663 102.361 15.1903C102.278 14.7177 102.097 14.3562 101.819 14.106C101.541 13.8557 101.138 13.7306 100.609 13.7306C100.109 13.7306 99.7058 13.8418 99.3999 14.0643C99.1219 14.2867 98.9133 14.6064 98.7743 15.0235C98.6631 15.4128 98.6075 15.8715 98.6075 16.3998L98.5241 17.8596L93.1022 17.651C93.2135 14.8706 93.9086 12.827 95.1876 11.5202C96.4666 10.1855 98.4268 9.51824 101.068 9.51824C103.487 9.51824 105.253 10.1855 106.365 11.5202C107.477 12.8548 108.033 14.6621 108.033 16.942V28.0777C108.033 28.9674 108.047 29.7737 108.075 30.4966C108.131 31.2196 108.186 31.873 108.242 32.4569C108.325 33.0407 108.395 33.5551 108.45 34H103.32C103.237 33.4439 103.14 32.8183 103.028 32.1232C102.917 31.4003 102.834 30.872 102.778 30.5384C102.5 31.5115 101.972 32.4012 101.193 33.2076C100.415 33.9861 99.3582 34.3754 98.0236 34.3754ZM100.109 30.163C100.47 30.163 100.804 30.0796 101.11 29.9128C101.416 29.7181 101.694 29.4957 101.944 29.2455C102.194 28.9952 102.389 28.7728 102.528 28.5781V21.8634C101.888 22.2248 101.291 22.5863 100.735 22.9478C100.206 23.3092 99.7475 23.7124 99.3582 24.1572C98.969 24.5743 98.6631 25.0331 98.4407 25.5336C98.2182 26.034 98.107 26.6179 98.107 27.2852C98.107 28.175 98.2738 28.884 98.6075 29.4123C98.969 29.9128 99.4694 30.163 100.109 30.163ZM116.148 34.3754C115.064 34.3754 114.118 34.0973 113.312 33.5412C112.533 32.9573 111.936 32.2344 111.519 31.3725C111.102 30.4827 110.893 29.5652 110.893 28.6199C110.893 27.1184 111.171 25.8533 111.727 24.8246C112.283 23.7958 113.02 22.9339 113.938 22.2387C114.883 21.5436 115.926 20.9458 117.066 20.4454C118.233 19.9171 119.429 19.4444 120.652 19.0273V16.942C120.652 16.2469 120.597 15.663 120.486 15.1903C120.402 14.7177 120.221 14.3562 119.943 14.106C119.665 13.8557 119.262 13.7306 118.734 13.7306C118.233 13.7306 117.83 13.8418 117.524 14.0643C117.246 14.2867 117.038 14.6064 116.899 15.0235C116.788 15.4128 116.732 15.8715 116.732 16.3998L116.649 17.8596L111.227 17.651C111.338 14.8706 112.033 12.827 113.312 11.5202C114.591 10.1855 116.551 9.51824 119.193 9.51824C121.612 9.51824 123.377 10.1855 124.489 11.5202C125.602 12.8548 126.158 14.6621 126.158 16.942V28.0777C126.158 28.9674 126.172 29.7737 126.199 30.4966C126.255 31.2196 126.311 31.873 126.366 32.4569C126.45 33.0407 126.519 33.5551 126.575 34H121.445C121.361 33.4439 121.264 32.8183 121.153 32.1232C121.042 31.4003 120.958 30.872 120.903 30.5384C120.625 31.5115 120.096 32.4012 119.318 33.2076C118.539 33.9861 117.483 34.3754 116.148 34.3754ZM118.233 30.163C118.595 30.163 118.928 30.0796 119.234 29.9128C119.54 29.7181 119.818 29.4957 120.068 29.2455C120.319 28.9952 120.513 28.7728 120.652 28.5781V21.8634C120.013 22.2248 119.415 22.5863 118.859 22.9478C118.331 23.3092 117.872 23.7124 117.483 24.1572C117.093 24.5743 116.788 25.0331 116.565 25.5336C116.343 26.034 116.231 26.6179 116.231 27.2852C116.231 28.175 116.398 28.884 116.732 29.4123C117.093 29.9128 117.594 30.163 118.233 30.163ZM130.352 34V0.217676H136.024V12.1875C136.858 11.3533 137.762 10.6999 138.735 10.2273C139.736 9.75458 140.82 9.51824 141.988 9.51824C142.961 9.51824 143.74 9.76848 144.324 10.269C144.908 10.7416 145.339 11.3811 145.617 12.1875C145.895 12.9938 146.034 13.8696 146.034 14.815V34H140.362V15.9411C140.362 15.2181 140.25 14.6621 140.028 14.2728C139.806 13.8835 139.375 13.6889 138.735 13.6889C138.346 13.6889 137.901 13.8001 137.4 14.0226C136.928 14.245 136.469 14.5369 136.024 14.8984V34H130.352ZM157.442 34.3754C155.579 34.3754 154.078 34.0278 152.938 33.3327C151.826 32.6098 151.005 31.5949 150.477 30.2881C149.977 28.9535 149.726 27.3826 149.726 25.5753V18.3183C149.726 16.4554 149.977 14.8706 150.477 13.5638C151.005 12.257 151.84 11.256 152.98 10.5609C154.119 9.8658 155.607 9.51824 157.442 9.51824C159.166 9.51824 160.57 9.79629 161.654 10.3524C162.767 10.8807 163.573 11.7009 164.073 12.8131C164.574 13.8974 164.824 15.2737 164.824 16.942V18.9439H159.486V16.8169C159.486 15.9828 159.416 15.3294 159.277 14.8567C159.166 14.3562 158.957 14.0086 158.652 13.814C158.346 13.5916 157.943 13.4804 157.442 13.4804C156.942 13.4804 156.538 13.6194 156.233 13.8974C155.927 14.1477 155.704 14.5647 155.565 15.1486C155.454 15.7325 155.398 16.5388 155.398 17.5676V26.4094C155.398 27.9664 155.565 29.023 155.899 29.5791C156.233 30.1074 156.761 30.3715 157.484 30.3715C158.04 30.3715 158.457 30.2464 158.735 29.9962C159.041 29.7459 159.235 29.3845 159.319 28.9118C159.43 28.4113 159.486 27.8135 159.486 27.1184V24.5326H164.824V26.8265C164.824 28.4391 164.56 29.8154 164.032 30.9554C163.531 32.0954 162.725 32.9573 161.613 33.5412C160.528 34.0973 159.138 34.3754 157.442 34.3754ZM175.771 34.3754C174.019 34.3754 172.574 34.0556 171.434 33.4161C170.294 32.7488 169.432 31.7896 168.848 30.5384C168.292 29.2872 168.014 27.7718 168.014 25.9923V17.9013C168.014 16.1218 168.292 14.6064 168.848 13.3552C169.432 12.104 170.294 11.1587 171.434 10.5192C172.574 9.8519 174.019 9.51824 175.771 9.51824C177.523 9.51824 178.969 9.8519 180.109 10.5192C181.276 11.1587 182.138 12.104 182.694 13.3552C183.278 14.6064 183.57 16.1218 183.57 17.9013V25.9923C183.57 27.7718 183.278 29.2872 182.694 30.5384C182.138 31.7896 181.276 32.7488 180.109 33.4161C178.969 34.0556 177.523 34.3754 175.771 34.3754ZM175.813 30.4549C176.452 30.4549 176.925 30.2742 177.231 29.9128C177.537 29.5513 177.731 29.0647 177.815 28.453C177.898 27.8135 177.94 27.1184 177.94 26.3677V17.5259C177.94 16.7752 177.898 16.094 177.815 15.4823C177.731 14.8706 177.537 14.384 177.231 14.0226C176.925 13.6333 176.452 13.4387 175.813 13.4387C175.173 13.4387 174.701 13.6333 174.395 14.0226C174.089 14.384 173.88 14.8706 173.769 15.4823C173.686 16.094 173.644 16.7752 173.644 17.5259V26.3677C173.644 27.1184 173.686 27.8135 173.769 28.453C173.88 29.0647 174.089 29.5513 174.395 29.9128C174.701 30.2742 175.173 30.4549 175.813 30.4549Z" fill="#1C1C1C" fill-opacity="0.8"/>
</svg>
