<svg width="558" height="691" viewBox="0 0 558 691" fill="none" xmlns="http://www.w3.org/2000/svg">
<mask id="mask0_1_1321" style="mask-type:luminance" maskUnits="userSpaceOnUse" x="160" y="294" width="312" height="362">
<path d="M160 294.667H471.224V655.521H160V294.667Z" fill="white"/>
</mask>
<g mask="url(#mask0_1_1321)">
<path d="M200.344 334.073L160.833 431.88L283.094 655.432L471.297 564.292L361.37 347.542L275.818 295.557L200.344 334.073Z" fill="white"/>
</g>
<mask id="mask1_1_1321" style="mask-type:luminance" maskUnits="userSpaceOnUse" x="53" y="50" width="221" height="301">
<path d="M53.3333 50.8177H273.333V350.667H53.3333V50.8177Z" fill="white"/>
</mask>
<g mask="url(#mask1_1_1321)">
<path d="M253.026 350.568C252.193 350.568 251.359 350.24 250.75 349.578C246.745 345.271 175.359 267.646 169.125 196.958C144.099 192.188 119.396 179.359 97.8489 159.245C64 127.635 47.5364 86.1146 55.901 53.4636C56.3333 51.7969 58.0416 50.8125 59.6927 51.224C61.3541 51.6459 62.3593 53.3438 61.9323 55.0105C54.1198 85.4896 69.8854 124.62 102.099 154.698C122.312 173.573 145.385 185.745 168.745 190.531C168.099 169.563 173.635 149.422 188.885 132.271C216.891 100.766 240.656 105.604 249.583 109.146C263.625 114.724 272.755 128.875 272.302 144.37C271.677 165.672 254.135 184.068 225.38 193.578C209.417 198.859 192.615 200.266 175.833 198.047C183.203 266.938 254.349 344.307 255.302 345.339C256.474 346.594 256.406 348.563 255.146 349.734C254.547 350.292 253.786 350.568 253.026 350.568ZM175.339 191.688C191.646 194.037 207.953 192.787 223.427 187.667C249.589 179.016 265.536 162.76 266.078 144.188C266.458 131.297 258.906 119.547 247.286 114.927C230.995 108.484 211.411 116.297 193.536 136.406C179.297 152.427 174.375 171.573 175.339 191.688Z" fill="#A6513D"/>
</g>
<path d="M334.224 400.385C384.609 406.172 367.333 508.219 330.917 526.255C294.495 544.292 204.188 467.068 236.011 434.219C258.714 410.786 303.823 469.005 303.823 469.005C303.823 469.005 293.958 395.76 334.224 400.385Z" fill="#FF6546"/>
</svg>
